<svg width="184" height="92" viewBox="0 0 184 92" fill="none" xmlns="http://www.w3.org/2000/svg">
<g clip-path="url(#clip0_3393_38463)">
<path d="M51.763 70.8913H51.3115C41.5479 70.7425 32.3538 68.3567 23.7292 63.7392C12.606 58.1416 6.77757 51.6309 6.24911 44.2171C6.24911 41.7954 6.93149 39.6406 8.29111 37.7473C10.3331 34.8742 13.9656 31.8061 19.1886 28.5532L21.2306 27.3065L49.0386 8.57968V5.74244H2.49862C1.66746 5.74244 1.04152 5.46026 0.625938 4.89075C0.210356 4.32125 0 3.70045 0 3.01807C0 2.3357 0.210356 1.70976 0.625938 1.14026C1.04152 0.570759 1.66746 0.288574 2.49862 0.288574H61.07C61.9781 0.288574 62.6399 0.570759 63.0555 1.14026C63.4711 1.70976 63.6815 2.33057 63.6815 3.01294C63.6815 3.69532 63.4711 4.31612 63.0555 4.88562C62.6399 5.45512 61.9781 5.73731 61.07 5.73731H54.4874V68.2798C54.4874 69.1109 54.2052 69.7574 53.6357 70.2089C53.0662 70.6604 52.4454 70.8913 51.763 70.8913ZM49.0386 53.7498V15.0443L43.8156 18.6768C41.5479 20.1903 39.0288 22.0271 36.2685 24.1819C33.5031 26.3368 31.066 28.6302 28.947 31.0519C26.8281 33.4735 25.7712 35.8593 25.7712 38.204C25.7712 38.9633 25.92 39.7175 26.2227 40.4717C27.7362 43.9554 30.8197 46.7927 35.4732 48.9834C40.1267 51.1794 44.6468 52.7698 49.0386 53.7498Z" fill="#93278F"/>
<path d="M107.61 73.6156C103.598 73.6156 99.0213 73.277 93.8753 72.5946C80.4073 70.9272 72.383 66.6944 69.8126 59.8809C69.6587 59.3525 69.5868 58.783 69.5868 58.1775C69.5868 53.8627 74.7688 49.7017 85.1378 45.6896C92.1001 43.0422 98.6827 41.113 104.891 39.9022V30.1386C104.891 27.2655 103.49 25.0131 100.689 23.3867C97.8874 21.7603 94.6346 20.9445 90.9251 20.9445C87.2157 20.9445 84.3015 21.7192 81.731 23.2738C79.1555 24.8233 77.8728 26.7729 77.8728 29.1176C77.8728 30.4054 78.4013 31.6727 79.4633 32.9194C80.5202 34.1662 82.2646 35.1718 84.6863 35.926C86.2768 36.3826 87.7134 36.6083 89.0012 36.6083C91.3459 36.6083 93.1621 36.0388 94.4499 34.905C95.7377 33.7711 96.379 32.5962 96.379 31.3854C96.379 29.1894 94.9783 28.0915 92.177 28.0915H91.6075C92.6644 28.7739 93.198 29.5691 93.198 30.4772C93.198 31.3084 92.803 32.0883 92.0077 32.8065C91.2125 33.5248 90.0581 33.884 88.5445 33.884C86.8771 33.807 85.5739 33.335 84.6298 32.4628C83.6807 31.5957 83.2087 30.5901 83.2087 29.4562C83.2087 28.0197 84.0193 26.7883 85.6508 25.7673C87.2773 24.7463 89.1859 24.2333 91.3818 24.2333C93.2698 24.2333 95.0707 24.6283 96.7741 25.4236C98.4774 26.2188 99.7037 27.4091 100.463 28.9996C101.068 30.2874 101.371 31.4982 101.371 32.6321C101.371 35.3565 99.9499 37.6242 97.1127 39.4405C94.2754 41.2567 90.8482 42.1648 86.8412 42.1648C82.6032 42.1648 78.8374 41.3131 75.5486 39.6098C72.2548 37.9064 69.6484 35.7515 67.7141 33.14C65.785 30.5285 64.8205 27.8606 64.8205 25.1362C64.8205 21.7295 66.257 18.5742 69.1353 15.66C72.0085 12.7458 76.2105 10.7602 81.7362 9.69816C83.7782 9.31849 85.7483 9.12866 87.6364 9.12866C94.7475 9.12866 100.499 11.3964 104.891 15.937V5.73731H61.0751C60.2439 5.73731 59.618 5.45512 59.2024 4.88562C58.7868 4.31612 58.5765 3.69532 58.5765 3.01294C58.5765 2.33057 58.7868 1.70976 59.2024 1.14026C59.618 0.570759 60.2439 0.288574 61.0751 0.288574H125.665C126.573 0.288574 127.235 0.570759 127.65 1.14026C128.066 1.70976 128.276 2.33057 128.276 3.01294C128.276 3.69532 128.066 4.31612 127.65 4.88562C127.235 5.45512 126.573 5.73731 125.665 5.73731H110.227V38.7683L111.93 38.4297C114.577 37.9013 117.04 37.5626 119.308 37.4087C120.139 37.4087 120.785 37.7114 121.237 38.3168C121.688 38.9223 121.919 39.6046 121.919 40.3588L121.581 44.2171C121.278 46.5618 121.129 49.2862 121.129 52.3902C121.129 55.7969 121.319 58.9369 121.699 61.81L121.924 65.6683C121.924 66.3506 121.699 66.8586 121.242 67.2023C120.785 67.541 120.257 67.7154 119.652 67.7154C118.969 67.7154 118.328 67.4896 117.722 67.033C116.435 66.2019 115.793 61.2816 115.793 52.2773C115.793 49.2502 115.942 46.1872 116.245 43.0832C114.506 43.2371 112.499 43.6117 110.227 44.2171V71.117C110.227 71.9482 109.96 72.5741 109.431 72.9897C108.903 73.4053 108.297 73.6156 107.615 73.6156H107.61ZM104.886 58.5213V45.3561C102.69 45.9615 100.191 46.7362 97.3949 47.6854C94.5935 48.6346 92.0949 49.635 89.9041 50.6919C87.7082 51.754 86.6103 52.775 86.6103 53.7549C86.6103 54.817 87.6107 55.7046 89.6168 56.4229C91.6229 57.1412 94.0035 57.6696 96.7689 58.0134C99.5292 58.352 101.971 58.5264 104.09 58.5264H104.886V58.5213Z" fill="#93278F"/>
<path d="M172.194 70.8913C171.512 70.8913 170.891 70.686 170.322 70.2653C169.752 69.8497 169.47 69.1879 169.47 68.2798V46.8286C169.47 42.288 168.033 38.8094 165.155 36.3877C162.277 33.9661 158.911 32.7552 155.053 32.7552C150.512 32.7552 147.07 34.3817 144.725 37.6345C142.986 39.9792 142.113 42.5548 142.113 45.351C142.113 47.3211 142.662 49.2092 143.76 51.0254C144.858 52.8417 146.577 54.2423 148.927 55.2274C150.517 55.8328 151.913 56.1355 153.129 56.1355C155.628 56.1355 157.536 55.3249 158.86 53.6934C160.184 52.067 160.845 50.42 160.845 48.7577C160.845 47.7008 160.579 46.7927 160.05 46.0333C159.291 44.8225 158.008 44.2171 156.192 44.2171C157.249 45.1252 157.782 46.1872 157.782 47.3929C157.782 48.455 157.387 49.4555 156.592 50.3995C155.797 51.3487 154.678 51.8207 153.242 51.8207C151.426 51.7437 150.045 51.1383 149.096 50.0044C148.147 48.8706 147.675 47.5469 147.675 46.0333C147.675 44.0683 148.66 42.288 150.625 40.6975C152.288 39.6406 153.991 39.107 155.735 39.107C157.7 39.107 159.558 39.6559 161.297 40.7539C163.036 41.8519 164.283 43.4218 165.042 45.4638C165.648 47.1313 165.95 48.7166 165.95 50.2302C165.95 53.8627 164.529 56.8692 161.692 59.255C158.855 61.6407 155.427 62.831 151.42 62.831C149.681 62.831 147.865 62.5694 145.972 62.0358C140.369 59.9168 136.208 56.8692 133.484 52.8981C130.759 48.927 129.4 44.7455 129.4 40.3537C129.4 35.9619 130.836 31.6316 133.715 27.8093C136.588 23.987 140.79 21.396 146.315 20.0364C148.357 19.5849 150.287 19.354 152.103 19.354C159.368 19.354 165.155 22.3452 169.47 28.3224V5.73731H125.654C124.746 5.73731 124.084 5.45512 123.669 4.88562C123.253 4.31612 123.043 3.69532 123.043 3.01294C123.043 2.33057 123.253 1.70976 123.669 1.14026C124.084 0.570759 124.746 0.288574 125.654 0.288574H181.389C182.22 0.288574 182.866 0.570759 183.318 1.14026C183.774 1.70976 184 2.33057 184 3.01294C184 3.69532 183.774 4.31612 183.318 4.88562C182.866 5.45512 182.22 5.73731 181.389 5.73731H174.806V68.2798C174.806 69.1879 174.524 69.8497 173.954 70.2653C173.385 70.6809 172.8 70.8913 172.194 70.8913Z" fill="#93278F"/>
<path d="M17.398 88.792C16.8849 87.771 16.1 86.8885 15.0379 86.1497C14.7352 86.5602 14.3299 86.868 13.8271 87.0835C13.3243 87.2939 12.7548 87.4016 12.1083 87.4016C10.8872 87.4016 9.84571 86.9552 8.98377 86.0574C8.12182 85.1595 7.38814 83.8153 6.77759 82.0196L7.9012 81.645C8.43992 83.2355 9.0402 84.4002 9.69692 85.139C10.3536 85.8778 11.1694 86.2421 12.1391 86.2421C12.883 86.2421 13.4577 86.0625 13.863 85.6931C14.2683 85.3288 14.4684 84.8568 14.4684 84.2719C14.4684 83.6511 14.3042 83.1534 13.9707 82.7738C13.6373 82.3941 13.2011 82.2043 12.6624 82.2043C12.3546 82.2043 12.1237 82.271 11.9698 82.4095C11.8159 82.548 11.7389 82.7276 11.7389 82.9533C11.7389 83.1791 11.8005 83.41 11.9185 83.6203L10.759 83.8922C10.5845 83.5228 10.4973 83.1534 10.4973 82.784C10.4973 82.4505 10.5845 82.1581 10.7538 81.9118C10.9283 81.6655 11.1797 81.4706 11.5132 81.3321C11.3285 80.8652 10.9437 80.5419 10.3536 80.3521H6.17731V79.2593H20.1788V80.3521H18.5678V88.7971H17.3929L17.398 88.792ZM15.5202 85.1749C15.9153 85.4314 16.2847 85.729 16.6284 86.083C16.9722 86.4319 17.2441 86.7757 17.4442 87.1143C17.4134 86.709 17.398 86.278 17.398 85.8111V80.347H12.1802C12.4418 80.5625 12.6214 80.8241 12.7291 81.132C13.6167 81.173 14.3248 81.486 14.8532 82.076C15.3817 82.666 15.6433 83.3997 15.6433 84.277C15.6433 84.5695 15.6023 84.8722 15.5253 85.1749H15.5202Z" fill="black"/>
<path d="M29.1985 83.0662L29.0292 81.9734C29.4242 81.8708 29.8449 81.8144 30.2964 81.8144C30.9224 81.8144 31.4046 81.9991 31.7433 82.3736C32.087 82.743 32.2563 83.2766 32.2563 83.9744C32.2563 84.3489 32.1948 84.7234 32.0716 85.0877C31.9485 85.452 31.7638 85.8214 31.5175 86.1805V91.7114H30.3734C30.2451 91.2496 30.0348 90.911 29.7577 90.6955C29.4755 90.4851 29.1061 90.3774 28.6444 90.3774C28.3776 90.3774 27.9568 90.4184 27.3925 90.5056C26.823 90.5929 26.3766 90.6391 26.0585 90.6391C25.2273 90.6391 24.5604 90.3979 24.0627 89.9105C23.565 89.4231 23.3188 88.7151 23.3188 87.7813C23.3188 87.3247 23.3803 86.8578 23.4983 86.3755L24.6732 86.5192C24.5706 86.9604 24.5142 87.3862 24.5142 87.8069C24.5142 88.3816 24.6425 88.8125 24.8939 89.105C25.1453 89.3974 25.5506 89.5411 26.1047 89.5411C26.3715 89.5411 26.7409 89.4949 27.2026 89.4077C27.6644 89.3205 28.0287 89.2794 28.3057 89.2794C29.2549 89.2794 29.9321 89.5565 30.3426 90.1106V88.2533C30.3426 88.0276 30.3477 87.73 30.3631 87.3606C29.9988 87.6376 29.6192 87.848 29.219 87.9865C28.8188 88.125 28.4135 88.1917 27.9876 88.1917C27.5259 88.1917 27.1359 88.1096 26.8178 87.9506C26.4997 87.7915 26.2535 87.5453 26.0636 87.222C25.8789 86.8988 25.7815 86.4011 25.7815 85.729V84.2258C25.3351 83.7332 24.8939 83.3484 24.4526 83.0765C24.0114 82.8046 23.5958 82.6712 23.2059 82.6712C22.8365 82.6712 22.544 82.7635 22.3234 82.9534C22.1028 83.1432 21.995 83.3946 21.995 83.7229C21.995 84 22.0874 84.2309 22.267 84.4258C22.4465 84.6208 22.7287 84.7953 23.1135 84.9594L22.5645 86.0523C21.9745 85.7957 21.523 85.4622 21.2101 85.0518C20.8971 84.6413 20.738 84.1796 20.738 83.6716C20.738 83.0303 20.9535 82.5224 21.3948 82.1427C21.8309 81.763 22.3542 81.5681 22.9647 81.5681C23.4675 81.5681 23.9498 81.6758 24.4116 81.8913C24.8733 82.1068 25.3454 82.4557 25.8225 82.938C25.7968 82.6712 25.7866 82.3377 25.7866 81.9272V80.3573H19.8812V79.2644H30.3939C30.3734 78.8283 30.2708 78.5256 30.0809 78.346C29.8962 78.1665 29.5884 78.0792 29.1728 78.0792H27.726C26.7717 78.0792 26.0842 77.9715 25.6532 77.7612C25.2273 77.5508 24.9144 77.2686 24.7194 76.9095C24.5245 76.5554 24.4218 76.1296 24.4218 75.6268C24.4218 75.3908 24.4475 75.1189 24.5039 74.811L25.6327 74.888C25.5865 75.1189 25.566 75.3138 25.566 75.4729C25.566 75.8423 25.6327 76.1399 25.7712 76.3656C25.9097 76.5914 26.1149 76.7504 26.3971 76.8428C26.6742 76.9351 27.0898 76.9813 27.6387 76.9813H28.8342C29.4499 76.9813 29.9373 77.0377 30.3015 77.1557C30.6658 77.2737 30.948 77.4944 31.1532 77.8227C31.3533 78.1511 31.4713 78.6282 31.4919 79.2644H33.1901V80.3573H26.9512V85.5084C26.9512 85.883 26.9769 86.1805 27.0231 86.4011C27.0692 86.6218 27.1719 86.7962 27.336 86.9193C27.5002 87.0425 27.7311 87.1092 28.0492 87.1092C28.7829 87.1092 29.4653 86.7808 30.1015 86.1292C30.7377 85.4776 31.0506 84.7696 31.0506 84.0103C31.0506 83.6511 30.9634 83.3895 30.789 83.2201C30.6145 83.0508 30.3477 82.9687 29.9886 82.9687C29.7577 82.9687 29.496 83.0047 29.1933 83.0714L29.1985 83.0662Z" fill="black"/>
<path d="M35.6631 88.7922H34.4882V81.6042C34.3445 81.1989 34.1444 80.8911 33.893 80.6704C33.6416 80.455 33.3492 80.3472 33.0157 80.3472H32.8823V79.2544H33.1285C33.4005 79.2544 33.6621 79.3416 33.9187 79.5109C34.1752 79.6802 34.3855 79.9162 34.5446 80.2189C34.5087 79.9778 34.4933 79.7008 34.4933 79.3878V78.2437H35.3091L35.6528 79.2544H37.2792V80.3472H35.6682V88.7922H35.6631Z" fill="black"/>
<path d="M42.574 79.2544V80.3472H42.2611C41.7737 80.4652 41.2657 80.7525 40.7475 81.1989C40.2293 81.6453 39.8189 82.184 39.5213 82.8099C39.2237 83.4359 39.075 84.0926 39.075 84.7852C39.075 85.7395 39.275 86.4681 39.6752 86.976C40.0754 87.4839 40.5885 87.7353 41.2042 87.7353C41.4556 87.7353 41.6711 87.7046 41.8558 87.6481C42.0405 87.5917 42.2354 87.5045 42.4406 87.3813L42.9794 88.3254C42.492 88.6896 41.8814 88.8692 41.1529 88.8692C40.5115 88.8692 39.942 88.6999 39.4444 88.3664C38.9416 88.0278 38.5516 87.5506 38.2746 86.935C37.9975 86.3193 37.859 85.6112 37.859 84.8057C37.859 83.8668 38.0693 83.0049 38.4952 82.2199C38.921 81.4349 39.5111 80.7936 40.2755 80.3062C39.9369 80.337 39.547 80.3524 39.1057 80.3524H36.9509V79.2595H42.5689L42.574 79.2544Z" fill="black"/>
<path d="M52.548 89.459H51.4038C51.1114 88.5714 50.5419 88.125 49.6953 88.125C49.3619 88.125 48.8488 88.1661 48.1613 88.2533C47.4738 88.3405 46.9351 88.3867 46.5451 88.3867C45.401 88.3867 44.5442 88.1455 43.9696 87.6633C43.3949 87.181 43.1076 86.473 43.1076 85.534C43.1076 85.062 43.1538 84.6824 43.2513 84.395L44.4262 84.5387C44.3441 84.8158 44.3082 85.1492 44.3082 85.5494C44.3082 86.1343 44.4877 86.5704 44.852 86.8578C45.2163 87.1451 45.7755 87.2887 46.54 87.2887C46.8478 87.2887 47.325 87.2425 47.9714 87.1553C48.6179 87.0681 49.1053 87.0271 49.4491 87.0271C50.2802 87.0271 50.9267 87.3041 51.3833 87.8582V83.2458C51.0139 82.7276 50.7112 82.3223 50.4701 82.0401L46.4938 85.806L45.5806 84.9543L46.0526 84.5131C46.2732 84.2001 46.381 83.8717 46.381 83.5382C46.381 83.2663 46.304 83.0611 46.1501 82.9072C45.9962 82.7532 45.7704 82.6814 45.478 82.6814C45.165 82.6814 44.8469 82.7738 44.5339 82.9636L43.3641 81.8554C44.0927 80.9011 44.7853 80.2136 45.442 79.7826C46.0988 79.3516 46.776 79.1413 47.484 79.1413C48.1921 79.1413 48.8796 79.326 49.4747 79.7005C50.0699 80.0699 50.7215 80.7215 51.4346 81.645C51.3987 81.2859 51.3833 80.8139 51.3833 80.2392V78.2383H52.1991L52.5428 79.249H54.1693V80.3418H52.5582V89.4539L52.548 89.459ZM47.3968 83.4561C47.638 83.1996 47.8996 82.9379 48.1921 82.6609L49.721 81.2243C49.3721 80.896 49.0284 80.6548 48.6897 80.5009C48.3511 80.347 47.9868 80.27 47.5918 80.27C47.089 80.27 46.6118 80.3983 46.1706 80.6599C45.7242 80.9216 45.2779 81.3269 44.8315 81.881C45.1188 81.7374 45.4061 81.6656 45.6934 81.6656C46.2322 81.6656 46.6529 81.8143 46.9505 82.117C47.248 82.4198 47.4019 82.8251 47.4019 83.3381V83.4561H47.3968Z" fill="black"/>
<path d="M55.2518 79.2542C54.7798 78.7053 54.4668 78.2897 54.3078 78.0024C54.9645 76.812 55.6469 75.9706 56.3498 75.4729C57.0527 74.9753 57.8685 74.729 58.8074 74.729C59.695 74.729 60.5877 74.9342 61.4856 75.3396C62.3834 75.7449 63.4916 76.4939 64.8102 77.5765L64.1586 78.4077C62.9683 77.438 62.0038 76.771 61.2598 76.4067C60.5159 76.0424 59.7565 75.8577 58.9767 75.8577C58.243 75.8577 57.6068 76.0373 57.0732 76.4016C56.5396 76.7659 56.0573 77.3508 55.6212 78.1665C55.77 78.4538 56.0471 78.8181 56.4473 79.2594H58.2379V80.3522H56.6268V88.7972H55.4519V80.3522H53.8409V79.2594H55.2467L55.2518 79.2542Z" fill="black"/>
<path d="M64.7435 84.149C64.7179 83.872 64.7076 83.5231 64.7076 83.1024V80.3472H57.9249V79.2544H67.4935V80.3472H65.8825V88.7922H64.7076V85.601C64.1381 84.893 63.5686 84.3491 62.9991 83.9746C62.4296 83.6 61.896 83.4153 61.3983 83.4153C60.9879 83.4153 60.6595 83.518 60.4133 83.7283C60.167 83.9335 60.0438 84.2209 60.0438 84.5851C60.0438 84.8878 60.1516 85.1546 60.3671 85.3752C60.5826 85.5959 60.9161 85.796 61.3727 85.9704L60.7827 87.0632C60.1362 86.7913 59.6385 86.4424 59.2999 86.0012C58.9613 85.5651 58.792 85.0777 58.792 84.539C58.792 84.0977 58.8997 83.7078 59.1101 83.3692C59.3204 83.0305 59.618 82.7689 60.0028 82.5842C60.3825 82.3995 60.7929 82.3071 61.2188 82.3071C61.8396 82.3071 62.4296 82.4508 62.9991 82.733C63.5635 83.0152 64.1535 83.4872 64.7538 84.149H64.7435Z" fill="black"/>
<path d="M76.739 83.3128C77.4316 83.8259 77.7805 84.5082 77.7805 85.3497C77.7805 86.1911 77.4624 86.8786 76.8313 87.3865C76.1951 87.8945 75.3486 88.151 74.2762 88.151C72.696 88.151 71.3672 87.5558 70.3 86.3707C69.2328 85.1855 68.3863 83.4 67.7706 81.0194L68.925 80.6808C69.5355 82.8767 70.259 84.4775 71.1004 85.4831C71.9418 86.4887 73.009 86.9915 74.307 86.9915C75.0151 86.9915 75.564 86.8427 75.9591 86.5502C76.3542 86.2578 76.5491 85.8422 76.5491 85.3086C76.5491 84.775 76.2977 84.3441 75.7949 83.9747C75.5179 84.1337 75.1536 84.2979 74.7021 84.4672L74.2301 83.3744C74.9945 83.123 75.5486 82.8408 75.8873 82.5278C76.231 82.2148 76.4003 81.8403 76.4003 81.4042C76.4003 81.0245 76.2926 80.7372 76.0822 80.5371C75.8719 80.3422 75.5589 80.2395 75.1485 80.2395C74.697 80.2395 74.2609 80.337 73.835 80.532C73.4092 80.727 73.0654 80.9732 72.8038 81.2657C72.5421 81.5581 72.4087 81.8249 72.4087 82.0609C72.4087 82.1841 72.4344 82.2918 72.4805 82.3739C72.5267 82.456 72.6139 82.5278 72.7422 82.5945C72.8705 82.6612 73.0398 82.7074 73.2553 82.7382L72.932 83.8669C71.7622 83.6463 71.1773 83.087 71.1773 82.1841C71.1773 81.7172 71.3723 81.2452 71.752 80.7629C72.1368 80.2806 72.6344 79.8907 73.2501 79.5931C73.8658 79.3006 74.4969 79.1519 75.1433 79.1519C75.9181 79.1519 76.5235 79.3468 76.9647 79.7419C77.4059 80.1369 77.6214 80.6808 77.6214 81.3837C77.6214 82.1225 77.329 82.7638 76.739 83.3128Z" fill="black"/>
<path d="M86.3384 88.7922H85.1635C84.6658 87.8379 83.9372 87.0273 82.9881 86.3603C82.0389 85.6933 80.9769 85.2572 79.8071 85.0674L79.2068 83.5898C80.238 82.9792 81.2539 82.4508 82.2441 81.9942C83.2395 81.5375 84.2092 81.163 85.1583 80.8654V80.3472H78.4885V79.2544H87.9443V80.3472H86.3332V88.7922H86.3384ZM81.5104 88.8795C81.259 88.8795 81.0436 88.7922 80.8589 88.6229C80.6742 88.4536 80.5818 88.2381 80.5818 87.9816C80.5818 87.7251 80.669 87.5147 80.8486 87.3403C81.0282 87.1658 81.2488 87.0786 81.5104 87.0786C81.7618 87.0786 81.9722 87.1658 82.1466 87.3403C82.3211 87.5147 82.4083 87.7302 82.4083 87.9816C82.4083 88.233 82.3211 88.4536 82.1466 88.6229C81.9722 88.7922 81.7618 88.8795 81.5104 88.8795ZM85.1635 82.0609C84.3272 82.3482 83.5268 82.6663 82.7726 83.01C82.0184 83.3538 81.3052 83.7283 80.6382 84.1234C81.6182 84.3542 82.5212 84.7339 83.3472 85.2726C84.1732 85.8113 84.794 86.427 85.2148 87.1248C85.1788 86.7092 85.1635 86.2988 85.1635 85.8832V82.0557V82.0609Z" fill="black"/>
<path d="M88.365 81.2092L88.5291 80.3472H87.6313V79.2544H98.4056V80.3472H96.7946V88.7922H95.6197V83.913C95.3939 83.636 95.1887 83.4153 95.004 83.2665C94.8193 83.1126 94.6397 83.0357 94.4653 83.0357C94.3011 83.0357 94.1575 83.0818 94.0446 83.1742C93.9266 83.2666 93.7983 83.4256 93.6495 83.6462C93.5007 83.8668 93.3058 84.2157 93.0492 84.6826C92.5618 85.5753 92.1565 86.1602 91.8333 86.4322C91.51 86.7041 91.1252 86.8426 90.6686 86.8426C90.212 86.8426 89.7913 86.6938 89.4219 86.3911C89.0576 86.0884 88.6882 85.642 88.3188 85.052L89.2628 84.4928C89.5296 84.9597 89.7502 85.2675 89.9349 85.4214C90.1196 85.5753 90.3197 85.6523 90.5455 85.6523C90.7712 85.6523 90.997 85.5497 91.2073 85.3547C91.4177 85.1546 91.6537 84.8468 91.9051 84.4261C91.782 83.482 91.6178 82.8304 91.4177 82.4764C91.2176 82.1173 90.8995 81.8505 90.4531 81.6658C90.0119 81.4811 89.3141 81.3323 88.3598 81.2143L88.365 81.2092ZM89.4373 80.3472C90.5558 80.5114 91.3459 80.8038 91.8025 81.2246C92.2591 81.6453 92.531 82.3225 92.6183 83.2614C92.844 82.8099 93.0698 82.4713 93.3058 82.2456C93.5418 82.0147 93.824 81.9018 94.1523 81.9018C94.4089 81.9018 94.65 81.9634 94.8809 82.0814C95.1117 82.1994 95.3734 82.4097 95.6659 82.7124C95.6351 82.4867 95.6197 82.1737 95.6197 81.7684V80.3524H89.4373V80.3472Z" fill="black"/>
<path d="M108.846 87.8328C108.595 87.5968 108.354 87.4788 108.113 87.4788C107.908 87.4788 107.749 87.5506 107.641 87.6994C107.533 87.8482 107.477 88.0586 107.477 88.3408C107.477 88.4742 107.487 88.6076 107.513 88.7358L106.579 88.782C106.512 88.2279 106.343 87.7969 106.071 87.4891C105.799 87.1812 105.45 87.0222 105.04 87.0222C104.762 87.0222 104.542 87.0991 104.378 87.2479C104.208 87.3967 104.126 87.5866 104.126 87.8072C104.126 88.0791 104.234 88.3151 104.45 88.5152C104.665 88.7153 104.988 88.8897 105.414 89.0334L104.973 90.0749C104.296 89.8235 103.783 89.5105 103.444 89.1257C103.105 88.7409 102.936 88.2895 102.936 87.761C102.936 87.2325 103.126 86.8324 103.511 86.4937C103.89 86.15 104.373 85.9807 104.942 85.9807C105.363 85.9807 105.737 86.073 106.066 86.2629C106.394 86.4527 106.681 86.7349 106.928 87.1094C107.035 86.8888 107.179 86.7246 107.359 86.6117C107.538 86.4989 107.749 86.4424 107.99 86.4424C108.164 86.4424 108.323 86.4835 108.467 86.5604C108.61 86.6425 108.754 86.7554 108.898 86.9042V86.8734C108.369 86.2013 107.713 85.6574 106.938 85.247C106.163 84.8365 105.255 84.5543 104.229 84.4056L103.654 83.0254C104.526 82.5791 105.399 82.184 106.266 81.83C107.133 81.476 108 81.1681 108.857 80.9065V80.337H102.089V79.2441H114.49V80.337H110.037V80.8552C111.166 81.0553 112.048 81.4093 112.679 81.9223C113.31 82.4354 113.628 83.0613 113.628 83.8001C113.628 84.3286 113.459 84.7544 113.125 85.0777C112.792 85.4009 112.325 85.56 111.735 85.56C111.422 85.56 111.155 85.5343 110.935 85.483L111.001 84.4107C111.155 84.4312 111.299 84.4415 111.437 84.4415C111.771 84.4415 112.027 84.385 112.197 84.2722C112.366 84.1593 112.453 83.9643 112.453 83.6821C112.453 83.2717 112.243 82.9125 111.822 82.6098C111.402 82.302 110.806 82.0865 110.032 81.9531V89.449H108.857V87.8226L108.846 87.8328ZM108.846 82.0506C108.144 82.2712 107.482 82.5021 106.871 82.7484C106.255 82.9946 105.686 83.246 105.158 83.5128C105.891 83.6668 106.558 83.8976 107.153 84.2003C107.749 84.503 108.333 84.9391 108.903 85.4984C108.867 84.8519 108.852 84.421 108.852 84.2157V82.0506H108.846Z" fill="black"/>
<path d="M116.948 88.7922H115.773V81.6042C115.629 81.1989 115.429 80.8911 115.178 80.6704C114.926 80.455 114.634 80.3472 114.3 80.3472H114.167V79.2544H114.413C114.685 79.2544 114.947 79.3416 115.203 79.5109C115.46 79.6802 115.67 79.9162 115.829 80.2189C115.793 79.9778 115.778 79.7008 115.778 79.3878V78.2437H116.594L116.937 79.2544H118.564V80.3472H116.953V88.7922H116.948Z" fill="black"/>
<path d="M126.085 88.7922H124.91C124.413 87.8379 123.684 87.0273 122.735 86.3603C121.786 85.6933 120.724 85.2572 119.554 85.0674L118.954 83.5898C119.985 82.9792 121.001 82.4508 121.991 81.9942C122.987 81.5375 123.956 81.163 124.905 80.8654V80.3472H118.236V79.2544H127.691V80.3472H126.08V88.7922H126.085ZM124.91 82.0609C124.074 82.3482 123.274 82.6663 122.52 83.01C121.765 83.3538 121.052 83.7283 120.385 84.1234C121.365 84.3542 122.268 84.7339 123.094 85.2726C123.92 85.8113 124.541 86.427 124.962 87.1248C124.926 86.7092 124.91 86.2988 124.91 85.8832V82.0557V82.0609Z" fill="black"/>
<path d="M136.973 83.087C136.973 83.3128 136.988 83.4769 137.019 83.5795C137.05 83.6822 137.111 83.7694 137.198 83.8412C137.286 83.913 137.398 83.9489 137.537 83.9489C137.84 83.9489 138.163 83.8053 138.496 83.518C138.83 83.2307 139.21 82.7792 139.635 82.1584L140.549 82.0096C141.236 83.0203 141.58 84.0362 141.58 85.0418C141.58 86.0474 141.252 86.8632 140.59 87.484C139.933 88.1048 139.035 88.4177 137.901 88.4177C136.408 88.4177 135.187 87.8585 134.243 86.7349C133.299 85.6113 132.535 83.9233 131.955 81.6607L133.114 81.3477C133.617 83.3487 134.238 84.8366 134.967 85.8011C135.695 86.7708 136.655 87.2531 137.84 87.2531C138.635 87.2531 139.261 87.053 139.723 86.6528C140.184 86.2526 140.415 85.7242 140.415 85.0572C140.415 84.3902 140.277 83.8771 139.995 83.4308C139.589 83.99 139.179 84.4004 138.763 84.6724C138.348 84.9443 137.942 85.0726 137.547 85.0726C137.152 85.0726 136.824 84.9853 136.552 84.8109C136.28 84.6365 136.08 84.4005 135.962 84.0977C135.844 83.795 135.787 83.3897 135.787 82.8715V80.3421H131.355V79.2493H139.297C139.276 78.8132 139.174 78.5105 138.984 78.3309C138.799 78.1513 138.491 78.0641 138.076 78.0641H135.926C134.972 78.0641 134.284 77.9564 133.853 77.746C133.427 77.5357 133.114 77.2535 132.919 76.8943C132.724 76.5403 132.622 76.1145 132.622 75.6117C132.622 75.3757 132.647 75.1037 132.704 74.7959L133.833 74.8729C133.786 75.1037 133.766 75.2987 133.766 75.4577C133.766 75.8272 133.833 76.1247 133.971 76.3505C134.11 76.5762 134.315 76.7353 134.597 76.8276C134.874 76.92 135.29 76.9662 135.839 76.9662H137.742C138.358 76.9662 138.845 77.0226 139.21 77.1406C139.574 77.2586 139.856 77.4792 140.061 77.8076C140.261 78.1359 140.379 78.6131 140.4 79.2493H142.586V80.3421H136.957V83.0819L136.973 83.087Z" fill="black"/>
<path d="M147.906 79.2544V80.3472H147.593C147.106 80.4652 146.598 80.7525 146.08 81.1989C145.561 81.6453 145.151 82.184 144.853 82.8099C144.556 83.4359 144.407 84.0926 144.407 84.7852C144.407 85.7395 144.607 86.4681 145.007 86.976C145.407 87.4839 145.92 87.7353 146.536 87.7353C146.788 87.7353 147.003 87.7046 147.188 87.6481C147.372 87.5917 147.567 87.5045 147.773 87.3813L148.311 88.3254C147.824 88.6896 147.213 88.8692 146.485 88.8692C145.843 88.8692 145.274 88.6999 144.776 88.3664C144.274 88.0278 143.884 87.5506 143.607 86.935C143.329 86.3193 143.191 85.6112 143.191 84.8057C143.191 83.8668 143.401 83.0049 143.827 82.2199C144.253 81.4349 144.843 80.7936 145.607 80.3062C145.269 80.337 144.879 80.3524 144.438 80.3524H142.283V79.2595H147.901L147.906 79.2544Z" fill="black"/>
<path d="M147.593 80.3472V79.2544H157.157V80.3472H150.184V84.3748C150.805 83.7334 151.513 83.1537 152.323 82.6509C153.129 82.1429 154.032 81.7068 155.032 81.3374L156.028 82.3276C155.746 82.8561 155.54 83.3794 155.412 83.8874C155.289 84.4004 155.222 84.9853 155.222 85.6523C155.222 86.1448 155.263 86.622 155.345 87.0837C155.428 87.5455 155.561 88.0637 155.751 88.6383L154.596 88.9102C154.212 87.6481 154.022 86.4732 154.022 85.3906C154.022 84.8981 154.068 84.4107 154.165 83.9387C154.263 83.4666 154.401 83.0562 154.576 82.7176C153.822 83.0459 153.057 83.4923 152.277 84.0618C151.497 84.6313 150.712 85.3137 149.912 86.1192L149.004 85.5035V80.3524H147.588L147.593 80.3472Z" fill="black"/>
<path d="M156.838 79.2544H161.061V80.3472H160.512C160.168 80.6499 159.901 80.9629 159.706 81.2861C159.517 81.6094 159.419 82.0916 159.419 82.733C159.419 83.087 159.506 83.636 159.676 84.3799C159.845 85.1238 159.932 85.7498 159.932 86.2526C159.932 86.935 159.809 87.4942 159.568 87.9303C159.327 88.3664 158.973 88.7153 158.511 88.9872C158.044 89.2591 157.49 89.4592 156.849 89.5926L156.52 88.5306C156.941 88.4331 157.3 88.3048 157.608 88.1612C157.911 88.0124 158.142 87.8482 158.296 87.6686C158.449 87.4891 158.562 87.289 158.629 87.0684C158.696 86.8529 158.732 86.5655 158.732 86.2115C158.732 85.7549 158.644 85.1649 158.475 84.4466C158.306 83.7232 158.219 83.1639 158.219 82.7689C158.219 82.2353 158.285 81.7889 158.424 81.4349C158.562 81.0758 158.788 80.7166 159.106 80.3524H156.838V79.2595V79.2544Z" fill="black"/>
<path d="M163.539 88.7922H162.364V81.6042C162.22 81.1989 162.02 80.8911 161.769 80.6704C161.518 80.455 161.225 80.3472 160.892 80.3472H160.758V79.2544H161.005C161.276 79.2544 161.538 79.3416 161.795 79.5109C162.051 79.6802 162.262 79.9162 162.421 80.2189C162.385 79.9778 162.369 79.7008 162.369 79.3878V78.2437H163.185L163.529 79.2544H165.155V80.3472H163.544V88.7922H163.539Z" fill="black"/>
<path d="M173.605 80.3472V88.7922H172.43V82.8048C171.753 81.8761 171.158 81.2245 170.645 80.8449C170.132 80.4652 169.593 80.2754 169.034 80.2754C168.618 80.2754 168.244 80.3729 167.9 80.5729C167.556 80.7679 167.213 81.1219 166.864 81.6247C167.233 81.4298 167.715 81.3323 168.316 81.3323C168.916 81.3323 169.414 81.5067 169.768 81.8607C170.122 82.2148 170.301 82.6406 170.301 83.1434C170.301 83.7386 170.101 84.2721 169.701 84.7493C169.301 85.2264 168.665 85.6985 167.797 86.1602L167.018 85.0469C167.715 84.7595 168.234 84.462 168.572 84.1644C168.911 83.8668 169.075 83.5436 169.075 83.205C169.075 82.9638 168.983 82.774 168.803 82.6252C168.624 82.4764 168.377 82.4046 168.075 82.4046C167.833 82.4046 167.603 82.4302 167.377 82.4867C167.151 82.5431 166.889 82.6406 166.582 82.7843L165.345 81.7787C165.853 80.8911 166.402 80.2292 166.992 79.7982C167.582 79.3673 168.223 79.1518 168.916 79.1518C169.609 79.1518 170.193 79.3159 170.753 79.6443C171.312 79.9727 171.892 80.496 172.487 81.2143C172.487 81.086 172.471 80.9064 172.456 80.6756C172.441 80.4447 172.436 80.1625 172.436 79.8239V78.2539H173.246L173.6 79.2646H175.227V80.3575H173.616L173.605 80.3472Z" fill="black"/>
</g>
<defs>
<clipPath id="clip0_3393_38463">
<rect width="184" height="91.4228" fill="white" transform="translate(0 0.288574)"/>
</clipPath>
</defs>
</svg>
