<svg width="85" height="40" viewBox="0 0 85 40" fill="none" xmlns="http://www.w3.org/2000/svg">
<g clip-path="url(#clip0_4463_2690)">
<path d="M19.023 20.423C19.023 20.423 16.0232 17.8026 15.8604 12.8236C15.8604 12.8236 18.234 11.1029 21.1986 10.2367C21.1986 10.2367 17.947 17.5021 19.0213 20.423H19.023Z" fill="url(#paint0_linear_4463_2690)"/>
<path d="M15.8604 12.8252C15.8604 12.8252 15.8469 9.49975 17.7086 6.69129C17.7086 6.69129 20.3643 4.79772 25.5196 5.94259C25.5196 5.94259 23.1728 6.94477 21.1986 10.2384C21.1986 10.2384 18.694 10.888 15.8604 12.8252Z" fill="url(#paint1_linear_4463_2690)"/>
<path d="M20.8411 5.66728C20.8411 5.66728 20.6447 2.51805 18.3012 0.56908C18.3012 0.56908 18.8199 3.49673 17.7086 6.69129C17.7086 6.69129 18.6755 5.96274 20.8411 5.66896V5.66728Z" fill="url(#paint2_linear_4463_2690)"/>
<path d="M25.5196 5.94091C25.5196 5.94091 29.9094 6.58385 32.7548 9.09854C32.7548 9.09854 27.5172 7.48699 23.5505 10.2484C23.5505 10.2484 22.3754 9.84052 21.1986 10.2367C21.1986 10.2367 22.8118 7.33591 25.5196 5.94091Z" fill="url(#paint3_linear_4463_2690)"/>
<path d="M23.5505 10.2484C23.5505 10.2484 21.4186 11.4487 19.8473 13.7922C19.8473 13.7922 20.1998 12.5449 21.1986 10.2367C21.1986 10.2367 22.2411 9.84053 23.5505 10.2484Z" fill="url(#paint4_linear_4463_2690)"/>
<path d="M23.4229 4.20178C24.608 4.697 25.998 4.20178 26.5268 3.09384C27.0572 1.9859 26.5268 0.688267 25.3399 0.193051C24.1548 -0.302164 22.7648 0.193052 22.236 1.30099C21.7056 2.40893 22.236 3.70657 23.4229 4.20178Z" fill="url(#paint5_linear_4463_2690)"/>
<path d="M4.47873 24.702L0.889671 27.7069L4.28735 22.1H11.2959V18.5026H4.10102V7.8647H14.796L17.1764 4.29747H0.281982V28.2709H20.0856V24.702H4.47873Z" fill="#056A50"/>
<path d="M84.608 19.9614L84.5996 19.9312C84.3998 19.3201 84.1228 18.751 83.7787 18.2424C83.124 17.2553 82.2377 16.4529 81.1465 15.8587C80.3525 15.4255 79.4896 15.1452 78.5714 15.0227C78.5865 14.8833 78.5949 14.744 78.5949 14.603C78.5949 13.495 78.1634 12.5298 77.3123 11.7341C76.4764 10.9535 75.4507 10.5573 74.2655 10.5573H69.5098V28.8367H77.4651C78.7997 28.8367 80.0369 28.5311 81.1398 27.9302C82.2528 27.3326 83.1441 26.5251 83.7854 25.533C84.1279 25.0109 84.4015 24.4385 84.6046 23.8224L84.6113 23.8006C84.7943 23.1862 84.8866 22.5399 84.8866 21.8818C84.8866 21.2238 84.7943 20.5775 84.6113 19.9597L84.608 19.9614ZM77.4651 25.5397H72.6086V18.2693H77.4651C78.5764 18.2693 79.456 18.6084 80.235 19.3369C80.9988 20.052 81.3547 20.8679 81.3547 21.9036C81.3547 22.9394 80.9971 23.7469 80.2333 24.472C79.4544 25.1989 78.5747 25.538 77.4651 25.538V25.5397ZM72.6086 13.2936H74.4166C74.8094 13.2936 75.1384 13.4178 75.4255 13.673C75.7075 13.9248 75.8435 14.2236 75.8435 14.5845C75.8435 14.9454 75.7042 15.2543 75.4188 15.5212C75.2157 15.7109 74.9907 15.8301 74.7339 15.8838C74.6298 15.9057 74.5224 15.9174 74.4166 15.9174H72.6086V13.2936Z" fill="#056A50"/>
<path d="M43.5488 25.1553V10.5556H39.6106V28.835H50.8008V25.1553H43.5488Z" fill="#056A50"/>
<path d="M63.8862 10.5556L63.8912 11.8667C63.9063 16.2045 63.913 19.4964 63.913 21.6518C63.913 22.2763 63.7519 22.8504 63.4296 23.3608C63.1006 23.8929 62.6674 24.3143 62.1403 24.6164L62.1084 24.6349C61.8382 24.7994 61.5343 24.9287 61.207 25.0176C60.8746 25.1083 60.5237 25.1536 60.1645 25.1536C59.4964 25.1536 58.8837 25.0025 58.3381 24.702L58.3247 24.6953C57.7606 24.3898 57.3124 23.9869 56.9851 23.4867L56.9699 23.4648C56.792 23.2113 56.6544 22.9276 56.5603 22.6221C56.463 22.3116 56.4143 21.9842 56.4143 21.6485V10.5556H52.4761V21.6502C52.4761 22.3451 52.5785 23.0166 52.7782 23.6461C52.978 24.2891 53.2634 24.89 53.626 25.4306C54.2991 26.4496 55.2157 27.2755 56.3472 27.8798C57.5004 28.5127 58.7846 28.8333 60.1645 28.8333C61.5444 28.8333 62.8269 28.5144 63.9718 27.8865C65.1116 27.2772 66.0299 26.4529 66.7014 25.4373C67.0656 24.8917 67.351 24.2907 67.5491 23.6528C67.7505 23.02 67.8529 22.3451 67.8529 21.6502V10.5556H63.8879H63.8862Z" fill="#056A50"/>
<path d="M35.7328 22.6272L34.744 23.5504C34.2186 24.0423 33.5941 24.4318 32.8941 24.7104L32.8639 24.7222C32.1655 25.0092 31.4051 25.1553 30.6077 25.1553C29.5753 25.1553 28.6235 24.9236 27.7808 24.4687L27.7455 24.4485C26.8642 23.9752 26.1558 23.3423 25.6404 22.5701C25.3718 22.1655 25.162 21.7123 25.016 21.2154L25.0076 21.1885C24.8548 20.7151 24.7759 20.2098 24.7759 19.6844C24.7759 19.2731 24.8263 18.8618 24.927 18.464C24.9538 18.3599 24.9807 18.2642 25.016 18.1534C25.1586 17.6767 25.3685 17.2268 25.6388 16.8205C25.8117 16.562 26.0097 16.3136 26.2246 16.087C26.651 15.6387 27.1647 15.2526 27.7522 14.9354C27.994 14.8044 28.2441 14.6903 28.4959 14.598C29.1489 14.3562 29.859 14.2354 30.606 14.2354C30.8444 14.2354 31.0861 14.2488 31.3228 14.274C31.865 14.3327 32.3871 14.4603 32.8655 14.6483C33.5823 14.9438 34.2135 15.345 34.744 15.8402L35.7328 16.7635L38.516 14.1632L37.5273 13.2382C36.646 12.4156 35.6052 11.7526 34.4234 11.2657C34.2454 11.1952 34.0608 11.1281 33.8761 11.066C33.1358 10.8209 32.3519 10.6631 31.5461 10.5943C31.2322 10.5674 30.9166 10.554 30.6077 10.554C29.671 10.554 28.7561 10.6765 27.8983 10.9166C27.027 11.1449 26.2062 11.484 25.4575 11.9238C24.0725 12.7329 22.9495 13.8291 22.1252 15.1771C21.6854 15.8805 21.3547 16.6342 21.1398 17.4165C20.9468 18.1199 20.8461 18.8585 20.8394 19.6089V19.6827C20.8394 21.3178 21.2708 22.8404 22.1219 24.2018C22.9495 25.5565 24.0725 26.6527 25.4558 27.4618C26.2062 27.9016 27.0254 28.2407 27.8832 28.4657C28.7561 28.7091 29.6727 28.8333 30.6094 28.8333C31.9574 28.8333 33.2382 28.5949 34.4116 28.1266L34.4418 28.1148C35.6102 27.633 36.6493 26.9716 37.529 26.1491L38.5194 25.2258L35.7361 22.6255L35.7328 22.6272Z" fill="#056A50"/>
<path d="M80.3391 13.1039H79.9413V14.4133C79.9413 14.4888 79.9245 14.5442 79.8909 14.5812C79.8574 14.6181 79.8137 14.6366 79.76 14.6366C79.7063 14.6366 79.6609 14.6181 79.6274 14.5812C79.5938 14.5442 79.577 14.4888 79.577 14.4133V13.1039H79.1792C79.1171 13.1039 79.07 13.0905 79.0398 13.0619C79.0096 13.0351 78.9945 12.9982 78.9945 12.9528C78.9945 12.9075 79.0096 12.8689 79.0415 12.842C79.0734 12.8152 79.1187 12.8017 79.1792 12.8017H80.3408C80.4046 12.8017 80.4516 12.8152 80.4818 12.8437C80.512 12.8723 80.5272 12.9075 80.5272 12.9528C80.5272 12.9982 80.5121 13.0334 80.4802 13.0619C80.4483 13.0888 80.4029 13.1039 80.3408 13.1039H80.3391Z" fill="#D73826"/>
<path d="M81.3514 14.3327L81.0627 13.1845V14.4284C81.0627 14.4972 81.0476 14.5493 81.0173 14.5828C80.9871 14.6181 80.9452 14.6349 80.8948 14.6349C80.8444 14.6349 80.8058 14.6181 80.7739 14.5845C80.742 14.5509 80.7269 14.4989 80.7269 14.4284V13.0015C80.7269 12.9226 80.7471 12.8689 80.789 12.842C80.8293 12.8152 80.8847 12.8001 80.9552 12.8001H81.0677C81.1349 12.8001 81.1852 12.8068 81.2154 12.8185C81.2456 12.8303 81.2691 12.8538 81.2843 12.8857C81.2994 12.9176 81.3162 12.9696 81.3346 13.0418L81.5965 14.0289L81.8584 13.0418C81.8768 12.9696 81.8936 12.9176 81.9087 12.8857C81.9238 12.8538 81.9457 12.832 81.9776 12.8185C82.0078 12.8068 82.0581 12.8001 82.1253 12.8001H82.2378C82.3066 12.8001 82.362 12.8135 82.4039 12.842C82.4442 12.8689 82.4661 12.9226 82.4661 13.0015V14.4284C82.4661 14.4972 82.451 14.5493 82.4207 14.5828C82.3905 14.6181 82.3485 14.6349 82.2965 14.6349C82.2478 14.6349 82.2075 14.6181 82.1773 14.5828C82.1454 14.5493 82.1303 14.4972 82.1303 14.4284V13.1845L81.8416 14.3327C81.8231 14.4066 81.808 14.462 81.7963 14.4972C81.7845 14.5325 81.7627 14.5644 81.7308 14.5929C81.6989 14.6215 81.6552 14.6366 81.5982 14.6366C81.5562 14.6366 81.5193 14.6265 81.4907 14.6097C81.4605 14.5912 81.4387 14.5677 81.4219 14.5392C81.4051 14.5107 81.3934 14.4788 81.3833 14.4435C81.3732 14.4083 81.3648 14.373 81.3548 14.3344L81.3514 14.3327Z" fill="#D73826"/>
<path d="M3.70824 34.8581H0.924962V37.2889H4.02719V38.0191H0V31.2775H3.86772V32.0077H0.924962V34.138H3.70824V34.8581Z" fill="#2A2A2A"/>
<path d="M5.19553 34.4888C5.19553 33.9886 5.18546 33.579 5.15356 33.1778H5.98284L6.03656 33.9785H6.05838C6.31354 33.5186 6.9078 33.0687 7.7589 33.0687C8.47067 33.0687 9.57525 33.4682 9.57525 35.1284V38.0191H8.64022V35.2291C8.64022 34.4486 8.33134 33.7989 7.45002 33.7989C6.83394 33.7989 6.35551 34.2085 6.19604 34.6987C6.15407 34.8095 6.13224 34.9589 6.13224 35.1083V38.0191H5.19721V34.4888H5.19553Z" fill="#2A2A2A"/>
<path d="M12.1773 31.7878V33.1778H13.5169V33.8476H12.1773V36.458C12.1773 37.0589 12.3586 37.398 12.879 37.398C13.1241 37.398 13.3037 37.3678 13.4212 37.3376L13.4631 37.9973C13.2818 38.0678 12.9948 38.1165 12.6339 38.1165C12.1991 38.1165 11.8482 37.9872 11.625 37.7472C11.3597 37.487 11.2641 37.0573 11.2641 36.4865V33.8459H10.4667V33.1761H11.2641V32.0161L12.1773 31.7861V31.7878Z" fill="#2A2A2A"/>
<path d="M14.5677 34.6886C14.5677 34.1178 14.5577 33.6277 14.5258 33.1778H15.3433L15.3752 34.1279H15.4171C15.6505 33.4783 16.2145 33.067 16.8407 33.067C16.9464 33.067 17.022 33.0771 17.1059 33.0972V33.9282C17.0102 33.908 16.9145 33.8979 16.787 33.8979C16.1289 33.8979 15.6606 34.368 15.533 35.0277C15.5112 35.1486 15.491 35.2879 15.491 35.4373V38.0175H14.566V34.6869L14.5677 34.6886Z" fill="#2A2A2A"/>
<path d="M18.4573 35.7579C18.4791 36.9481 19.2866 37.4383 20.2216 37.4383C20.8914 37.4383 21.2943 37.3275 21.6452 37.1882L21.8046 37.8177C21.4756 37.957 20.9116 38.1182 20.094 38.1182C18.511 38.1182 17.5659 37.1378 17.5659 35.6774C17.5659 34.2169 18.4791 33.067 19.9782 33.067C21.6569 33.067 22.1034 34.4569 22.1034 35.3483C22.1034 35.528 22.0816 35.669 22.0715 35.7579H18.459H18.4573ZM21.1986 35.1284C21.2087 34.5677 20.9535 33.6982 19.9027 33.6982C18.9576 33.6982 18.5429 34.5191 18.4691 35.1284H21.2003H21.1986Z" fill="#2A2A2A"/>
<path d="M23.26 34.7591C23.26 34.1397 23.2382 33.6394 23.218 33.1778H24.0574L24.0993 34.0087H24.1212C24.5039 33.4178 25.1099 33.0687 25.9493 33.0687C27.1932 33.0687 28.1265 34.0591 28.1265 35.5296C28.1265 37.2704 27.0001 38.1299 25.7898 38.1299C25.1099 38.1299 24.514 37.8496 24.2068 37.3695H24.1849V40H23.26V34.7591ZM24.1849 36.05C24.1849 36.1793 24.2068 36.3002 24.2269 36.4093C24.3965 37.0186 24.9605 37.44 25.6286 37.44C26.6174 37.44 27.1898 36.6795 27.1898 35.5699C27.1898 34.5996 26.6476 33.7687 25.6605 33.7687C25.0226 33.7687 24.4284 34.1984 24.2471 34.8598C24.2152 34.9706 24.1833 35.0999 24.1833 35.2208V36.0517L24.1849 36.05Z" fill="#2A2A2A"/>
<path d="M29.3067 34.6886C29.3067 34.1178 29.2967 33.6277 29.2648 33.1778H30.0823L30.1142 34.1279H30.1562C30.3895 33.4783 30.9535 33.067 31.5797 33.067C31.6855 33.067 31.761 33.0771 31.8449 33.0972V33.9282C31.7492 33.908 31.6536 33.8979 31.526 33.8979C30.8679 33.8979 30.3996 34.368 30.272 35.0277C30.2502 35.1486 30.23 35.2879 30.23 35.4373V38.0175H29.3051V34.6869L29.3067 34.6886Z" fill="#2A2A2A"/>
<path d="M33.1962 35.7579C33.218 36.9481 34.0255 37.4383 34.9605 37.4383C35.6303 37.4383 36.0332 37.3275 36.384 37.1882L36.5435 37.8177C36.2145 37.957 35.6505 38.1182 34.8329 38.1182C33.2499 38.1182 32.3048 37.1378 32.3048 35.6774C32.3048 34.2169 33.218 33.067 34.7171 33.067C36.3958 33.067 36.8423 34.4569 36.8423 35.3483C36.8423 35.528 36.8205 35.669 36.8104 35.7579H33.1979H33.1962ZM35.9375 35.1284C35.9476 34.5677 35.6924 33.6982 34.6416 33.6982C33.6964 33.6982 33.2818 34.5191 33.2079 35.1284H35.9392H35.9375Z" fill="#2A2A2A"/>
<path d="M37.999 34.4888C37.999 33.9886 37.9889 33.579 37.957 33.1778H38.7863L38.84 33.9785H38.8618C39.117 33.5186 39.7113 33.0687 40.5624 33.0687C41.2741 33.0687 42.3787 33.4682 42.3787 35.1284V38.0191H41.4437V35.2291C41.4437 34.4486 41.1348 33.7989 40.2535 33.7989C39.6374 33.7989 39.159 34.2085 38.9995 34.6987C38.9575 34.8095 38.9357 34.9589 38.9357 35.1083V38.0191H38.0007V34.4888H37.999Z" fill="#2A2A2A"/>
<path d="M44.4167 35.7579C44.4385 36.9481 45.2459 37.4383 46.181 37.4383C46.8508 37.4383 47.2537 37.3275 47.6045 37.1882L47.764 37.8177C47.435 37.957 46.8709 38.1182 46.0534 38.1182C44.4704 38.1182 43.5253 37.1378 43.5253 35.6774C43.5253 34.2169 44.4385 33.067 45.9376 33.067C47.6163 33.067 48.0628 34.4569 48.0628 35.3483C48.0628 35.528 48.041 35.669 48.0309 35.7579H44.4183H44.4167ZM47.158 35.1284C47.168 34.5677 46.9129 33.6982 45.862 33.6982C44.9169 33.6982 44.5023 34.5191 44.4284 35.1284H47.1596H47.158Z" fill="#2A2A2A"/>
<path d="M53.522 36.6997C53.522 37.1999 53.532 37.6398 53.5639 38.0208H52.7347L52.6809 37.2302H52.6591C52.414 37.6196 51.8735 38.1299 50.9586 38.1299C50.1511 38.1299 49.1842 37.7103 49.1842 36.0097V33.1795H50.1192V35.8603C50.1192 36.7803 50.4164 37.4014 51.2675 37.4014C51.8936 37.4014 52.3301 36.9918 52.4996 36.6006C52.5534 36.4714 52.5852 36.3102 52.5852 36.1507V33.1795H53.5203V36.6997H53.522Z" fill="#2A2A2A"/>
<path d="M55.0747 34.6886C55.0747 34.1178 55.0646 33.6277 55.0327 33.1778H55.8502L55.8821 34.1279H55.9241C56.1574 33.4783 56.7215 33.067 57.3476 33.067C57.4534 33.067 57.5289 33.0771 57.6129 33.0972V33.9282C57.5172 33.908 57.4215 33.8979 57.2939 33.8979C56.6359 33.8979 56.1675 34.368 56.0399 35.0277C56.0181 35.1486 55.998 35.2879 55.998 35.4373V38.0175H55.073V34.6869L55.0747 34.6886Z" fill="#2A2A2A"/>
<path d="M58.422 37.1194C58.699 37.2889 59.1875 37.4685 59.6542 37.4685C60.334 37.4685 60.653 37.1479 60.653 36.7484C60.653 36.3287 60.3878 36.0987 59.6961 35.8587C58.7712 35.5481 58.3364 35.068 58.3364 34.4888C58.3364 33.7082 59.0062 33.0687 60.1108 33.0687C60.6312 33.0687 61.0878 33.208 61.3748 33.3692L61.1415 34.0087C60.94 33.8895 60.5674 33.7284 60.089 33.7284C59.5367 33.7284 59.2278 34.0289 59.2278 34.3881C59.2278 34.7876 59.5367 34.9689 60.2048 35.209C61.0978 35.5296 61.5545 35.9493 61.5545 36.6695C61.5545 37.5189 60.8528 38.1199 59.6307 38.1199C59.0683 38.1199 58.5462 37.9906 58.1853 37.7892L58.4186 37.1194H58.422Z" fill="#2A2A2A"/>
<path d="M70.0453 37.7992C69.7046 37.9587 69.0247 38.1199 68.1534 38.1199C66.134 38.1199 64.6147 36.9196 64.6147 34.7087C64.6147 32.4979 66.134 31.1684 68.3549 31.1684C69.248 31.1684 69.8103 31.348 70.0554 31.4689L69.8321 32.1789C69.4813 32.0195 68.9827 31.8986 68.3868 31.8986C66.7081 31.8986 65.5917 32.9092 65.5917 34.6802C65.5917 36.3304 66.6006 37.3913 68.3431 37.3913C68.9055 37.3913 69.4796 37.2805 69.8523 37.111L70.0437 37.8009L70.0453 37.7992Z" fill="#2A2A2A"/>
<path d="M71.1735 30.9183H72.1085V38.0208H71.1735V30.9183Z" fill="#2A2A2A"/>
<path d="M77.9839 36.6997C77.9839 37.1999 77.9939 37.6398 78.0258 38.0208H77.1966L77.1428 37.2302H77.121C76.8759 37.6196 76.3354 38.1299 75.4205 38.1299C74.613 38.1299 73.6461 37.7103 73.6461 36.0097V33.1795H74.5812V35.8603C74.5812 36.7803 74.8783 37.4014 75.7294 37.4014C76.3555 37.4014 76.792 36.9918 76.9615 36.6006C77.0153 36.4714 77.0472 36.3102 77.0472 36.1507V33.1795H77.9822V36.6997H77.9839Z" fill="#2A2A2A"/>
<path d="M79.493 38.0191C79.5149 37.6884 79.535 37.1983 79.535 36.7685V30.9166H80.46V33.9567H80.4818C80.8108 33.4162 81.4068 33.067 82.2344 33.067C83.5085 33.067 84.4116 34.0675 84.4016 35.538C84.4016 37.2688 83.2432 38.1283 82.0967 38.1283C81.353 38.1283 80.7588 37.858 80.376 37.2184H80.3441L80.3022 38.0191H79.4947H79.493ZM80.46 36.0786C80.46 36.1894 80.4818 36.2985 80.5019 36.3992C80.6832 37.0086 81.2238 37.4299 81.9053 37.4299C82.8823 37.4299 83.4665 36.6795 83.4665 35.5699C83.4665 34.5996 82.9344 33.7687 81.9372 33.7687C81.2993 33.7687 80.7051 34.1783 80.5137 34.8498C80.4919 34.9505 80.46 35.0697 80.46 35.2107V36.0802V36.0786Z" fill="#2A2A2A"/>
</g>
<defs>
<linearGradient id="paint0_linear_4463_2690" x1="20.6378" y1="15.4863" x2="15.5466" y2="13.8369" gradientUnits="userSpaceOnUse">
<stop stop-color="#E32729"/>
<stop offset="0.19" stop-color="#DE2628"/>
<stop offset="0.4" stop-color="#D12426"/>
<stop offset="0.62" stop-color="#BA2022"/>
<stop offset="0.84" stop-color="#9B1B1D"/>
<stop offset="1" stop-color="#82171A"/>
</linearGradient>
<linearGradient id="paint1_linear_4463_2690" x1="24.0709" y1="10.4612" x2="16.8669" y2="8.12742" gradientUnits="userSpaceOnUse">
<stop stop-color="#E32729"/>
<stop offset="0.19" stop-color="#DE2628"/>
<stop offset="0.4" stop-color="#D12426"/>
<stop offset="0.62" stop-color="#BA2022"/>
<stop offset="0.84" stop-color="#9B1B1D"/>
<stop offset="1" stop-color="#82171A"/>
</linearGradient>
<linearGradient id="paint2_linear_4463_2690" x1="16.9219" y1="-0.175509" x2="20.3439" y2="8.4842" gradientUnits="userSpaceOnUse">
<stop stop-color="#E32729"/>
<stop offset="0.19" stop-color="#DE2628"/>
<stop offset="0.4" stop-color="#D12426"/>
<stop offset="0.62" stop-color="#BA2022"/>
<stop offset="0.84" stop-color="#9B1B1D"/>
<stop offset="1" stop-color="#82171A"/>
</linearGradient>
<linearGradient id="paint3_linear_4463_2690" x1="27.6042" y1="10.3334" x2="23.7968" y2="6.44685" gradientUnits="userSpaceOnUse">
<stop stop-color="#E32729"/>
<stop offset="0.19" stop-color="#DE2628"/>
<stop offset="0.4" stop-color="#D12426"/>
<stop offset="0.62" stop-color="#BA2022"/>
<stop offset="0.84" stop-color="#9B1B1D"/>
<stop offset="1" stop-color="#82171A"/>
</linearGradient>
<linearGradient id="paint4_linear_4463_2690" x1="22.8742" y1="12.3851" x2="20.5585" y2="11.6349" gradientUnits="userSpaceOnUse">
<stop stop-color="#E32729"/>
<stop offset="0.19" stop-color="#DE2628"/>
<stop offset="0.4" stop-color="#D12426"/>
<stop offset="0.62" stop-color="#BA2022"/>
<stop offset="0.84" stop-color="#9B1B1D"/>
<stop offset="1" stop-color="#82171A"/>
</linearGradient>
<linearGradient id="paint5_linear_4463_2690" x1="25.2757" y1="0.152159" x2="23.4613" y2="4.2102" gradientUnits="userSpaceOnUse">
<stop stop-color="#E32729"/>
<stop offset="0.19" stop-color="#DE2628"/>
<stop offset="0.4" stop-color="#D12426"/>
<stop offset="0.62" stop-color="#BA2022"/>
<stop offset="0.84" stop-color="#9B1B1D"/>
<stop offset="1" stop-color="#82171A"/>
</linearGradient>
<clipPath id="clip0_4463_2690">
<rect width="84.885" height="40" fill="white"/>
</clipPath>
</defs>
</svg>
