<svg width="136" height="65" viewBox="0 0 136 65" fill="none" xmlns="http://www.w3.org/2000/svg">
<g clip-path="url(#clip0_4463_19555)">
<path d="M30.4364 33.0052C30.4364 33.0052 25.6366 28.8125 25.3761 20.846C25.3761 20.846 29.174 18.093 33.9173 16.707C33.9173 16.707 28.7147 28.3317 30.4337 33.0052H30.4364Z" fill="url(#paint0_linear_4463_19555)"/>
<path d="M25.3761 20.8488C25.3761 20.8488 25.3546 15.528 28.3333 11.0344C28.3333 11.0344 32.5824 8.00472 40.8309 9.83652C40.8309 9.83652 37.076 11.44 33.9173 16.7098C33.9173 16.7098 29.9099 17.7492 25.3761 20.8488Z" fill="url(#paint1_linear_4463_19555)"/>
<path d="M33.3452 9.39638C33.3452 9.39638 33.0309 4.35761 29.2814 1.23926C29.2814 1.23926 30.1113 5.9235 28.3333 11.0348C28.3333 11.0348 29.8803 9.86911 33.3452 9.39907V9.39638Z" fill="url(#paint2_linear_4463_19555)"/>
<path d="M40.8308 9.83398C40.8308 9.83398 47.8545 10.8627 52.4071 14.8862C52.4071 14.8862 44.027 12.3077 37.6802 16.726C37.6802 16.726 35.8001 16.0734 33.9172 16.7072C33.9172 16.7072 36.4984 12.066 40.8308 9.83398Z" fill="url(#paint3_linear_4463_19555)"/>
<path d="M37.6803 16.7267C37.6803 16.7267 34.2691 18.6471 31.7551 22.3966C31.7551 22.3966 32.3192 20.401 33.9173 16.7079C33.9173 16.7079 35.5852 16.074 37.6803 16.7267Z" fill="url(#paint4_linear_4463_19555)"/>
<path d="M37.4763 7.05137C39.3726 7.84371 41.5965 7.05136 42.4426 5.27866C43.2913 3.50596 42.4426 1.42974 40.5436 0.637398C38.6474 -0.154947 36.4234 0.637398 35.5774 2.4101C34.7286 4.18281 35.5774 6.25902 37.4763 7.05137Z" fill="url(#paint5_linear_4463_19555)"/>
<path d="M7.16596 39.8514L1.42347 44.6592L6.85977 35.6882H18.0735V29.9323H6.56163V12.9117H23.6736L27.4822 7.2041H0.451172V45.5617H32.1369V39.8514H7.16596Z" fill="white"/>
<path d="M135.373 32.2672L135.36 32.2189C135.04 31.2412 134.597 30.3307 134.046 29.5168C132.999 27.9375 131.58 26.6536 129.835 25.7028C128.564 25.0099 127.184 24.5613 125.714 24.3652C125.739 24.1423 125.752 23.9194 125.752 23.6938C125.752 21.9211 125.062 20.3767 123.7 19.1035C122.362 17.8546 120.721 17.2207 118.825 17.2207H111.216V46.4676H123.944C126.08 46.4676 128.059 45.9788 129.824 45.0172C131.605 44.0611 133.031 42.7691 134.057 41.1818C134.605 40.3464 135.043 39.4305 135.368 38.4448L135.378 38.4099C135.671 37.4268 135.819 36.3928 135.819 35.3399C135.819 34.287 135.671 33.2529 135.378 32.2645L135.373 32.2672ZM123.944 41.1925H116.174V29.5598H123.944C125.722 29.5598 127.13 30.1024 128.376 31.268C129.598 32.4122 130.168 33.7176 130.168 35.3748C130.168 37.032 129.596 38.3239 128.373 39.4843C127.127 40.6473 125.72 41.1898 123.944 41.1898V41.1925ZM116.174 21.5987H119.067C119.695 21.5987 120.222 21.7975 120.681 22.2058C121.132 22.6086 121.35 23.0867 121.35 23.6642C121.35 24.2417 121.127 24.7359 120.67 25.163C120.345 25.4665 119.985 25.6572 119.574 25.7431C119.408 25.778 119.236 25.7968 119.067 25.7968H116.174V21.5987Z" fill="white"/>
<path d="M69.678 40.5772V17.2178H63.3768V46.4647H81.2811V40.5772H69.678Z" fill="white"/>
<path d="M102.218 17.2178L102.226 19.3155C102.25 26.2559 102.261 31.523 102.261 34.9717C102.261 35.9708 102.003 36.8894 101.487 37.7059C100.961 38.5574 100.268 39.2315 99.4245 39.715L99.3735 39.7445C98.941 40.0078 98.4549 40.2146 97.9311 40.3569C97.3993 40.502 96.8379 40.5745 96.2632 40.5745C95.1942 40.5745 94.2138 40.3328 93.3409 39.852L93.3194 39.8412C92.4169 39.3524 91.6998 38.7078 91.176 37.9074L91.1519 37.8725C90.8672 37.4669 90.6469 37.013 90.4965 36.5241C90.3407 36.0272 90.2628 35.5035 90.2628 34.9663V17.2178H83.9617V34.969C83.9617 36.081 84.1255 37.1553 84.4451 38.1625C84.7648 39.1912 85.2214 40.1528 85.8015 41.0177C86.8786 42.648 88.3451 43.9695 90.1554 44.9364C92.0006 45.949 94.0553 46.462 96.2632 46.462C98.471 46.462 100.523 45.9517 102.355 44.9472C104.179 43.9722 105.648 42.6534 106.722 41.0284C107.305 40.1555 107.762 39.1939 108.079 38.1733C108.401 37.1607 108.565 36.081 108.565 34.969V17.2178H102.221H102.218Z" fill="white"/>
<path d="M57.1723 36.5319L55.5903 38.0092C54.7496 38.7962 53.7505 39.4193 52.6305 39.8652L52.5821 39.884C51.4648 40.3433 50.2481 40.5769 48.9722 40.5769C47.3204 40.5769 45.7975 40.2063 44.4492 39.4784L44.3928 39.4462C42.9826 38.6887 41.8492 37.6762 41.0246 36.4406C40.5949 35.7933 40.2591 35.0681 40.0255 34.2731L40.012 34.2301C39.7676 33.4727 39.6414 32.6642 39.6414 31.8235C39.6414 31.1655 39.7219 30.5074 39.8831 29.8709C39.9261 29.7044 39.9691 29.5513 40.0255 29.374C40.2538 28.6112 40.5895 27.8914 41.0219 27.2414C41.2986 26.8277 41.6155 26.4302 41.9593 26.0676C42.6415 25.3505 43.4634 24.7327 44.4035 24.2251C44.7903 24.0156 45.1905 23.8329 45.5934 23.6852C46.6382 23.2984 47.7743 23.1051 48.9696 23.1051C49.351 23.1051 49.7377 23.1265 50.1164 23.1668C50.984 23.2608 51.8193 23.465 52.5848 23.7658C53.7317 24.2385 54.7416 24.8804 55.5903 25.6728L57.1723 27.15L61.6256 22.9896L60.0436 21.5096C58.6335 20.1935 56.9682 19.1326 55.0773 18.3537C54.7926 18.2409 54.4972 18.1334 54.2017 18.034C53.0172 17.6419 51.7629 17.3894 50.4737 17.2793C49.9714 17.2363 49.4664 17.2148 48.9722 17.2148C47.4735 17.2148 46.0097 17.4109 44.6372 17.795C43.2432 18.1603 41.9298 18.7028 40.7318 19.4066C38.516 20.7012 36.7191 22.4551 35.4003 24.6119C34.6966 25.7373 34.1675 26.9432 33.8237 28.1949C33.5148 29.3203 33.3536 30.5021 33.3429 31.7027V31.8209C33.3429 34.4369 34.0332 36.8731 35.3949 39.0513C36.7191 41.2189 38.516 42.9728 40.7292 44.2674C41.9298 44.9711 43.2405 45.5137 44.613 45.8736C46.0097 46.263 47.4762 46.4618 48.9749 46.4618C51.1317 46.4618 53.1811 46.0804 55.0585 45.331L55.1069 45.3122C56.9763 44.5414 58.6389 43.4831 60.0463 42.167L61.631 40.6898L57.1777 36.5293L57.1723 36.5319Z" fill="white"/>
<path d="M128.542 21.295H127.906V23.39C127.906 23.5109 127.879 23.5995 127.825 23.6586C127.771 23.7177 127.702 23.7472 127.616 23.7472C127.53 23.7472 127.457 23.7177 127.403 23.6586C127.35 23.5995 127.323 23.5109 127.323 23.39V21.295H126.686C126.587 21.295 126.512 21.2735 126.463 21.2278C126.415 21.1849 126.391 21.1258 126.391 21.0533C126.391 20.9807 126.415 20.919 126.466 20.876C126.517 20.833 126.59 20.8115 126.686 20.8115H128.545C128.647 20.8115 128.722 20.833 128.771 20.8787C128.819 20.9243 128.843 20.9807 128.843 21.0533C128.843 21.1258 128.819 21.1822 128.768 21.2278C128.717 21.2708 128.644 21.295 128.545 21.295H128.542Z" fill="#D73826"/>
<path d="M130.162 23.2608L129.7 21.4237V23.4139C129.7 23.5241 129.676 23.6073 129.627 23.661C129.579 23.7174 129.512 23.7443 129.431 23.7443C129.351 23.7443 129.289 23.7174 129.238 23.6637C129.187 23.61 129.163 23.5267 129.163 23.4139V21.1309C129.163 21.0047 129.195 20.9187 129.262 20.8757C129.327 20.8328 129.415 20.8086 129.528 20.8086H129.708C129.816 20.8086 129.896 20.8193 129.944 20.8381C129.993 20.8569 130.03 20.8945 130.055 20.9456C130.079 20.9966 130.106 21.0799 130.135 21.1954L130.554 22.7747L130.973 21.1954C131.003 21.0799 131.03 20.9966 131.054 20.9456C131.078 20.8945 131.113 20.8596 131.164 20.8381C131.212 20.8193 131.293 20.8086 131.4 20.8086H131.58C131.69 20.8086 131.779 20.8301 131.846 20.8757C131.911 20.9187 131.945 21.0047 131.945 21.1309V23.4139C131.945 23.5241 131.921 23.6073 131.873 23.661C131.825 23.7174 131.757 23.7443 131.674 23.7443C131.596 23.7443 131.532 23.7174 131.483 23.661C131.432 23.6073 131.408 23.5241 131.408 23.4139V21.4237L130.946 23.2608C130.917 23.379 130.893 23.4677 130.874 23.5241C130.855 23.5805 130.82 23.6315 130.769 23.6772C130.718 23.7228 130.648 23.747 130.557 23.747C130.49 23.747 130.431 23.7309 130.385 23.704C130.337 23.6745 130.302 23.6369 130.275 23.5912C130.248 23.5455 130.229 23.4945 130.213 23.4381C130.197 23.3817 130.183 23.3253 130.167 23.2635L130.162 23.2608Z" fill="#D73826"/>
<path d="M5.93319 56.1011H1.47994V59.9903H6.44351V61.1587H0V50.3721H6.18835V51.5404H1.47994V54.9489H5.93319V56.1011Z" fill="white"/>
<path d="M8.313 55.5106C8.313 54.7102 8.29688 54.0548 8.24585 53.4129H9.57269L9.65864 54.694H9.69356C10.1018 53.9581 11.0526 53.2383 12.4144 53.2383C13.5532 53.2383 15.3206 53.8775 15.3206 56.5339V61.159H13.8245V56.6951C13.8245 55.4461 13.3303 54.4067 11.9202 54.4067C10.9345 54.4067 10.169 55.062 9.9138 55.8463C9.84666 56.0236 9.81174 56.2626 9.81174 56.5017V61.159H8.31568V55.5106H8.313Z" fill="white"/>
<path d="M19.4835 51.1892V53.4131H21.6269V54.4848H19.4835V58.6614C19.4835 59.623 19.7736 60.1655 20.6062 60.1655C20.9984 60.1655 21.2858 60.1172 21.4738 60.0688L21.5409 61.1244C21.2509 61.2372 20.7916 61.3151 20.2141 61.3151C19.5184 61.3151 18.9571 61.1083 18.5999 60.7242C18.1755 60.3079 18.0224 59.6203 18.0224 58.7071V54.4821H16.7466V53.4105H18.0224V51.5545L19.4835 51.1865V51.1892Z" fill="white"/>
<path d="M23.3085 55.8299C23.3085 54.9167 23.2924 54.1324 23.2413 53.4126H24.5494L24.6004 54.9329H24.6676C25.0409 53.8934 25.9434 53.2354 26.9452 53.2354C27.1144 53.2354 27.2353 53.2515 27.3696 53.2837V54.6132C27.2165 54.581 27.0634 54.5649 26.8593 54.5649C25.8064 54.5649 25.057 55.3169 24.8529 56.3725C24.818 56.5659 24.7857 56.7888 24.7857 57.0279V61.1561H23.3058V55.8273L23.3085 55.8299Z" fill="white"/>
<path d="M29.5316 57.5409C29.5665 59.4452 30.8584 60.2295 32.3545 60.2295C33.4261 60.2295 34.0708 60.0522 34.6321 59.8293L34.8873 60.8365C34.3608 61.0594 33.4584 61.3173 32.1503 61.3173C29.6175 61.3173 28.1053 59.7487 28.1053 57.412C28.1053 55.0752 29.5665 53.2354 31.965 53.2354C34.6509 53.2354 35.3654 55.4593 35.3654 56.8855C35.3654 57.1729 35.3305 57.3985 35.3143 57.5409H29.5343H29.5316ZM33.9177 56.5337C33.9338 55.6366 33.5255 54.2453 31.8441 54.2453C30.332 54.2453 29.6685 55.5587 29.5504 56.5337H33.9204H33.9177Z" fill="white"/>
<path d="M37.216 55.943C37.216 54.9519 37.181 54.1515 37.1488 53.4129H38.4918L38.5589 54.7424H38.5938C39.2062 53.7969 40.1758 53.2383 41.5188 53.2383C43.5091 53.2383 45.0024 54.823 45.0024 57.1758C45.0024 59.9611 43.2002 61.3363 41.2636 61.3363C40.1758 61.3363 39.2223 60.8878 38.7308 60.1196H38.6959V64.3284H37.216V55.943ZM38.6959 58.0085C38.6959 58.2153 38.7308 58.4087 38.763 58.5833C39.0343 59.5582 39.9368 60.2324 41.0058 60.2324C42.5878 60.2324 43.5037 59.0157 43.5037 57.2403C43.5037 55.6878 42.6361 54.3583 41.0568 54.3583C40.0362 54.3583 39.0854 55.0459 38.7953 56.1042C38.7442 56.2814 38.6932 56.4882 38.6932 56.6816V58.0112L38.6959 58.0085Z" fill="white"/>
<path d="M46.8908 55.8299C46.8908 54.9167 46.8746 54.1324 46.8236 53.4126H48.1316L48.1827 54.9329H48.2498C48.6232 53.8934 49.5256 53.2354 50.5275 53.2354C50.6967 53.2354 50.8176 53.2515 50.9519 53.2837V54.6132C50.7988 54.581 50.6457 54.5649 50.4415 54.5649C49.3887 54.5649 48.6393 55.3169 48.4352 56.3725C48.4002 56.5659 48.368 56.7888 48.368 57.0279V61.1561H46.8881V55.8273L46.8908 55.8299Z" fill="white"/>
<path d="M53.1141 57.5409C53.149 59.4452 54.4409 60.2295 55.937 60.2295C57.0087 60.2295 57.6533 60.0522 58.2146 59.8293L58.4698 60.8365C57.9434 61.0594 57.0409 61.3173 55.7329 61.3173C53.2 61.3173 51.6879 59.7487 51.6879 57.412C51.6879 55.0752 53.149 53.2354 55.5475 53.2354C58.2334 53.2354 58.9479 55.4593 58.9479 56.8855C58.9479 57.1729 58.913 57.3985 58.8969 57.5409H53.1168H53.1141ZM57.5002 56.5337C57.5163 55.6366 57.108 54.2453 55.4267 54.2453C53.9145 54.2453 53.2511 55.5587 53.1329 56.5337H57.5029H57.5002Z" fill="white"/>
<path d="M60.7985 55.5106C60.7985 54.7102 60.7824 54.0548 60.7313 53.4129H62.0582L62.1441 54.694H62.179C62.5873 53.9581 63.5381 53.2383 64.8999 53.2383C66.0387 53.2383 67.806 53.8775 67.806 56.5339V61.159H66.31V56.6951C66.31 55.4461 65.8158 54.4067 64.4057 54.4067C63.4199 54.4067 62.6544 55.062 62.3993 55.8463C62.3321 56.0236 62.2972 56.2626 62.2972 56.5017V61.159H60.8012V55.5106H60.7985Z" fill="white"/>
<path d="M71.0667 57.5409C71.1016 59.4452 72.3936 60.2295 73.8896 60.2295C74.9613 60.2295 75.6059 60.0522 76.1673 59.8293L76.4224 60.8365C75.896 61.0594 74.9935 61.3173 73.6855 61.3173C71.1527 61.3173 69.6405 59.7487 69.6405 57.412C69.6405 55.0752 71.1016 53.2354 73.5002 53.2354C76.1861 53.2354 76.9005 55.4593 76.9005 56.8855C76.9005 57.1729 76.8656 57.3985 76.8495 57.5409H71.0694H71.0667ZM75.4528 56.5337C75.4689 55.6366 75.0607 54.2453 73.3793 54.2453C71.8671 54.2453 71.2037 55.5587 71.0855 56.5337H75.4555H75.4528Z" fill="white"/>
<path d="M85.6351 59.0484C85.6351 59.8488 85.6512 60.5525 85.7023 61.1622H84.3754L84.2895 59.8971H84.2546C83.8624 60.5203 82.9975 61.3368 81.5337 61.3368C80.2418 61.3368 78.6947 60.6653 78.6947 57.9445V53.416H80.1908V57.7054C80.1908 59.1773 80.6662 60.1711 82.0279 60.1711C83.0298 60.1711 83.7281 59.5157 83.9994 58.8899C84.0853 58.6831 84.1364 58.4253 84.1364 58.1701V53.416H85.6324V59.0484H85.6351Z" fill="white"/>
<path d="M88.1195 55.8299C88.1195 54.9167 88.1034 54.1324 88.0524 53.4126H89.3604L89.4114 54.9329H89.4786C89.8519 53.8934 90.7544 53.2354 91.7562 53.2354C91.9255 53.2354 92.0463 53.2515 92.1806 53.2837V54.6132C92.0275 54.581 91.8744 54.5649 91.6703 54.5649C90.6174 54.5649 89.868 55.3169 89.6639 56.3725C89.629 56.5659 89.5968 56.7888 89.5968 57.0279V61.1561H88.1168V55.8273L88.1195 55.8299Z" fill="white"/>
<path d="M93.4754 59.7194C93.9186 59.9907 94.7002 60.2781 95.4469 60.2781C96.5347 60.2781 97.045 59.7651 97.045 59.1258C97.045 58.4543 96.6206 58.0864 95.514 57.7023C94.0341 57.2054 93.3384 56.4372 93.3384 55.5106C93.3384 54.2616 94.4101 53.2383 96.1774 53.2383C97.0101 53.2383 97.7406 53.4612 98.1999 53.7191L97.8266 54.7424C97.5043 54.5517 96.908 54.2938 96.1425 54.2938C95.2588 54.2938 94.7646 54.7746 94.7646 55.3494C94.7646 55.9887 95.2588 56.2787 96.3278 56.6628C97.7568 57.1758 98.4873 57.8473 98.4873 58.9996C98.4873 60.3586 97.3646 61.3202 95.4093 61.3202C94.5095 61.3202 93.6742 61.1134 93.0967 60.7911L93.47 59.7194H93.4754Z" fill="white"/>
<path d="M112.073 60.8076C111.527 61.0628 110.44 61.3206 109.046 61.3206C105.814 61.3206 103.384 59.4002 103.384 55.8628C103.384 52.3255 105.814 50.1982 109.368 50.1982C110.797 50.1982 111.697 50.4856 112.089 50.679L111.731 51.8152C111.17 51.56 110.372 51.3666 109.419 51.3666C106.733 51.3666 104.947 52.9835 104.947 55.8172C104.947 58.4574 106.561 60.1549 109.349 60.1549C110.249 60.1549 111.167 59.9777 111.764 59.7064L112.07 60.8103L112.073 60.8076Z" fill="white"/>
<path d="M113.878 49.7979H115.374V61.162H113.878V49.7979Z" fill="white"/>
<path d="M124.774 59.0484C124.774 59.8488 124.79 60.5525 124.841 61.1622H123.514L123.429 59.8971H123.394C123.001 60.5203 122.137 61.3368 120.673 61.3368C119.381 61.3368 117.834 60.6653 117.834 57.9445V53.416H119.33V57.7054C119.33 59.1773 119.805 60.1711 121.167 60.1711C122.169 60.1711 122.867 59.5157 123.138 58.8899C123.224 58.6831 123.275 58.4253 123.275 58.1701V53.416H124.771V59.0484H124.774Z" fill="white"/>
<path d="M127.189 61.159C127.224 60.6299 127.256 59.8456 127.256 59.158V49.7949H128.736V54.6591H128.771C129.297 53.7943 130.251 53.2356 131.575 53.2356C133.614 53.2356 135.059 54.8364 135.042 57.1892C135.042 59.9584 133.189 61.3336 131.355 61.3336C130.165 61.3336 129.214 60.9012 128.602 59.8779H128.551L128.483 61.159H127.192H127.189ZM128.736 58.0541C128.736 58.2314 128.771 58.406 128.803 58.5671C129.093 59.5421 129.958 60.2163 131.049 60.2163C132.612 60.2163 133.546 59.0157 133.546 57.2403C133.546 55.6878 132.695 54.3583 131.1 54.3583C130.079 54.3583 129.128 55.0137 128.822 56.088C128.787 56.2492 128.736 56.4399 128.736 56.6655V58.0568V58.0541Z" fill="white"/>
</g>
<defs>
<linearGradient id="paint0_linear_4463_19555" x1="33.0201" y1="25.1063" x2="24.8741" y2="22.4674" gradientUnits="userSpaceOnUse">
<stop stop-color="#E32729"/>
<stop offset="0.19" stop-color="#DE2628"/>
<stop offset="0.4" stop-color="#D12426"/>
<stop offset="0.62" stop-color="#BA2022"/>
<stop offset="0.84" stop-color="#9B1B1D"/>
<stop offset="1" stop-color="#82171A"/>
</linearGradient>
<linearGradient id="paint1_linear_4463_19555" x1="38.513" y1="17.0663" x2="26.9866" y2="13.3322" gradientUnits="userSpaceOnUse">
<stop stop-color="#E32729"/>
<stop offset="0.19" stop-color="#DE2628"/>
<stop offset="0.4" stop-color="#D12426"/>
<stop offset="0.62" stop-color="#BA2022"/>
<stop offset="0.84" stop-color="#9B1B1D"/>
<stop offset="1" stop-color="#82171A"/>
</linearGradient>
<linearGradient id="paint2_linear_4463_19555" x1="27.0745" y1="0.0479152" x2="32.5497" y2="13.9034" gradientUnits="userSpaceOnUse">
<stop stop-color="#E32729"/>
<stop offset="0.19" stop-color="#DE2628"/>
<stop offset="0.4" stop-color="#D12426"/>
<stop offset="0.62" stop-color="#BA2022"/>
<stop offset="0.84" stop-color="#9B1B1D"/>
<stop offset="1" stop-color="#82171A"/>
</linearGradient>
<linearGradient id="paint3_linear_4463_19555" x1="44.1662" y1="16.862" x2="38.0743" y2="10.6435" gradientUnits="userSpaceOnUse">
<stop stop-color="#E32729"/>
<stop offset="0.19" stop-color="#DE2628"/>
<stop offset="0.4" stop-color="#D12426"/>
<stop offset="0.62" stop-color="#BA2022"/>
<stop offset="0.84" stop-color="#9B1B1D"/>
<stop offset="1" stop-color="#82171A"/>
</linearGradient>
<linearGradient id="paint4_linear_4463_19555" x1="36.5981" y1="20.1453" x2="32.8931" y2="18.9451" gradientUnits="userSpaceOnUse">
<stop stop-color="#E32729"/>
<stop offset="0.19" stop-color="#DE2628"/>
<stop offset="0.4" stop-color="#D12426"/>
<stop offset="0.62" stop-color="#BA2022"/>
<stop offset="0.84" stop-color="#9B1B1D"/>
<stop offset="1" stop-color="#82171A"/>
</linearGradient>
<linearGradient id="paint5_linear_4463_19555" x1="40.4408" y1="0.571969" x2="37.5377" y2="7.06483" gradientUnits="userSpaceOnUse">
<stop stop-color="#E32729"/>
<stop offset="0.19" stop-color="#DE2628"/>
<stop offset="0.4" stop-color="#D12426"/>
<stop offset="0.62" stop-color="#BA2022"/>
<stop offset="0.84" stop-color="#9B1B1D"/>
<stop offset="1" stop-color="#82171A"/>
</linearGradient>
<clipPath id="clip0_4463_19555">
<rect width="135.816" height="64" fill="white" transform="translate(0 0.328125)"/>
</clipPath>
</defs>
</svg>
