<svg width="184" height="92" viewBox="0 0 184 92" fill="none" xmlns="http://www.w3.org/2000/svg">
<g clip-path="url(#clip0_2516_72732)">
<path d="M58.5464 89.3582C58.1487 88.5672 57.5389 87.8823 56.7214 87.3122C56.4872 87.6304 56.1735 87.869 55.7846 88.0325C55.3957 88.196 54.9538 88.28 54.4545 88.28C53.5089 88.28 52.7002 87.9309 52.0373 87.2371C51.3745 86.5433 50.8045 85.5005 50.3272 84.1085L51.1978 83.8169C51.6175 85.0497 52.0815 85.9512 52.5897 86.5213C53.0979 87.0913 53.7298 87.3785 54.481 87.3785C55.0555 87.3785 55.5018 87.2371 55.8155 86.9543C56.1293 86.6715 56.2839 86.3047 56.2839 85.854C56.2839 85.3767 56.1558 84.9879 55.8995 84.6962C55.6432 84.4002 55.3029 84.2543 54.8876 84.2543C54.6489 84.2543 54.4678 84.3074 54.3529 84.4134C54.2336 84.5195 54.1761 84.6609 54.1761 84.8332C54.1761 85.0056 54.2247 85.1867 54.3175 85.3502L53.4205 85.5579C53.2835 85.2707 53.2172 84.9879 53.2172 84.7007C53.2172 84.4399 53.2835 84.2146 53.4161 84.0246C53.5486 83.8345 53.7475 83.6843 54.0038 83.5738C53.8624 83.2159 53.5619 82.9596 53.1067 82.8138H49.8721V81.9653H60.7161V82.8138H59.47V89.3538H58.5597L58.5464 89.3582ZM57.0926 86.5566C57.3975 86.7555 57.6847 86.9897 57.9499 87.2592C58.215 87.5288 58.4271 87.7983 58.5818 88.059C58.5597 87.7453 58.5464 87.4095 58.5464 87.0515V82.8182H54.5031C54.7064 82.9861 54.8434 83.1894 54.9273 83.428C55.6167 83.4589 56.1646 83.702 56.5712 84.1571C56.9777 84.6123 57.181 85.1823 57.181 85.8628C57.181 86.0926 57.1501 86.3224 57.0882 86.561L57.0926 86.5566Z" fill="black"/>
<path d="M67.6848 84.922L67.5523 84.0736C67.8572 83.994 68.1842 83.9498 68.5333 83.9498C69.0149 83.9498 69.3905 84.0957 69.6557 84.3829C69.9208 84.6701 70.0534 85.0855 70.0534 85.6202C70.0534 85.9118 70.0048 86.1991 69.9075 86.4863C69.8103 86.7735 69.6689 87.0563 69.4789 87.3347V91.6211H68.5907C68.4891 91.2632 68.33 90.998 68.1135 90.8345C67.8969 90.671 67.6097 90.5871 67.2518 90.5871C67.0441 90.5871 66.7215 90.618 66.284 90.6843C65.8421 90.755 65.4975 90.7904 65.25 90.7904C64.6048 90.7904 64.0878 90.6003 63.7034 90.2247C63.3189 89.8491 63.1245 89.2967 63.1245 88.5765C63.1245 88.2229 63.1731 87.8606 63.2659 87.485L64.1762 87.5955C64.0966 87.9357 64.0525 88.2671 64.0525 88.5941C64.0525 89.0405 64.1497 89.3763 64.3441 89.6017C64.5385 89.827 64.8523 89.9419 65.2809 89.9419C65.4886 89.9419 65.7758 89.9066 66.1338 89.8359C66.4917 89.7696 66.7745 89.7386 66.9866 89.7386C67.7202 89.7386 68.246 89.9552 68.5642 90.3838V88.9477C68.5642 88.7753 68.5686 88.5455 68.5819 88.2583C68.2991 88.4748 68.003 88.6383 67.6981 88.7444C67.3888 88.8504 67.0706 88.9035 66.7436 88.9035C66.3857 88.9035 66.0808 88.8416 65.8377 88.7134C65.5947 88.5853 65.4002 88.3997 65.2544 88.1522C65.1086 87.9048 65.0379 87.5159 65.0379 86.9945V85.8279C64.6932 85.4434 64.3485 85.1474 64.0083 84.9397C63.668 84.7276 63.3454 84.6259 63.0449 84.6259C62.7577 84.6259 62.5323 84.6966 62.36 84.8425C62.1921 84.9883 62.1037 85.1871 62.1037 85.4346C62.1037 85.6467 62.1744 85.8279 62.3114 85.9781C62.4484 86.1284 62.6693 86.2654 62.9654 86.3891L62.5412 87.2375C62.086 87.0387 61.7369 86.7824 61.4895 86.4642C61.2464 86.146 61.1227 85.7881 61.1227 85.3948C61.1227 84.8999 61.2906 84.5066 61.6309 84.2106C61.9711 83.9145 62.3733 83.7687 62.8461 83.7687C63.235 83.7687 63.6106 83.8526 63.9685 84.0205C64.3264 84.1885 64.6888 84.458 65.06 84.8292C65.0423 84.6259 65.029 84.3652 65.029 84.0471V82.8274H60.4554V81.979H68.5951C68.5774 81.6432 68.4979 81.4045 68.3565 81.2675C68.2151 81.1306 67.9765 81.0599 67.6539 81.0599H66.5359C65.7979 81.0599 65.2632 80.9759 64.9318 80.8124C64.6004 80.6489 64.3618 80.4279 64.2071 80.154C64.0525 79.88 63.9773 79.5486 63.9773 79.1641C63.9773 78.983 63.9994 78.7708 64.0392 78.5322L64.9141 78.5897C64.8788 78.7664 64.8611 78.9167 64.8611 79.0404C64.8611 79.3276 64.9141 79.5574 65.0202 79.7298C65.1263 79.9021 65.2898 80.0258 65.5063 80.0965C65.7228 80.1672 66.0454 80.2026 66.4696 80.2026H67.3976C67.8748 80.2026 68.2504 80.2468 68.5333 80.3396C68.8161 80.4324 69.0326 80.6003 69.1917 80.8566C69.3463 81.1085 69.4347 81.4841 69.4568 81.9746H70.7737V82.823H65.9438V86.8133C65.9438 87.105 65.9614 87.3347 65.9968 87.5071C66.0321 87.6794 66.1117 87.812 66.2354 87.9092C66.3591 88.0064 66.5447 88.055 66.7878 88.055C67.3578 88.055 67.8837 87.8032 68.3786 87.295C68.8691 86.7868 69.1166 86.2433 69.1166 85.6555C69.1166 85.3772 69.0503 85.1739 68.9133 85.0457C68.7763 84.9176 68.573 84.8513 68.2946 84.8513C68.1179 84.8513 67.9102 84.8778 67.6804 84.9308L67.6848 84.922Z" fill="black"/>
<path d="M72.6914 89.3576H71.7811V83.7898C71.6706 83.476 71.516 83.2374 71.3215 83.0695C71.1271 82.9016 70.8973 82.8176 70.641 82.8176H70.535V81.9692H70.725C70.9327 81.9692 71.1359 82.0355 71.3348 82.168C71.5337 82.3006 71.6972 82.4818 71.8209 82.716C71.7944 82.5304 71.7811 82.3139 71.7811 82.0708V81.1826H72.413L72.6782 81.9648H73.9376V82.8132H72.6914V89.3532V89.3576Z" fill="black"/>
<path d="M78.0427 81.9692V82.8177H77.7997C77.4197 82.9105 77.0308 83.1314 76.6287 83.4761C76.2266 83.8208 75.9128 84.2361 75.6786 84.7222C75.4488 85.2083 75.3339 85.7165 75.3339 86.2512C75.3339 86.9891 75.4886 87.5548 75.8023 87.9481C76.1161 88.3413 76.5094 88.5358 76.9866 88.5358C77.181 88.5358 77.349 88.5137 77.4904 88.4695C77.6318 88.4253 77.782 88.3546 77.9411 88.2618L78.3565 88.9909C77.9765 89.2737 77.508 89.4151 76.9424 89.4151C76.4475 89.4151 76.0056 89.287 75.6167 89.0219C75.2279 88.7611 74.9274 88.3899 74.7109 87.9127C74.4943 87.4355 74.3883 86.8831 74.3883 86.2644C74.3883 85.5397 74.5518 84.8681 74.8832 84.2627C75.2102 83.6529 75.6742 83.1579 76.2619 82.7823C76.0012 82.8044 75.6963 82.8177 75.356 82.8177H73.6857V81.9692H78.0339H78.0427Z" fill="black"/>
<path d="M85.767 89.8756H84.8788C84.6491 89.1862 84.2116 88.8416 83.5576 88.8416C83.2969 88.8416 82.9036 88.8725 82.3689 88.9388C81.8342 89.0095 81.4188 89.0448 81.1183 89.0448C80.2345 89.0448 79.5673 88.8592 79.1254 88.4836C78.6791 88.1124 78.4581 87.5601 78.4581 86.8354C78.4581 86.4686 78.4935 86.1725 78.5686 85.9516L79.4789 86.062C79.417 86.2742 79.3861 86.5349 79.3861 86.8442C79.3861 87.2949 79.5275 87.6352 79.8059 87.8561C80.0843 88.0771 80.5218 88.1876 81.1139 88.1876C81.3525 88.1876 81.7237 88.1522 82.2231 88.0815C82.7224 88.0152 83.1024 87.9843 83.3676 87.9843C84.0127 87.9843 84.5121 88.2008 84.8656 88.6295V85.059C84.5784 84.6568 84.3441 84.3475 84.1586 84.1266L81.0786 87.043L80.3715 86.3802L80.7383 86.04C80.9062 85.7969 80.9946 85.545 80.9946 85.2843C80.9946 85.0766 80.9327 84.9131 80.8134 84.7982C80.6941 84.6833 80.5174 84.6259 80.292 84.6259C80.0489 84.6259 79.8059 84.701 79.5629 84.8468L78.657 83.9896C79.2226 83.2516 79.7573 82.7169 80.2655 82.3855C80.7736 82.0541 81.2995 81.8906 81.8475 81.8906C82.3954 81.8906 82.9301 82.0364 83.3897 82.3236C83.8492 82.6109 84.3574 83.1146 84.9098 83.8305C84.8833 83.5521 84.87 83.1897 84.87 82.739V81.1924H85.5019L85.767 81.9745H87.0264V82.823H85.7803V89.88L85.767 89.8756ZM81.7767 85.2269C81.9623 85.028 82.1656 84.8247 82.391 84.6126L83.5753 83.4991C83.3057 83.2428 83.0406 83.0572 82.7798 82.9379C82.5191 82.8185 82.2363 82.7611 81.9314 82.7611C81.5425 82.7611 81.1758 82.8627 80.8311 83.0616C80.4864 83.2604 80.1417 83.5786 79.7926 84.0072C80.018 83.8968 80.239 83.8393 80.4599 83.8393C80.8797 83.8393 81.2023 83.9542 81.4365 84.1884C81.6707 84.4226 81.7856 84.7364 81.7856 85.1341V85.2269H81.7767Z" fill="black"/>
<path d="M87.8572 81.97C87.4948 81.5458 87.2518 81.2232 87.1281 81.0023C87.6362 80.0831 88.1665 79.4291 88.71 79.0447C89.2536 78.6603 89.8899 78.4658 90.6146 78.4658C91.3039 78.4658 91.9933 78.6249 92.6915 78.9386C93.3853 79.2524 94.247 79.8313 95.2677 80.6709L94.764 81.316C93.8448 80.5648 93.0936 80.0478 92.5192 79.765C91.9447 79.4822 91.3526 79.3408 90.7516 79.3408C90.1815 79.3408 89.691 79.4822 89.2801 79.7606C88.8647 80.039 88.4891 80.4941 88.1532 81.126C88.2681 81.3514 88.4802 81.6342 88.7896 81.9744H90.1771V82.8229H88.931V89.3629H88.0207V82.8229H86.7745V81.9744H87.866L87.8572 81.97Z" fill="black"/>
<path d="M95.2104 85.7612C95.1927 85.5491 95.1795 85.2795 95.1795 84.9481V82.8138H89.9254V81.9653H97.3359V82.8138H96.0898V89.3538H95.1795V86.8836C94.7376 86.3357 94.2957 85.9159 93.8538 85.6242C93.4119 85.3326 92.9965 85.1911 92.6165 85.1911C92.2983 85.1911 92.0464 85.2707 91.852 85.4298C91.662 85.5889 91.5648 85.8098 91.5648 86.0926C91.5648 86.3268 91.6487 86.5345 91.8122 86.7024C91.9802 86.8748 92.2365 87.0294 92.59 87.162L92.1304 88.0104C91.6266 87.8027 91.2466 87.5288 90.9815 87.1885C90.7208 86.8527 90.5882 86.4726 90.5882 86.0528C90.5882 85.7126 90.6722 85.4121 90.8357 85.147C90.9992 84.8818 91.2289 84.683 91.525 84.5371C91.8211 84.3957 92.1348 84.3206 92.4662 84.3206C92.9435 84.3206 93.4031 84.4311 93.8449 84.652C94.2824 84.873 94.7376 85.2398 95.206 85.7479L95.2104 85.7612Z" fill="black"/>
<path d="M104.503 85.1115C105.043 85.5092 105.308 86.0351 105.308 86.6891C105.308 87.3431 105.06 87.8734 104.57 88.2667C104.079 88.6599 103.421 88.8588 102.594 88.8588C101.37 88.8588 100.341 88.3992 99.5144 87.4801C98.6881 86.5609 98.0341 85.1778 97.5524 83.3351L98.4451 83.0744C98.9179 84.7757 99.4791 86.0174 100.129 86.7951C100.778 87.5729 101.609 87.9617 102.612 87.9617C103.16 87.9617 103.589 87.8469 103.889 87.6215C104.194 87.3917 104.344 87.0735 104.344 86.6582C104.344 86.2428 104.15 85.9114 103.757 85.6241C103.545 85.7479 103.262 85.876 102.908 86.0086L102.541 85.1601C103.134 84.9657 103.562 84.7492 103.827 84.5061C104.092 84.2631 104.225 83.9715 104.225 83.6356C104.225 83.3395 104.141 83.1186 103.978 82.9639C103.814 82.8093 103.571 82.7341 103.257 82.7341C102.908 82.7341 102.568 82.8093 102.241 82.9595C101.909 83.1098 101.644 83.2998 101.441 83.5296C101.238 83.7593 101.136 83.9626 101.136 84.1438C101.136 84.241 101.154 84.3206 101.189 84.3824C101.225 84.4443 101.295 84.5017 101.392 84.5548C101.49 84.6034 101.622 84.6431 101.79 84.6652L101.543 85.5402C100.637 85.3723 100.186 84.9348 100.186 84.2366C100.186 83.8787 100.336 83.5119 100.632 83.1363C100.928 82.7607 101.317 82.4602 101.79 82.2304C102.263 82.0006 102.754 81.8901 103.257 81.8901C103.858 81.8901 104.327 82.0448 104.667 82.3497C105.007 82.6546 105.18 83.0788 105.18 83.6179C105.18 84.188 104.95 84.6873 104.495 85.116L104.503 85.1115Z" fill="black"/>
<path d="M111.936 89.3577H111.026C110.637 88.6197 110.076 87.9922 109.342 87.4752C108.604 86.9582 107.787 86.6224 106.881 86.4721L106.417 85.332C107.217 84.8592 108.003 84.4483 108.772 84.0947C109.541 83.7412 110.292 83.4496 111.026 83.2198V82.8177H105.86V81.9692H113.182V82.8177H111.936V89.3577ZM108.198 89.4284C108.003 89.4284 107.835 89.3621 107.694 89.2296C107.552 89.097 107.477 88.9335 107.477 88.7302C107.477 88.5269 107.548 88.3679 107.685 88.2309C107.822 88.0939 107.994 88.0276 108.198 88.0276C108.392 88.0276 108.555 88.0939 108.692 88.2309C108.829 88.3679 108.896 88.5314 108.896 88.7302C108.896 88.9291 108.829 89.097 108.692 89.2296C108.555 89.3621 108.392 89.4284 108.198 89.4284ZM111.026 84.1434C110.376 84.3687 109.757 84.6118 109.174 84.8813C108.591 85.1509 108.038 85.4381 107.521 85.7474C108.277 85.9242 108.98 86.2203 109.616 86.6356C110.252 87.051 110.738 87.5283 111.061 88.0718C111.034 87.7492 111.021 87.431 111.021 87.1085V84.1434H111.026Z" fill="black"/>
<path d="M113.509 83.4849L113.637 82.8177H112.944V81.9692H121.286V82.8177H120.04V89.3577H119.13V85.5751C118.958 85.3586 118.799 85.1906 118.653 85.0713C118.511 84.952 118.37 84.8946 118.233 84.8946C118.105 84.8946 117.994 84.9299 117.906 85.0006C117.813 85.0713 117.716 85.1951 117.601 85.3674C117.491 85.5397 117.336 85.8093 117.137 86.1716C116.757 86.8654 116.443 87.3162 116.196 87.5238C115.948 87.736 115.648 87.842 115.294 87.842C114.941 87.842 114.614 87.7271 114.327 87.4929C114.044 87.2587 113.757 86.914 113.469 86.4589L114.199 86.0258C114.402 86.3838 114.579 86.6268 114.716 86.7461C114.857 86.8654 115.016 86.9273 115.188 86.9273C115.361 86.9273 115.537 86.8522 115.701 86.6975C115.864 86.5428 116.046 86.3042 116.244 85.9772C116.147 85.2481 116.024 84.7443 115.869 84.4659C115.714 84.1875 115.467 83.9799 115.122 83.8384C114.782 83.697 114.238 83.5777 113.5 83.4894L113.509 83.4849ZM114.34 82.8177C115.206 82.9458 115.816 83.1712 116.174 83.4982C116.527 83.8252 116.739 84.3466 116.806 85.0757C116.978 84.7267 117.159 84.4659 117.34 84.2892C117.522 84.1124 117.743 84.024 117.994 84.024C118.193 84.024 118.379 84.0682 118.556 84.161C118.732 84.2538 118.936 84.4173 119.165 84.6471C119.143 84.4748 119.13 84.2317 119.13 83.918V82.8221H114.34V82.8177Z" fill="black"/>
<path d="M129.369 88.6158C129.174 88.4346 128.984 88.3419 128.799 88.3419C128.64 88.3419 128.52 88.3993 128.432 88.5142C128.344 88.6291 128.304 88.7926 128.304 89.0091C128.304 89.1152 128.313 89.2168 128.335 89.3184L127.61 89.3538C127.561 88.9252 127.429 88.5893 127.217 88.3507C127.005 88.1121 126.739 87.9928 126.417 87.9928C126.205 87.9928 126.032 88.0502 125.904 88.1651C125.776 88.28 125.71 88.4258 125.71 88.5981C125.71 88.8058 125.794 88.9914 125.957 89.1461C126.125 89.3008 126.373 89.4377 126.704 89.5482L126.364 90.3525C125.838 90.158 125.445 89.915 125.18 89.6145C124.919 89.3184 124.786 88.9649 124.786 88.5584C124.786 88.1518 124.932 87.8425 125.228 87.5774C125.524 87.3122 125.895 87.1797 126.337 87.1797C126.664 87.1797 126.952 87.2548 127.208 87.4006C127.464 87.5464 127.685 87.7674 127.875 88.0546C127.959 87.8867 128.07 87.7541 128.207 87.6702C128.344 87.5818 128.507 87.542 128.697 87.542C128.834 87.542 128.953 87.573 129.064 87.6348C129.174 87.6967 129.285 87.7851 129.395 87.9V87.8779C128.984 87.3564 128.481 86.9366 127.875 86.6185C127.274 86.3003 126.572 86.0838 125.776 85.9645L125.33 84.8951C126.006 84.5504 126.682 84.2411 127.354 83.9715C128.025 83.702 128.697 83.4589 129.36 83.2557V82.8138H124.119V81.9653H133.721V82.8138H130.27V83.2159C131.145 83.3706 131.826 83.6445 132.316 84.0422C132.807 84.4399 133.054 84.9216 133.054 85.4961C133.054 85.907 132.926 86.234 132.665 86.4859C132.405 86.7334 132.047 86.8615 131.587 86.8615C131.344 86.8615 131.136 86.8438 130.968 86.8041L131.021 85.9733C131.141 85.991 131.251 85.9954 131.357 85.9954C131.618 85.9954 131.812 85.9512 131.945 85.8673C132.078 85.7789 132.144 85.6286 132.144 85.4121C132.144 85.0939 131.98 84.8155 131.658 84.5813C131.331 84.3427 130.871 84.1748 130.27 84.0732V89.8796H129.36V88.6202L129.369 88.6158ZM129.369 84.1394C128.825 84.3074 128.313 84.4885 127.84 84.6786C127.367 84.8686 126.921 85.0674 126.514 85.2707C127.084 85.39 127.597 85.5668 128.061 85.8054C128.52 86.0396 128.975 86.3754 129.413 86.8085C129.386 86.3047 129.373 85.9777 129.373 85.8186V84.1439L129.369 84.1394Z" fill="black"/>
<path d="M135.644 89.3576H134.733V83.7898C134.623 83.476 134.468 83.2374 134.274 83.0695C134.079 82.9016 133.849 82.8176 133.593 82.8176H133.487V81.9692H133.677C133.885 81.9692 134.088 82.0355 134.287 82.168C134.486 82.3006 134.649 82.4818 134.773 82.716C134.746 82.5304 134.733 82.3139 134.733 82.0708V81.1826H135.365L135.63 81.9648H136.89V82.8132H135.644V89.3532V89.3576Z" fill="black"/>
<path d="M142.723 89.3577H141.812C141.423 88.6197 140.862 87.9922 140.129 87.4752C139.391 86.9582 138.573 86.6224 137.667 86.4721L137.203 85.332C138.003 84.8592 138.79 84.4483 139.559 84.0947C140.328 83.7412 141.079 83.4496 141.812 83.2198V82.8177H136.647V81.9692H143.969V82.8177H142.723V89.3577ZM141.812 84.1434C141.163 84.3687 140.544 84.6118 139.961 84.8813C139.378 85.1509 138.825 85.4381 138.308 85.7474C139.064 85.9242 139.766 86.2203 140.403 86.6356C141.039 87.051 141.525 87.5283 141.848 88.0718C141.821 87.7492 141.808 87.431 141.808 87.1085V84.1434H141.812Z" fill="black"/>
<path d="M151.154 84.9397C151.154 85.1121 151.167 85.2402 151.189 85.3198C151.216 85.3993 151.26 85.4656 151.331 85.523C151.397 85.5805 151.485 85.607 151.596 85.607C151.83 85.607 152.078 85.4965 152.338 85.2756C152.599 85.0546 152.891 84.7011 153.222 84.2239L153.929 84.109C154.464 84.8955 154.729 85.6777 154.729 86.4598C154.729 87.242 154.473 87.8739 153.964 88.3511C153.452 88.8328 152.758 89.0714 151.883 89.0714C150.725 89.0714 149.784 88.6384 149.051 87.7678C148.317 86.9017 147.729 85.5893 147.279 83.8394L148.176 83.5964C148.565 85.1474 149.046 86.2963 149.612 87.0476C150.177 87.7988 150.92 88.1744 151.835 88.1744C152.449 88.1744 152.935 88.0197 153.293 87.7104C153.651 87.4011 153.827 86.9901 153.827 86.4775C153.827 85.9649 153.717 85.5628 153.5 85.2181C153.187 85.6512 152.869 85.9693 152.546 86.177C152.223 86.3847 151.91 86.4864 151.605 86.4864C151.3 86.4864 151.048 86.4201 150.831 86.2831C150.619 86.1461 150.465 85.9649 150.376 85.7307C150.283 85.4965 150.239 85.1828 150.239 84.7806V82.8186H146.806V81.9702H152.957C152.939 81.6344 152.86 81.3957 152.718 81.2588C152.577 81.1218 152.338 81.0511 152.016 81.0511H150.35C149.612 81.0511 149.077 80.9671 148.746 80.8036C148.414 80.6401 148.176 80.4192 148.021 80.1452C147.866 79.8712 147.791 79.5398 147.791 79.1553C147.791 78.9742 147.813 78.7621 147.853 78.5234L148.728 78.5809C148.693 78.7576 148.675 78.9079 148.675 79.0316C148.675 79.3188 148.728 79.5486 148.834 79.721C148.94 79.8933 149.104 80.017 149.32 80.0877C149.537 80.1584 149.859 80.1938 150.283 80.1938H151.755C152.232 80.1938 152.608 80.238 152.891 80.3308C153.173 80.4236 153.394 80.5915 153.549 80.8478C153.704 81.0997 153.792 81.4753 153.814 81.9658H155.507V82.8142H151.145V84.9353L151.154 84.9397Z" fill="black"/>
<path d="M159.621 81.9692V82.8177H159.378C158.998 82.9105 158.609 83.1314 158.207 83.4761C157.805 83.8208 157.491 84.2361 157.257 84.7222C157.027 85.2083 156.912 85.7165 156.912 86.2512C156.912 86.9891 157.067 87.5548 157.38 87.9481C157.694 88.3413 158.087 88.5358 158.565 88.5358C158.759 88.5358 158.927 88.5137 159.068 88.4695C159.21 88.4253 159.36 88.3546 159.519 88.2618L159.935 88.9909C159.555 89.2737 159.086 89.4151 158.52 89.4151C158.026 89.4151 157.584 89.287 157.195 89.0219C156.806 88.7611 156.505 88.3899 156.289 87.9127C156.072 87.4355 155.966 86.8831 155.966 86.2644C155.966 85.5397 156.13 84.8681 156.461 84.2627C156.788 83.6529 157.252 83.1579 157.84 82.7823C157.579 82.8044 157.274 82.8177 156.934 82.8177H155.264V81.9692H159.612H159.621Z" fill="black"/>
<path d="M159.378 82.8177V81.9692H166.784V82.8177H161.384V85.9374C161.861 85.4381 162.414 84.9918 163.041 84.5985C163.664 84.2052 164.362 83.865 165.136 83.5821L165.909 84.3466C165.688 84.7576 165.529 85.1597 165.432 85.5574C165.334 85.9551 165.286 86.4103 165.286 86.9229C165.286 87.3073 165.317 87.6741 165.383 88.032C165.445 88.39 165.551 88.7921 165.697 89.234L164.804 89.4417C164.508 88.4651 164.358 87.5548 164.358 86.7152C164.358 86.3307 164.393 85.9595 164.473 85.5883C164.552 85.2172 164.654 84.9078 164.786 84.6427C164.203 84.899 163.611 85.2437 163.006 85.6856C162.4 86.123 161.79 86.6533 161.172 87.2764L160.469 86.7991V82.8088H159.373L159.378 82.8177Z" fill="black"/>
<path d="M166.541 81.9692H169.811V82.8177H169.387C169.122 83.0519 168.914 83.2949 168.764 83.5468C168.613 83.7943 168.543 84.1699 168.543 84.6692C168.543 84.9432 168.609 85.3674 168.741 85.9463C168.874 86.5207 168.94 87.0068 168.94 87.3957C168.94 87.926 168.848 88.359 168.658 88.6949C168.472 89.0307 168.198 89.3047 167.836 89.5124C167.478 89.7201 167.049 89.8791 166.55 89.9808L166.293 89.1588C166.616 89.0837 166.899 88.9865 167.133 88.8716C167.367 88.7567 167.548 88.6286 167.668 88.4872C167.787 88.3458 167.875 88.1911 167.924 88.0232C167.977 87.8553 168.004 87.6343 168.004 87.3603C168.004 87.0068 167.937 86.5473 167.805 85.9905C167.672 85.4293 167.606 84.9962 167.606 84.6913C167.606 84.2759 167.659 83.9312 167.765 83.6573C167.871 83.3833 168.048 83.1005 168.295 82.8177H166.536V81.9692H166.541Z" fill="black"/>
<path d="M171.729 89.3576H170.818V83.7898C170.708 83.476 170.553 83.2374 170.359 83.0695C170.164 82.9016 169.935 82.8176 169.678 82.8176H169.572V81.9692H169.762C169.97 81.9692 170.173 82.0355 170.372 82.168C170.571 82.3006 170.734 82.4818 170.858 82.716C170.832 82.5304 170.818 82.3139 170.818 82.0708V81.1826H171.45L171.715 81.9648H172.975V82.8132H171.729V89.3532V89.3576Z" fill="black"/>
<path d="M179.524 82.8192V89.3592H178.613V84.7193C178.087 83.999 177.628 83.4953 177.23 83.1992C176.832 82.9031 176.417 82.7573 175.98 82.7573C175.657 82.7573 175.365 82.8324 175.1 82.9871C174.835 83.1418 174.566 83.4113 174.296 83.8002C174.583 83.6499 174.959 83.5748 175.423 83.5748C175.887 83.5748 176.271 83.7118 176.55 83.9814C176.824 84.2553 176.961 84.5868 176.961 84.9756C176.961 85.4352 176.806 85.8506 176.492 86.2218C176.183 86.5885 175.688 86.9553 175.016 87.3132L174.415 86.4471C174.954 86.2218 175.357 85.9964 175.617 85.7622C175.878 85.5324 176.011 85.2849 176.011 85.0198C176.011 84.8342 175.94 84.684 175.798 84.5691C175.657 84.4542 175.467 84.3967 175.233 84.3967C175.047 84.3967 174.866 84.4188 174.694 84.4586C174.521 84.4984 174.314 84.5779 174.079 84.6884L173.121 83.9107C173.514 83.2213 173.938 82.7131 174.398 82.3773C174.853 82.0414 175.352 81.8735 175.887 81.8735C176.421 81.8735 176.877 82.0017 177.31 82.2536C177.743 82.5054 178.193 82.912 178.653 83.4688C178.653 83.3671 178.64 83.2301 178.631 83.049C178.622 82.8678 178.613 82.6513 178.613 82.3861V81.1665H179.241L179.515 81.9487H180.774V82.7971H179.528L179.524 82.8192Z" fill="black"/>
<path d="M47.4636 31.1082V34.8113H41.2064C43.3054 38.1697 44.4808 42.7609 44.7239 48.5851C44.6753 51.7446 43.9727 54.6434 42.6161 57.286C41.2594 59.9285 39.4742 62.1866 37.2559 64.0602C35.0376 65.9382 32.4746 67.4053 29.5669 68.4659C26.6593 69.5264 23.6279 70.0832 20.4728 70.1318C21.8029 71.0686 23.0623 71.8729 24.2465 72.5401C25.4308 73.2074 26.6018 73.7598 27.7596 74.2061C28.9174 74.648 30.0884 74.9971 31.2726 75.2445C32.4569 75.492 33.7119 75.6422 35.0464 75.6864C38.3474 75.8853 40.875 76.7249 42.6249 78.2052C44.3748 79.6855 45.2497 81.7094 45.2497 84.2768C45.2497 84.9662 45.1879 85.682 45.0641 86.4244C44.9404 87.1668 44.7592 87.9534 44.5162 88.793L44.2952 89.3851C44.2466 89.3851 43.5838 89.2128 42.3156 88.8681C41.0429 88.5234 39.377 87.9799 37.3133 87.2375C35.2497 86.4951 32.8988 85.5097 30.2563 84.2768C27.6138 83.0439 24.9359 81.5106 22.2227 79.6855C19.5094 77.8605 16.8537 75.7129 14.2642 73.2427C11.6703 70.777 9.39009 67.9356 7.41482 64.7274L7.19388 64.3563C6.25706 62.6771 5.78866 60.9758 5.78866 59.248C5.78866 57.5202 6.18194 56.2873 6.97293 55.3991C7.76392 54.5109 9.09402 53.9673 10.9721 53.7685C11.2681 54.7053 11.7012 55.6333 12.2668 56.5436C12.8324 57.4583 13.5262 58.2714 14.3393 58.9873C15.1524 59.7031 16.0892 60.282 17.1542 60.7283C18.2147 61.1702 19.3636 61.3956 20.5965 61.3956C21.5333 61.3956 22.5585 61.2851 23.6677 61.0642C24.7768 60.8432 25.9257 60.4588 27.11 59.9108C33.8224 56.9899 37.1808 52.4119 37.1808 46.1768C37.1808 44.6434 36.9819 43.0703 36.5886 41.4618C36.1909 39.8533 35.5281 38.3818 34.5913 37.0428C33.6545 35.7083 32.4083 34.6168 30.8528 33.7772C29.2974 32.9376 27.384 32.5134 25.1127 32.5134C23.7781 32.5134 22.532 32.6902 21.3742 33.0349C20.2121 33.384 19.2001 33.9452 18.3384 34.7141C17.4723 35.4874 16.783 36.5081 16.266 37.7764C15.7489 39.0446 15.4882 40.6045 15.4882 42.4472C15.4882 44.2899 15.8462 45.8984 16.562 47.118C17.2779 48.3376 18.4003 48.9474 19.9292 48.9474C20.9147 48.9474 21.7543 48.5983 22.448 47.9046C23.1374 47.2064 23.5572 46.2872 23.7074 45.1427C23.756 43.9982 23.977 43.0658 24.3747 42.3456C24.768 41.6253 25.2364 41.0773 25.7799 40.7061C26.3234 40.3349 26.9023 40.0831 27.521 39.9593C28.1396 39.8356 28.7185 39.7737 29.262 39.7737C30.1016 39.7737 30.7159 39.8754 31.1136 40.0698C31.5069 40.2687 31.7808 40.525 31.9267 40.8475C32.0725 41.1701 32.1343 41.528 32.1122 41.9213C32.0857 42.319 32.0769 42.7123 32.0769 43.1056C32.0769 44.4887 31.8029 45.8453 31.2638 47.1799C30.7203 48.5144 29.9558 49.6987 28.9704 50.7327C27.9805 51.7711 26.8095 52.6107 25.4529 53.2515C24.0963 53.8922 22.5762 54.2148 20.897 54.2148C19.4167 54.2148 18.0468 53.932 16.7874 53.362C15.528 52.7963 14.4321 51.9921 13.4909 50.9536C12.554 49.9152 11.8249 48.6558 11.3079 47.1754C10.7909 45.6951 10.5302 44.0424 10.5302 42.213C10.5302 40.9315 10.6539 39.6588 10.9014 38.3994C11.1488 37.14 11.5907 35.9425 12.2359 34.8069H2.96054V31.1038H15.0949C17.8037 28.5364 21.4228 27.2549 25.9523 27.2549C30.4817 27.2549 34.6178 28.5408 37.9187 31.1038H41.5378V29.9195C41.5378 27.551 41.0429 25.1692 40.0575 22.7741C39.0676 20.379 37.2426 18.1696 34.578 16.1457C32.1078 14.3207 29.6156 13.0348 27.1012 12.2968C24.5868 11.5588 22.1873 11.1876 19.9204 11.1876C17.8965 11.1876 16.0097 11.4351 14.2553 11.93C12.501 12.4249 10.9588 13.0657 9.62871 13.8567C8.29419 14.6477 7.21155 15.5359 6.37196 16.5213C5.53236 17.5111 5.03744 18.4966 4.89161 19.482C3.5571 18.9385 2.41259 18.0016 1.44926 16.6671C0.485936 15.3326 0.00427246 13.6799 0.00427246 11.7047C0.00427246 10.4232 0.287084 9.15052 0.857127 7.89112C1.42717 6.63172 2.35073 5.4828 3.63222 4.44877C4.91371 3.41032 6.61942 2.53537 8.74051 1.8195C10.8616 1.10364 13.4776 0.621972 16.5885 0.374512C21.7719 0.476147 26.213 1.3511 29.916 3.00378C33.6191 4.65646 36.6637 6.78197 39.05 9.37146C41.4362 11.961 43.1773 14.8642 44.2687 18.0723C45.3602 21.2805 45.9082 24.4665 45.9082 27.6261C45.9082 28.859 45.833 30.0211 45.6872 31.1082H47.4636Z" fill="#2E3192"/>
<path d="M86.1116 57.0207H56.5666C54.7416 57.0207 53.1729 56.3667 51.8649 55.0587C50.5569 53.7507 49.9029 52.182 49.9029 50.3569H79.3728C80.3096 50.3569 81.189 50.5293 82.002 50.8739C82.8151 51.2186 83.531 51.7003 84.1496 52.3189C84.7683 52.9376 85.2455 53.6535 85.5946 54.4665C85.9393 55.2796 86.1116 56.1325 86.1116 57.0207Z" fill="#2E3192"/>
<path d="M131.649 76.7202H128.759V51.3246C128.065 49.2035 127.004 47.4624 125.573 46.1058C124.141 44.7492 122.387 44.0687 120.314 44.0687C119.426 44.0687 118.525 44.2808 117.61 44.6962C116.695 45.116 115.856 45.686 115.091 46.3975C114.327 47.1133 113.708 47.9397 113.239 48.8765C112.771 49.8133 112.537 50.8031 112.537 51.8372C112.537 51.7886 112.51 51.9742 112.462 52.394C112.413 52.8138 112.484 53.2733 112.683 53.7638C112.882 54.2588 113.226 54.7139 113.721 55.1337C114.216 55.5535 115.029 55.7612 116.165 55.7612C116.708 55.7612 117.252 55.5889 117.795 55.2442C118.339 54.8995 118.882 53.9362 119.426 52.3586C119.819 51.2229 120.438 50.3215 121.278 49.6542C122.117 48.987 123.103 48.6555 124.238 48.6555C125.078 48.6555 125.917 48.8765 126.757 49.3228L126.832 51.2495C126.832 51.9918 126.806 52.7784 126.757 53.618C126.708 54.4576 126.483 55.3105 126.09 56.1722C125.692 57.0383 125.078 57.8867 124.238 58.7263C123.399 59.5659 122.241 60.3304 120.756 61.0197C119.324 61.6119 117.941 61.9079 116.611 61.9079C112.661 61.9079 109.726 59.9813 107.8 56.1324C105.776 57.6613 103.628 58.4258 101.357 58.4258H99.8413C99.1254 58.4258 98.3477 58.2535 97.5081 57.9088C96.6685 57.5641 95.7935 56.9852 94.8788 56.1677C93.9641 55.3547 93.1378 54.1571 92.3998 52.5751C92.0021 51.7355 91.7193 50.8959 91.5469 50.0563C91.3746 49.2168 91.2862 48.4523 91.2862 47.7585C91.2862 46.7201 91.6309 45.5269 92.3247 44.1659C93.014 42.8093 94.1276 41.4129 95.6566 39.9812L95.8024 39.8354C96.938 40.18 97.8749 40.7987 98.6172 41.6869C99.3552 42.5751 99.7264 43.6135 99.7264 44.7978C99.7264 45.5402 99.5054 46.4019 99.0591 47.3917C98.6172 48.3816 98.3919 49.1681 98.3919 49.7603C98.3919 49.8089 98.414 49.9945 98.467 50.3171C98.5156 50.6397 98.6526 50.9843 98.8735 51.3555C99.0945 51.7267 99.4303 52.0581 99.8722 52.3542C100.314 52.6503 100.959 52.7961 101.799 52.7961C102.687 52.7961 103.65 52.3012 104.684 51.3157C105.723 50.3303 106.337 48.7262 106.536 46.5035C106.439 44.135 105.683 42.173 104.278 40.6175C102.873 39.062 100.981 38.2843 98.6128 38.2843C97.0839 38.2843 95.5019 38.682 93.8757 39.4686V34.8022H88.3962V31.0991L100.69 31.1742C103.505 31.5189 105.847 32.606 107.725 34.431C109.598 36.256 110.959 38.4301 111.799 40.9489C113.182 39.8133 114.738 38.9251 116.465 38.2843C118.193 37.6436 119.996 37.321 121.87 37.321C124.19 37.321 126.483 38.0368 128.754 39.4686V31.1035H140.752V34.8066H136.974V71.3865C136.974 72.8669 136.457 74.1263 135.418 75.1603C134.38 76.1988 133.12 76.7158 131.64 76.7158L131.649 76.7202Z" fill="#2E3192"/>
<path d="M174.866 76.7211H172.003V49.1779C170.862 50.8085 169.515 52.3374 167.955 53.7692C166.395 55.2009 164.773 56.4471 163.094 57.5076C161.41 58.5681 159.727 59.4077 158.048 60.0264C156.364 60.645 154.853 60.95 153.518 60.95C152.378 60.95 151.353 60.7511 150.438 60.3578C149.523 59.9645 148.754 59.4343 148.136 58.767C147.517 58.0997 147.049 57.322 146.726 56.4338C146.404 55.5456 146.245 54.6309 146.245 53.6941C146.245 52.4126 146.589 50.9543 147.283 49.3237C146.112 49.1779 145.197 48.8288 144.543 48.2853C143.885 47.7418 143.372 47.1275 143.01 46.4338C142.643 45.7444 142.413 45.0285 142.316 44.2861C142.219 43.5438 142.17 42.8809 142.17 42.2888C142.17 42.0413 142.281 41.3255 142.502 40.1412C142.723 38.9569 143.302 37.6975 144.243 36.3674C145.18 35.0329 146.598 33.8398 148.498 32.7748C150.398 31.7143 153.028 31.184 156.386 31.184C157.721 31.184 159.126 31.4182 160.606 31.8866C162.086 32.355 163.518 32.9958 164.901 33.8133C166.284 34.6264 167.592 35.5897 168.825 36.7033C170.058 37.8124 171.119 39.0365 172.011 40.3666V31.1089H184.004V34.812H180.231V71.3919C180.231 72.8722 179.705 74.1316 178.653 75.1657C177.601 76.1997 176.342 76.7211 174.875 76.7211H174.866ZM158.507 50.3622C158.949 50.3622 160.16 50.1633 162.135 49.77C164.009 49.3768 165.913 47.1319 167.835 43.0312C167.438 42.2402 166.837 41.4138 166.024 40.5522C165.211 39.6905 164.247 38.8995 163.134 38.1836C162.025 37.4677 160.765 36.8756 159.356 36.4072C157.95 35.9388 156.479 35.7046 154.95 35.7046C154.256 35.7046 153.527 35.8151 152.758 36.036C151.989 36.2569 151.251 36.5663 150.553 36.9596C149.855 37.3573 149.258 37.8743 148.759 38.515C148.26 39.1558 147.986 39.8716 147.937 40.6626C147.937 41.3034 148.458 41.9485 149.506 42.5893C150.553 43.23 151.874 43.5791 153.465 43.6277L151.971 46.6635C153.907 49.1337 156.081 50.3666 158.503 50.3666L158.507 50.3622Z" fill="#2E3192"/>
</g>
<defs>
<clipPath id="clip0_2516_72732">
<rect width="184" height="91.2421" fill="white" transform="translate(0 0.378906)"/>
</clipPath>
</defs>
</svg>
