<svg width="24" height="25" viewBox="0 0 24 25" fill="none" xmlns="http://www.w3.org/2000/svg">
<g clip-path="url(#clip0_2299_3674)">
<path d="M24 12.3281C24 5.7007 18.6274 0.328125 12 0.328125C5.37258 0.328125 0 5.7007 0 12.3281C0 18.3176 4.3882 23.2821 10.125 24.1823V15.7969H7.07812V12.3281H10.125V9.68438C10.125 6.67688 11.9166 5.01562 14.6576 5.01562C15.9701 5.01562 17.3438 5.25 17.3438 5.25V8.20312H15.8306C14.34 8.20312 13.875 9.1282 13.875 10.0781V12.3281H17.2031L16.6711 15.7969H13.875V24.1823C19.6118 23.2821 24 18.3176 24 12.3281Z" fill="#056049"/>
</g>
<defs>
<clipPath id="clip0_2299_3674">
<rect width="24" height="24" fill="white" transform="translate(0 0.328125)"/>
</clipPath>
</defs>
</svg>
