<svg width="24" height="25" viewBox="0 0 24 25" fill="none" xmlns="http://www.w3.org/2000/svg">
<g clip-path="url(#clip0_2299_3675)">
<path d="M22.2234 0.328125H1.77187C0.792187 0.328125 0 1.10156 0 2.05781V22.5938C0 23.55 0.792187 24.3281 1.77187 24.3281H22.2234C23.2031 24.3281 24 23.55 24 22.5984V2.05781C24 1.10156 23.2031 0.328125 22.2234 0.328125ZM7.12031 20.7797H3.55781V9.32344H7.12031V20.7797ZM5.33906 7.7625C4.19531 7.7625 3.27188 6.83906 3.27188 5.7C3.27188 4.56094 4.19531 3.6375 5.33906 3.6375C6.47813 3.6375 7.40156 4.56094 7.40156 5.7C7.40156 6.83437 6.47813 7.7625 5.33906 7.7625ZM20.4516 20.7797H16.8937V15.2109C16.8937 13.8844 16.8703 12.1734 15.0422 12.1734C13.1906 12.1734 12.9094 13.6219 12.9094 15.1172V20.7797H9.35625V9.32344H12.7687V10.8891H12.8156C13.2891 9.98906 14.4516 9.0375 16.1813 9.0375C19.7859 9.0375 20.4516 11.4094 20.4516 14.4938V20.7797Z" fill="#056049"/>
</g>
<defs>
<clipPath id="clip0_2299_3675">
<rect width="24" height="24" fill="white" transform="translate(0 0.328125)"/>
</clipPath>
</defs>
</svg>
