<svg width="184" height="94" viewBox="0 0 184 94" fill="none" xmlns="http://www.w3.org/2000/svg">
<g clip-path="url(#clip0_2516_72626)">
<path d="M40.8999 77.3735C40.4637 77.3735 40.0226 77.2644 39.5864 77.0463C39.1453 76.8283 38.8182 76.5358 38.6001 76.1691C37.5741 73.5372 35.8592 71.292 33.4455 69.4234C31.0317 67.5599 28.1422 66.6281 24.7818 66.6281C18.7846 66.6281 12.718 69.9934 6.57705 76.7143L6.68608 74.9597C6.68608 72.8384 6.33914 70.9203 5.64525 69.2004C4.95136 67.4855 4.18312 66.0036 3.34054 64.7595C2.49796 63.5155 1.71485 62.5688 0.981311 61.9096L-0.00500488 60.9233C6.06158 58.4401 11.5433 57.1961 16.4452 57.1961C25.2873 57.1961 32.6029 60.3781 38.3771 66.7371V31.9732L20.9406 50.1779C19.1117 49.7368 17.2481 49.5187 15.3498 49.5187C13.4515 49.5187 11.8754 49.6277 10.4133 49.8458L8.3316 50.1729C13.0104 44.8399 15.3498 40.0867 15.3498 35.9184C15.3498 33.579 14.874 32.0079 13.9224 31.2049C12.5346 29.9609 10.9634 29.3413 9.20887 29.3413C7.23624 29.3413 5.333 29.6685 3.50906 30.3277C3.29098 30.402 2.99855 30.4367 2.63178 30.4367C1.89824 30.3623 1.27869 30.0897 0.768188 29.6139C0.257682 29.1381 -4.852e-05 28.5731 -4.852e-05 27.9139C-4.852e-05 27.4777 0.143686 27.0366 0.441068 26.6005C1.90319 23.8943 3.82131 21.2476 6.19541 18.6505C8.5695 16.0583 11.2559 13.8824 14.2545 12.1279C17.2531 10.3733 20.3557 9.49606 23.5774 9.49606C29.4259 9.57041 34.3575 12.9705 38.382 19.6963V3.13705C38.382 2.25977 38.6398 1.6204 39.1503 1.21893C39.6608 0.817469 40.2456 0.614258 40.9048 0.614258C41.564 0.614258 42.1637 0.832338 42.7139 1.27345C43.264 1.70961 43.5366 2.33412 43.5366 3.13705V9.27798H49.8957C50.7729 9.27798 51.4123 9.55058 51.8138 10.1007C52.2152 10.6509 52.4184 11.2506 52.4184 11.9098C52.4184 12.569 52.2152 13.1687 51.8138 13.7189C51.4123 14.269 50.7729 14.5416 49.8957 14.5416H43.5366V74.8507C43.5366 75.7279 43.264 76.3673 42.7139 76.7688C42.1637 77.1702 41.564 77.3735 40.9048 77.3735H40.8999ZM27.9588 35.3732L36.4044 26.4914C32.6029 18.5959 28.3256 14.6507 23.5724 14.6507C18.7499 14.8688 14.0661 17.5402 9.53599 22.6552C11.2162 22.219 12.8617 21.996 14.4725 21.996L16.2271 22.105C23.2453 22.7642 27.1559 27.1853 27.9588 35.3732Z" fill="#6549CC"/>
<path d="M97.9227 77.4832C97.2635 77.4832 96.6638 77.2849 96.1137 76.8785C95.5635 76.477 95.2909 75.8377 95.2909 74.9604V53.5786C95.2909 48.8255 92.6244 44.6225 87.2864 40.9696V41.6288C87.2864 50.1092 82.2061 58.9166 72.0456 68.0562C69.6318 64.4727 67 61.7319 64.1501 59.8336C61.3002 57.9353 58.8121 56.6516 56.6957 55.9973L53.5137 55.011C68.2787 48.1415 75.6637 40.9399 75.6637 33.4112C75.6637 30.7794 74.9153 28.2962 73.4135 25.9568C71.9167 23.6174 70.1423 21.4812 68.0953 19.5433C66.0484 17.6054 64.0757 15.945 62.1725 14.5522H49.8906C49.0877 14.5522 48.483 14.2796 48.0815 13.7295C47.6801 13.1793 47.4769 12.5796 47.4769 11.9204C47.4769 11.2612 47.6801 10.6615 48.0815 10.1113C48.483 9.56117 49.0877 9.28857 49.8906 9.28857H106.909C107.712 9.28857 108.336 9.56117 108.772 10.1113C109.208 10.6615 109.431 11.2612 109.431 11.9204C109.431 12.5796 109.213 13.1793 108.772 13.7295C108.336 14.2796 107.712 14.5522 106.909 14.5522H100.55V74.9703C100.55 75.8476 100.277 76.4869 99.7268 76.8884C99.1767 77.2899 98.577 77.4931 97.9178 77.4931L97.9227 77.4832ZM95.2909 41.2968V14.5423H70.4C78.4393 20.6833 83.7029 27.3 86.191 34.3876C89.6258 36.1421 92.6591 38.4469 95.2909 41.2968Z" fill="#6549CC"/>
<path d="M115.904 77.4825C115.245 77.4825 114.646 77.2842 114.095 76.8778C113.545 76.4763 113.273 75.837 113.273 74.9597V14.5416H106.914C106.036 14.5416 105.397 14.269 104.995 13.7189C104.594 13.1687 104.391 12.569 104.391 11.9098C104.391 11.2506 104.594 10.6509 104.995 10.1007C105.397 9.55058 106.036 9.27798 106.914 9.27798H113.273V3.13705C113.273 2.25977 113.545 1.6204 114.095 1.21893C114.646 0.817469 115.245 0.614258 115.904 0.614258C116.564 0.614258 117.163 0.817469 117.714 1.21893C118.264 1.6204 118.536 2.25977 118.536 3.13705V9.27798H124.895C125.773 9.27798 126.412 9.55058 126.813 10.1007C127.215 10.6509 127.418 11.2506 127.418 11.9098C127.418 12.569 127.215 13.1687 126.813 13.7189C126.412 14.269 125.773 14.5416 124.895 14.5416H118.536V74.9597C118.536 75.837 118.264 76.4763 117.714 76.8778C117.163 77.2793 116.564 77.4825 115.904 77.4825Z" fill="#6549CC"/>
<path d="M172.486 77.4829H172.05C162.618 77.3392 153.736 75.0345 145.405 70.5737C141.311 68.5268 137.598 66.004 134.273 63.0054C130.947 60.0068 129.029 56.2449 128.513 51.7098C128.513 49.2961 129.173 47.1797 130.486 45.3508C132.533 42.5752 136.117 39.6113 141.231 36.469C142.183 35.8841 149.965 30.6552 164.586 20.7871C164.66 20.7871 164.987 20.569 165.572 20.1279C167.401 18.9582 168.824 18.0065 169.85 17.278V14.5371H124.89C124.013 14.5371 123.374 14.2645 122.972 13.7143C122.571 13.1642 122.368 12.5645 122.368 11.9053C122.368 11.2461 122.571 10.6464 122.972 10.0962C123.374 9.54604 124.013 9.27344 124.89 9.27344H181.472C182.349 9.27344 182.989 9.54604 183.39 10.0962C183.792 10.6464 183.995 11.2461 183.995 11.9053C183.995 12.5645 183.792 13.1642 183.39 13.7143C182.989 14.2645 182.349 14.5371 181.472 14.5371H175.113V74.9552C175.113 75.7581 174.841 76.3826 174.29 76.8188C173.74 77.2549 173.141 77.478 172.481 77.478L172.486 77.4829ZM146.936 93.3829C144.304 93.3829 142.074 92.4511 140.245 90.5875C138.416 88.7239 137.504 86.5134 137.504 83.951C137.504 81.3885 138.416 79.0739 140.245 77.2054C142.074 75.3418 144.304 74.41 146.936 74.41C149.568 74.41 151.798 75.3418 153.627 77.2054C155.456 79.0689 156.368 81.3191 156.368 83.951C156.368 86.5828 155.451 88.719 153.627 90.5875C151.798 92.4511 149.568 93.3829 146.936 93.3829ZM169.854 60.9237V23.5329L165.468 26.6009C162.906 28.2811 160.239 30.1645 157.464 32.2462C154.683 34.3279 152.309 36.5433 150.336 38.8778C148.364 41.2172 147.377 43.5566 147.377 45.896C147.377 48.4535 148.621 50.7384 151.105 52.7507C153.588 54.7629 156.552 56.4431 159.986 57.7962C163.421 59.1493 166.712 60.1902 169.854 60.9237Z" fill="#6549CC"/>
<path d="M8.96103 90.4777C8.56947 89.7045 7.97471 89.0354 7.17673 88.4753C6.94379 88.7826 6.64145 89.0205 6.25981 89.1791C5.87817 89.3377 5.44696 89.422 4.95628 89.422C4.02944 89.422 3.24138 89.085 2.5921 88.4059C1.94282 87.7269 1.38275 86.7059 0.916849 85.3479L1.76934 85.0653C2.17577 86.2697 2.63175 87.152 3.13234 87.712C3.63294 88.2672 4.24752 88.5497 4.98107 88.5497C5.54609 88.5497 5.9773 88.4109 6.28459 88.1383C6.59188 87.8607 6.74553 87.5039 6.74553 87.0628C6.74553 86.5919 6.62162 86.2152 6.36885 85.9278C6.11607 85.6403 5.78895 85.4965 5.37758 85.4965C5.14463 85.4965 4.9662 85.5511 4.8522 85.6502C4.7382 85.7543 4.67873 85.8931 4.67873 86.0616C4.67873 86.2301 4.72334 86.4085 4.81255 86.5671L3.93527 86.7703C3.80145 86.4928 3.73702 86.2103 3.73702 85.9327C3.73702 85.6799 3.80145 85.4569 3.93032 85.2735C4.05918 85.0852 4.25248 84.9414 4.50526 84.8324C4.36648 84.4805 4.07405 84.2327 3.62798 84.0889H0.46582V83.2612H11.0675V84.0889H9.84821V90.4827H8.95607L8.96103 90.4777ZM7.53855 87.7368C7.83593 87.9301 8.11844 88.1581 8.37617 88.4208C8.63886 88.6835 8.84207 88.9462 8.99572 89.2039C8.97094 88.8966 8.96103 88.5695 8.96103 88.2176V84.079H5.0108C5.20906 84.2426 5.34288 84.4408 5.42218 84.6738C6.09625 84.7035 6.63154 84.9414 7.02804 85.3875C7.42455 85.8336 7.62776 86.3887 7.62776 87.0528C7.62776 87.2759 7.59803 87.5039 7.53855 87.7319V87.7368Z" fill="black"/>
<path d="M17.8973 86.1419L17.7684 85.3142C18.0658 85.2349 18.388 85.1952 18.725 85.1952C19.1959 85.1952 19.5626 85.334 19.8204 85.6165C20.0781 85.899 20.207 86.3005 20.207 86.8258C20.207 87.1084 20.1574 87.3909 20.0632 87.6684C19.969 87.946 19.8303 88.2235 19.6419 88.4961V92.6843H18.7746C18.6754 92.3324 18.5218 92.0746 18.3087 91.916C18.0955 91.7574 17.813 91.6732 17.4661 91.6732C17.2629 91.6732 16.9457 91.7029 16.5194 91.7673C16.0882 91.8367 15.7512 91.8714 15.5083 91.8714C14.8789 91.8714 14.3733 91.688 13.9966 91.3163C13.6199 90.9495 13.4316 90.4093 13.4316 89.7055C13.4316 89.3635 13.4762 89.0066 13.5654 88.6399L14.4576 88.7489C14.3783 89.081 14.3386 89.4081 14.3386 89.7253C14.3386 90.1615 14.4328 90.4886 14.6261 90.7067C14.8194 90.9248 15.1217 91.0388 15.543 91.0388C15.7462 91.0388 16.0238 91.0041 16.3757 90.9347C16.7226 90.8702 17.0002 90.8355 17.2084 90.8355C17.927 90.8355 18.4425 91.0437 18.7498 91.465V90.0574C18.7498 89.8889 18.7547 89.6609 18.7647 89.3833C18.4871 89.5965 18.1996 89.7551 17.9022 89.8591C17.5999 89.9632 17.2926 90.0128 16.9705 90.0128C16.6185 90.0128 16.3261 89.9533 16.0882 89.8294C15.8503 89.7055 15.662 89.5221 15.5182 89.2792C15.3745 89.0364 15.3051 88.6597 15.3051 88.1492V87.0092C14.9681 86.6375 14.631 86.3451 14.299 86.1369C13.9669 85.9287 13.6497 85.8296 13.3573 85.8296C13.0797 85.8296 12.8567 85.899 12.6882 86.0427C12.5196 86.1865 12.4403 86.3798 12.4403 86.6226C12.4403 86.8308 12.5097 87.0092 12.6435 87.1579C12.7774 87.3066 12.9954 87.4404 13.2829 87.5594L12.8715 88.3871C12.4255 88.1938 12.0835 87.941 11.8456 87.6288C11.6077 87.3165 11.4887 86.9696 11.4887 86.583C11.4887 86.0973 11.6523 85.7107 11.9843 85.4232C12.3164 85.1357 12.7129 84.987 13.1739 84.987C13.5555 84.987 13.9223 85.0713 14.2692 85.2349C14.6211 85.3984 14.973 85.6611 15.3398 86.0279C15.32 85.8296 15.3101 85.5719 15.3101 85.2646V84.0751H10.8345V83.2474H18.7944C18.7795 82.9202 18.7002 82.6873 18.5614 82.5535C18.4177 82.4196 18.1897 82.3503 17.8725 82.3503H16.7772C16.0535 82.3503 15.5331 82.2709 15.2109 82.1074C14.8888 81.9488 14.6509 81.7307 14.5022 81.4631C14.3535 81.1954 14.2791 80.8733 14.2791 80.4916C14.2791 80.3132 14.299 80.11 14.3436 79.8721L15.201 79.9266C15.1663 80.1001 15.1515 80.2488 15.1515 80.3677C15.1515 80.6453 15.201 80.8733 15.3051 81.0418C15.4092 81.2103 15.5678 81.3292 15.7809 81.4036C15.994 81.473 16.3063 81.5077 16.7226 81.5077H17.6296C18.0955 81.5077 18.4673 81.5523 18.7399 81.6415C19.0174 81.7307 19.2306 81.8992 19.3842 82.147C19.5378 82.3949 19.6221 82.7567 19.6419 83.2374H20.9306V84.0651H16.2072V87.9658C16.2072 88.2483 16.227 88.4763 16.2617 88.6448C16.2964 88.8133 16.3757 88.9422 16.4946 89.0413C16.6136 89.1355 16.797 89.1851 17.0349 89.1851C17.59 89.1851 18.1104 88.9373 18.5862 88.4416C19.067 87.946 19.3049 87.4107 19.3049 86.8358C19.3049 86.5632 19.2405 86.3649 19.1066 86.236C18.9728 86.1072 18.7746 86.0477 18.502 86.0477C18.3285 86.0477 18.1302 86.0725 17.9022 86.127L17.8973 86.1419Z" fill="black"/>
<path d="M22.7893 90.4784H21.8971V85.0363C21.7881 84.729 21.6394 84.4961 21.4461 84.3325C21.2528 84.169 21.0347 84.0847 20.7819 84.0847H20.6779V83.257H20.8662C21.0694 83.257 21.2677 83.3214 21.4659 83.4503C21.6592 83.5792 21.8178 83.7576 21.9417 83.9856C21.9169 83.8022 21.9021 83.594 21.9021 83.3561V82.4888H22.5216L22.7843 83.252H24.0135V84.0798H22.7942V90.4735L22.7893 90.4784Z" fill="black"/>
<path d="M28.0232 83.2515V84.0792H27.7853C27.4136 84.1684 27.032 84.3865 26.6404 84.7235C26.2488 85.0605 25.9366 85.467 25.7136 85.9428C25.4905 86.4186 25.3765 86.9142 25.3765 87.4346C25.3765 88.1583 25.5302 88.7084 25.8325 89.095C26.1349 89.4767 26.5214 89.67 26.9923 89.67C27.1806 89.67 27.3442 89.6501 27.4879 89.6055C27.6317 89.5609 27.7754 89.4965 27.9291 89.4023L28.3355 90.116C27.9637 90.3936 27.5028 90.5274 26.9527 90.5274C26.4669 90.5274 26.0357 90.3985 25.659 90.1458C25.2774 89.893 24.985 89.5312 24.7768 89.0653C24.5686 88.5994 24.4646 88.0591 24.4646 87.4545C24.4646 86.7457 24.6232 86.0915 24.9453 85.4967C25.2675 84.9019 25.7185 84.4162 26.2935 84.0494C26.0357 84.0693 25.7433 84.0841 25.4112 84.0841H23.7806V83.2564H28.0331L28.0232 83.2515Z" fill="black"/>
<path d="M35.5767 90.9838H34.7093C34.4863 90.3097 34.0551 89.9727 33.4157 89.9727C33.1629 89.9727 32.7763 90.0074 32.2509 90.0718C31.7305 90.1412 31.3191 90.1759 31.0267 90.1759C30.1594 90.1759 29.5101 89.9925 29.0739 89.6307C28.6378 89.2639 28.4197 88.7286 28.4197 88.0199C28.4197 87.663 28.4544 87.3755 28.5287 87.1574L29.4209 87.2665C29.3614 87.4746 29.3316 87.7274 29.3316 88.0298C29.3316 88.4709 29.4704 88.803 29.743 89.021C30.0156 89.2391 30.4419 89.3482 31.0218 89.3482C31.2547 89.3482 31.6165 89.3135 32.1072 89.2441C32.5929 89.1796 32.9647 89.1499 33.2224 89.1499C33.8519 89.1499 34.3425 89.3581 34.6845 89.7794V86.2851C34.407 85.8936 34.174 85.5863 33.9906 85.3731L30.9821 88.2231L30.2882 87.5787L30.6451 87.2467C30.8136 87.0087 30.8929 86.7609 30.8929 86.5082C30.8929 86.3049 30.8334 86.1463 30.7194 86.0323C30.6005 85.9183 30.432 85.8638 30.2089 85.8638C29.971 85.8638 29.7331 85.9332 29.4952 86.077L28.613 85.2393C29.1631 84.5157 29.6885 83.9953 30.1841 83.6731C30.6798 83.351 31.1952 83.1874 31.7305 83.1874C32.2658 83.1874 32.7912 83.3262 33.2373 83.6087C33.6883 83.8912 34.1839 84.3819 34.7242 85.0807C34.6994 84.8081 34.6845 84.4513 34.6845 84.0151V82.5034H35.3041L35.5668 83.2667H36.7959V84.0944H35.5767V90.9937V90.9838ZM31.676 86.4338C31.8594 86.2405 32.0576 86.0423 32.2757 85.8341L33.4306 84.7437C33.1679 84.4959 32.9052 84.3125 32.6524 84.1985C32.3996 84.0845 32.1221 84.025 31.8197 84.025C31.4381 84.025 31.0763 84.1242 30.7442 84.3174C30.4121 84.5107 30.0701 84.823 29.7282 85.2393C29.9462 85.1303 30.1643 85.0758 30.3824 85.0758C30.7888 85.0758 31.106 85.1898 31.334 85.4178C31.562 85.6458 31.676 85.953 31.676 86.3396V86.4289V86.4338Z" fill="black"/>
<path d="M37.6237 83.252C37.2668 82.8357 37.0289 82.5185 36.91 82.3053C37.4106 81.4082 37.926 80.7689 38.4563 80.3922C38.9867 80.0155 39.6062 79.8271 40.3199 79.8271C40.994 79.8271 41.6681 79.9808 42.352 80.2881C43.0311 80.5954 43.8736 81.1604 44.8699 81.9782L44.3742 82.6077C43.4722 81.8741 42.7436 81.3686 42.1786 81.091C41.6135 80.8135 41.0386 80.6747 40.4488 80.6747C39.8937 80.6747 39.4129 80.8135 39.0065 81.0861C38.6001 81.3587 38.2333 81.8047 37.9062 82.4193C38.0202 82.6374 38.2284 82.915 38.5307 83.247H39.8838V84.0747H38.6645V90.4685H37.7724V84.0747H36.5531V83.247H37.6187L37.6237 83.252Z" fill="black"/>
<path d="M44.8105 86.9637C44.7906 86.7555 44.7807 86.4928 44.7807 86.1707V84.0841H39.6459V83.2563H46.8921V84.0841H45.6729V90.4778H44.7807V88.064C44.3495 87.5287 43.9183 87.1174 43.4871 86.8348C43.0559 86.5523 42.6495 86.4086 42.2778 86.4086C41.9655 86.4086 41.7177 86.4879 41.5343 86.6415C41.3509 86.7952 41.2518 87.0133 41.2518 87.2908C41.2518 87.5238 41.3311 87.722 41.4947 87.8905C41.6582 88.0591 41.911 88.2078 42.253 88.3416L41.8069 89.1693C41.3162 88.9661 40.9395 88.6984 40.6818 88.3664C40.4241 88.0343 40.2952 87.6675 40.2952 87.2561C40.2952 86.9241 40.3745 86.6267 40.5381 86.3739C40.7016 86.1211 40.9247 85.9179 41.2121 85.7791C41.4996 85.6404 41.8069 85.571 42.134 85.571C42.6049 85.571 43.051 85.68 43.4822 85.8931C43.9134 86.1063 44.3545 86.4681 44.8105 86.9637Z" fill="black"/>
<path d="M53.8954 86.3249C54.4208 86.7164 54.6835 87.2269 54.6835 87.8663C54.6835 88.5057 54.4456 89.0211 53.9648 89.4077C53.4841 89.7943 52.8397 89.9876 52.0319 89.9876C50.8324 89.9876 49.8312 89.5366 49.0233 88.6395C48.2155 87.7424 47.5761 86.3893 47.1052 84.5852L47.9775 84.3324C48.4385 85.9978 48.9886 87.2071 49.6231 87.9704C50.2624 88.7337 51.0703 89.1153 52.0517 89.1153C52.587 89.1153 53.0033 89.0063 53.3007 88.7832C53.5981 88.5602 53.7468 88.2479 53.7468 87.8415C53.7468 87.4351 53.5535 87.1129 53.1718 86.8304C52.9636 86.9494 52.6861 87.0782 52.3441 87.2021L51.9872 86.3744C52.5671 86.1861 52.9835 85.973 53.2412 85.7351C53.4989 85.4972 53.6278 85.2147 53.6278 84.8826C53.6278 84.5951 53.5485 84.377 53.3849 84.2283C53.2263 84.0796 52.9884 84.0053 52.6811 84.0053C52.3391 84.0053 52.0071 84.0796 51.6849 84.2283C51.3627 84.377 51.1001 84.5604 50.9018 84.7834C50.7035 85.0065 50.6044 85.2047 50.6044 85.3832C50.6044 85.4773 50.6242 85.5566 50.6589 85.6161C50.6936 85.6756 50.763 85.7351 50.8572 85.7846C50.9514 85.8342 51.0852 85.8689 51.2438 85.8937L51.0009 86.7511C50.1187 86.5826 49.6726 86.1613 49.6726 85.4773C49.6726 85.1254 49.8164 84.7686 50.1088 84.4018C50.4012 84.035 50.7779 83.7426 51.2438 83.5196C51.7097 83.2965 52.1855 83.1875 52.6762 83.1875C53.261 83.1875 53.722 83.3362 54.054 83.6336C54.3861 83.931 54.5546 84.3473 54.5546 84.8727C54.5546 85.4327 54.3316 85.9185 53.8855 86.3348L53.8954 86.3249Z" fill="black"/>
<path d="M61.1665 90.4778H60.2744C59.8977 89.7542 59.3475 89.1396 58.6288 88.6341C57.9102 88.1285 57.1072 87.8014 56.22 87.6527L55.7641 86.5375C56.5472 86.0766 57.3154 85.6751 58.0688 85.3282C58.8221 84.9862 59.5557 84.6987 60.2744 84.4707V84.0792H55.2238V83.2515H62.3858V84.0792H61.1665V90.4729V90.4778ZM57.5087 90.5472C57.3204 90.5472 57.1568 90.4828 57.0131 90.3539C56.8743 90.2251 56.8049 90.0615 56.8049 89.8682C56.8049 89.6749 56.8743 89.5114 57.0081 89.3825C57.1419 89.2487 57.3104 89.1842 57.5087 89.1842C57.697 89.1842 57.8606 89.2487 57.9895 89.3825C58.1233 89.5163 58.1877 89.6799 58.1877 89.8682C58.1877 90.0566 58.1233 90.2251 57.9895 90.3539C57.8556 90.4828 57.697 90.5472 57.5087 90.5472ZM60.2744 85.3827C59.6399 85.6008 59.0353 85.8436 58.4653 86.1014C57.8953 86.3641 57.3551 86.6416 56.8495 86.9489C57.588 87.1224 58.272 87.4148 58.9014 87.8212C59.5259 88.2277 59.9968 88.6936 60.314 89.2239C60.2892 88.9116 60.2744 88.5944 60.2744 88.2822V85.3827Z" fill="black"/>
<path d="M62.7029 84.7334L62.8269 84.0792H62.1478V83.2515H70.306V84.0792H69.0867V90.4729H68.1946V86.7754C68.0261 86.5623 67.8675 86.3988 67.7287 86.2848C67.5899 86.1708 67.4511 86.1113 67.3223 86.1113C67.1984 86.1113 67.0893 86.146 67.0001 86.2154C66.9109 86.2848 66.8118 86.4037 66.7027 86.5722C66.5937 86.7407 66.44 87.0034 66.2467 87.3553C65.875 88.0344 65.5677 88.4705 65.3249 88.6787C65.082 88.8868 64.7846 88.986 64.4426 88.986C64.1006 88.986 63.7785 88.872 63.5009 88.644C63.2234 88.416 62.9458 88.079 62.6633 87.6329L63.377 87.2066C63.5753 87.5585 63.7487 87.7915 63.8826 87.9105C64.0164 88.0294 64.175 88.0839 64.3435 88.0839C64.512 88.0839 64.6855 88.0096 64.8441 87.8559C65.0027 87.7072 65.1811 87.4693 65.3744 87.1521C65.2802 86.4384 65.1563 85.9428 65.0077 85.6751C64.859 85.4075 64.6161 85.1993 64.2791 85.0605C63.942 84.9218 63.4167 84.8078 62.693 84.7186L62.7029 84.7334ZM63.5158 84.0792C64.3633 84.2031 64.9581 84.4261 65.31 84.7433C65.6619 85.0605 65.8651 85.576 65.9295 86.2848C66.0981 85.9428 66.2715 85.685 66.45 85.5116C66.6284 85.3381 66.8415 85.2489 67.0893 85.2489C67.2826 85.2489 67.466 85.2935 67.6395 85.3827C67.813 85.4719 68.0112 85.6305 68.2342 85.8585C68.2095 85.69 68.1995 85.4521 68.1995 85.1448V84.0742H63.5158V84.0792Z" fill="black"/>
<path d="M78.2113 89.7493C78.0229 89.5708 77.8395 89.4816 77.6561 89.4816C77.5025 89.4816 77.3835 89.5361 77.2993 89.6501C77.215 89.7592 77.1754 89.9227 77.1754 90.1359C77.1754 90.2399 77.1853 90.3391 77.2051 90.4382L76.4964 90.4729C76.4468 90.0516 76.3179 89.7245 76.1098 89.4915C75.9016 89.2586 75.6389 89.1396 75.3266 89.1396C75.1185 89.1396 74.95 89.1941 74.8261 89.3081C74.6972 89.4221 74.6377 89.5609 74.6377 89.7344C74.6377 89.9376 74.717 90.116 74.8806 90.2697C75.0441 90.4233 75.287 90.5522 75.6141 90.6662L75.282 91.4542C74.7666 91.2659 74.38 91.023 74.1272 90.7356C73.8744 90.4481 73.7406 90.1012 73.7406 89.7047C73.7406 89.3081 73.8844 89.0008 74.1768 88.7431C74.4642 88.4854 74.8261 88.3565 75.2622 88.3565C75.5794 88.3565 75.8619 88.4259 76.1147 88.5696C76.3675 88.7134 76.5806 88.9265 76.769 89.209C76.8532 89.0405 76.9623 88.9166 77.0961 88.8323C77.2299 88.7481 77.3885 88.7035 77.5768 88.7035C77.7107 88.7035 77.8296 88.7332 77.9387 88.7927C78.0477 88.8522 78.1567 88.9414 78.2658 89.0554V89.0306C77.8643 88.5201 77.3687 88.1087 76.7789 87.7964C76.1891 87.4842 75.5051 87.2711 74.7269 87.1571L74.2908 86.1113C74.95 85.7743 75.6141 85.4719 76.2684 85.2092C76.9276 84.9416 77.5818 84.7086 78.2311 84.5104V84.0792H73.1062V83.2515H82.4936V84.0792H79.1183V84.4707C79.9708 84.6244 80.6399 84.892 81.1206 85.2786C81.6014 85.6652 81.8393 86.141 81.8393 86.7011C81.8393 87.1026 81.7104 87.4247 81.4577 87.6676C81.2049 87.9104 80.853 88.0344 80.402 88.0344C80.1641 88.0344 79.9609 88.0145 79.7973 87.9798L79.8469 87.167C79.9658 87.1819 80.0748 87.1868 80.174 87.1868C80.4267 87.1868 80.62 87.1472 80.7489 87.058C80.8778 86.9687 80.9422 86.825 80.9422 86.6119C80.9422 86.3046 80.7836 86.032 80.4664 85.799C80.1492 85.5661 79.6982 85.4025 79.1133 85.3034V90.9784H78.2212V89.7493H78.2113ZM78.2113 85.3728C77.676 85.5413 77.1803 85.7148 76.7144 85.8982C76.2485 86.0816 75.8173 86.2749 75.4159 86.4781C75.971 86.597 76.4765 86.7705 76.9276 86.9985C77.3786 87.2265 77.8197 87.5536 78.2509 87.9798C78.2261 87.4892 78.2113 87.167 78.2113 87.0084V85.3678V85.3728Z" fill="black"/>
<path d="M84.3422 90.4784H83.4501V85.0363C83.3411 84.729 83.1924 84.4961 82.9991 84.3325C82.8058 84.169 82.5877 84.0847 82.3349 84.0847H82.2308V83.257H82.4192C82.6224 83.257 82.8206 83.3214 83.0189 83.4503C83.2122 83.5792 83.3708 83.7576 83.4947 83.9856C83.4699 83.8022 83.4551 83.594 83.4551 83.3561V82.4888H84.0746L84.3373 83.252H85.5665V84.0798H84.3472V90.4735L84.3422 90.4784Z" fill="black"/>
<path d="M91.2665 90.4778H90.3744C89.9977 89.7542 89.4476 89.1396 88.7289 88.6341C88.0102 88.1285 87.2073 87.8014 86.3201 87.6527L85.8641 86.5375C86.6472 86.0766 87.4154 85.6751 88.1688 85.3282C88.9222 84.9862 89.6557 84.6987 90.3744 84.4707V84.0792H85.3239V83.2515H92.4858V84.0792H91.2665V90.4729V90.4778ZM90.3744 85.3827C89.74 85.6008 89.1353 85.8436 88.5653 86.1014C87.9953 86.3641 87.4551 86.6416 86.9495 86.9489C87.688 87.1224 88.372 87.4148 89.0015 87.8212C89.626 88.2277 90.0968 88.6936 90.414 89.2239C90.3893 88.9116 90.3744 88.5944 90.3744 88.2822V85.3827Z" fill="black"/>
<path d="M99.5138 86.1568C99.5138 86.3253 99.5287 86.4492 99.5485 86.5285C99.5733 86.6078 99.6179 86.6723 99.6873 86.7268C99.7517 86.7813 99.841 86.8111 99.945 86.8111C100.173 86.8111 100.416 86.702 100.669 86.4839C100.921 86.2659 101.209 85.9239 101.531 85.453L102.225 85.339C102.745 86.1073 103.008 86.8705 103.008 87.6338C103.008 88.3971 102.76 89.0166 102.26 89.4875C101.759 89.9583 101.08 90.1913 100.223 90.1913C99.0925 90.1913 98.1707 89.765 97.452 88.9175C96.7333 88.07 96.1584 86.7863 95.7173 85.0763L96.5945 84.8384C96.9762 86.3551 97.4421 87.4802 97.9972 88.2137C98.5523 88.9472 99.2759 89.314 100.173 89.314C100.773 89.314 101.249 89.1653 101.6 88.858C101.952 88.5557 102.126 88.1542 102.126 87.6487C102.126 87.1431 102.022 86.7565 101.809 86.4195C101.501 86.8408 101.189 87.158 100.877 87.3563C100.56 87.5595 100.252 87.6586 99.955 87.6586C99.6576 87.6586 99.4097 87.5942 99.2016 87.4603C98.9934 87.3265 98.8447 87.1481 98.7555 86.9201C98.6663 86.6921 98.6217 86.3848 98.6217 85.9883V84.0702H95.2662V83.2425H101.283C101.268 82.9154 101.189 82.6824 101.05 82.5486C100.907 82.4148 100.679 82.3454 100.361 82.3454H98.7357C98.0121 82.3454 97.4916 82.2661 97.1695 82.1025C96.8473 81.9439 96.6094 81.7258 96.4607 81.4582C96.312 81.1905 96.2377 80.8684 96.2377 80.4867C96.2377 80.3083 96.2575 80.1051 96.3021 79.8672L97.1596 79.9217C97.1249 80.0952 97.11 80.2439 97.11 80.3628C97.11 80.6404 97.1596 80.8684 97.2636 81.0369C97.3677 81.2054 97.5263 81.3244 97.7395 81.3987C97.9526 81.4681 98.2648 81.5028 98.6812 81.5028H100.123C100.589 81.5028 100.961 81.5474 101.234 81.6366C101.511 81.7258 101.724 81.8943 101.878 82.1422C102.032 82.39 102.116 82.7518 102.136 83.2326H103.791V84.0603H99.5287V86.137L99.5138 86.1568Z" fill="black"/>
<path d="M107.791 83.2515V84.0792H107.553C107.181 84.1684 106.8 84.3865 106.408 84.7235C106.017 85.0605 105.704 85.467 105.481 85.9428C105.258 86.4186 105.144 86.9142 105.144 87.4346C105.144 88.1583 105.298 88.7084 105.6 89.095C105.903 89.4767 106.289 89.67 106.76 89.67C106.948 89.67 107.112 89.6501 107.256 89.6055C107.394 89.5609 107.543 89.4965 107.697 89.4023L108.103 90.116C107.731 90.3936 107.271 90.5274 106.72 90.5274C106.235 90.5274 105.803 90.3985 105.427 90.1458C105.045 89.893 104.753 89.5312 104.545 89.0653C104.336 88.5994 104.227 88.0591 104.227 87.4545C104.227 86.7457 104.386 86.0915 104.708 85.4967C105.03 84.9019 105.481 84.4162 106.056 84.0494C105.798 84.0693 105.506 84.0841 105.174 84.0841H103.543V83.2564H107.796L107.791 83.2515Z" fill="black"/>
<path d="M107.553 84.0792V83.2515H114.794V84.0792H109.516V87.1273C109.987 86.6416 110.522 86.2055 111.136 85.8189C111.746 85.4372 112.43 85.1051 113.188 84.8226L113.942 85.571C113.729 85.9725 113.57 86.3641 113.476 86.7507C113.382 87.1373 113.332 87.5833 113.332 88.0839C113.332 88.4556 113.362 88.8224 113.426 89.1694C113.486 89.5213 113.59 89.9128 113.734 90.344L112.861 90.5472C112.569 89.5907 112.425 88.7035 112.425 87.8807C112.425 87.509 112.46 87.1373 112.534 86.7804C112.608 86.4235 112.713 86.1113 112.841 85.8585C112.271 86.1063 111.692 86.4483 111.102 86.8746C110.512 87.3058 109.917 87.8212 109.312 88.4309L108.629 87.965V84.0643H107.558L107.553 84.0792Z" fill="black"/>
<path d="M114.556 83.2515H117.753V84.0792H117.342C117.079 84.3072 116.876 84.5451 116.732 84.7929C116.588 85.0358 116.514 85.4025 116.514 85.8883C116.514 86.1559 116.578 86.5722 116.707 87.1373C116.836 87.7023 116.901 88.1731 116.901 88.5548C116.901 89.0702 116.811 89.4965 116.628 89.8236C116.445 90.1507 116.177 90.4184 115.825 90.6216C115.473 90.8248 115.052 90.9784 114.566 91.0825L114.318 90.2796C114.636 90.2052 114.908 90.1111 115.141 89.9971C115.369 89.888 115.548 89.7592 115.662 89.6253C115.78 89.4866 115.865 89.3379 115.914 89.1694C115.964 89.0058 115.989 88.7877 115.989 88.5201C115.989 88.1731 115.924 87.7271 115.795 87.1819C115.666 86.6317 115.602 86.2104 115.602 85.913C115.602 85.5066 115.657 85.1696 115.761 84.9019C115.865 84.6293 116.038 84.3567 116.281 84.0841H114.561V83.2564L114.556 83.2515Z" fill="black"/>
<path d="M119.632 90.4784H118.74V85.0363C118.631 84.729 118.482 84.4961 118.289 84.3325C118.1 84.169 117.877 84.0847 117.624 84.0847H117.52V83.257H117.709C117.912 83.257 118.11 83.3214 118.308 83.4503C118.502 83.5792 118.66 83.7576 118.784 83.9856C118.759 83.8022 118.745 83.594 118.745 83.3561V82.4888H119.364L119.627 83.252H120.856V84.0798H119.637V90.4735L119.632 90.4784Z" fill="black"/>
<path d="M127.25 84.0797V90.4734H126.358V85.9383C125.842 85.2345 125.391 84.7389 125.004 84.4514C124.618 84.1639 124.211 84.0202 123.78 84.0202C123.468 84.0202 123.181 84.0946 122.923 84.2432C122.665 84.3919 122.402 84.6596 122.14 85.0412C122.417 84.8925 122.784 84.8182 123.24 84.8182C123.696 84.8182 124.073 84.952 124.34 85.2197C124.608 85.4873 124.742 85.8095 124.742 86.1911C124.742 86.6421 124.588 87.0486 124.286 87.4054C123.983 87.7672 123.503 88.1241 122.843 88.476L122.254 87.6334C122.784 87.4153 123.176 87.1923 123.428 86.9643C123.681 86.7363 123.81 86.4934 123.81 86.2407C123.81 86.0573 123.741 85.9135 123.602 85.7995C123.463 85.6905 123.28 85.631 123.047 85.631C122.863 85.631 122.69 85.6509 122.521 85.6955C122.353 85.7351 122.15 85.8144 121.922 85.9235L120.985 85.1651C121.371 84.4911 121.788 83.9905 122.234 83.6634C122.68 83.3362 123.166 83.1727 123.691 83.1727C124.216 83.1727 124.658 83.2966 125.084 83.5444C125.51 83.7922 125.946 84.1887 126.397 84.7339C126.397 84.6348 126.387 84.501 126.372 84.3275C126.363 84.154 126.358 83.936 126.358 83.6832V82.4937H126.972L127.24 83.2569H128.469V84.0846H127.25V84.0797Z" fill="black"/>
</g>
<defs>
<clipPath id="clip0_2516_72626">
<rect width="184" height="92.7682" fill="white" transform="translate(0 0.615723)"/>
</clipPath>
</defs>
</svg>
