<svg width="184" height="98" viewBox="0 0 184 98" fill="none" xmlns="http://www.w3.org/2000/svg">
<g clip-path="url(#clip0_2516_73212)">
<path d="M3.09551 41.296H2.2871C1.74499 41.296 1.23141 41.0856 0.741601 40.6649C0.251796 40.2441 0.0045166 39.6656 0.0045166 38.9246C0.0045166 38.2361 0.251796 37.6767 0.741601 37.2607C1.23141 36.84 1.74974 36.6296 2.2871 36.6296H3.09551V41.296ZM3.09551 36.6296H3.53777C3.73274 35.989 4.19876 35.3483 4.93585 34.7028C5.67293 34.0622 6.45757 33.7418 7.29452 33.7418H7.44193C7.83663 33.7418 8.27413 33.8518 8.76869 34.0765C9.25849 34.2965 9.71501 34.6216 10.1335 35.0375C10.552 35.4583 10.8943 35.989 11.1654 36.6296C11.4365 37.2703 11.5696 38.0353 11.5696 38.9246C11.2748 41.7884 11.0798 44.2698 10.9799 46.3687C10.8801 48.4677 10.8183 50.294 10.7945 51.8479C10.7707 53.4018 10.7707 54.6974 10.7945 55.7349C10.8183 56.7724 10.804 57.6617 10.7564 58.4028C10.8563 58.6992 10.9039 58.9717 10.9039 59.2156V59.4355C10.9039 59.4833 10.8896 59.6076 10.8658 59.8036C10.842 59.9997 10.804 60.2961 10.7564 60.6929V61.1376C12.6205 57.4848 14.0329 54.3006 14.9935 51.5849C15.9493 48.8693 16.4296 46.7943 16.4296 45.3647C16.4296 42.7495 15.0315 39.4648 12.2306 35.5156C8.15524 29.8883 6.13896 25.4944 6.19127 22.3341V21.5931C6.19127 18.581 7.16137 15.7936 9.10156 13.2261C11.0418 10.6587 13.5574 8.42589 16.6531 6.52301C19.7489 4.62491 23.2346 3.14277 27.115 2.08137C30.9953 1.01996 34.8472 0.489258 38.68 0.489258H40.3016C42.9028 0.489258 45.5325 0.847841 48.1813 1.56501C50.8348 2.28217 53.2267 3.31967 55.3619 4.67751C57.4971 6.03534 59.228 7.71351 60.5548 9.71201C61.8815 11.7105 62.5425 13.9959 62.5425 16.5633C62.5425 17.7969 62.2858 19.0925 61.7674 20.4504C61.2538 21.8082 60.6023 23.1039 59.8177 24.3374C59.0331 25.5709 58.1343 26.6562 57.1309 27.5981C56.1228 28.5352 55.1527 29.2046 54.2206 29.5966C50.1928 31.7194 46.3647 32.7808 42.7316 32.7808C42.3369 32.733 42.004 32.7091 41.7377 32.7091H40.7439C40.7439 32.7569 40.6963 32.7808 40.5965 32.7808H40.3777C39.8879 32.7808 39.2126 32.6565 38.3519 32.4127C37.4912 32.1641 36.5734 31.7959 35.589 31.3035C34.6047 30.811 33.6488 30.2038 32.7168 29.4914C31.7847 28.7743 31.0239 27.9232 30.4342 26.9383C29.155 25.853 28.1754 24.9255 27.4859 24.1605C26.7963 23.3955 26.2828 22.731 25.9404 22.162C25.598 21.5931 25.3887 21.0624 25.3127 20.5699C25.2413 20.0774 25.1748 19.5324 25.1272 18.9395C25.5695 16.5681 26.6489 15.3824 28.3704 15.3824H28.5178C30.0395 15.3824 31.3187 16.4916 32.3459 18.7148L33.0069 22.4919C33.7915 24.9111 34.4049 26.1208 34.8472 26.1208C37.301 27.8515 40.0781 28.7121 43.1691 28.7121H43.6827C45.252 28.7121 46.8593 28.4157 48.5094 27.8228C50.1548 27.23 51.6622 26.4268 53.0413 25.4179C54.4156 24.4043 55.5331 23.2234 56.3938 21.8608C57.2546 20.503 57.6825 19.083 57.6825 17.6008V16.1952C57.6825 15.4063 57.4638 14.4931 57.0215 13.4556C56.5793 12.4181 56.0134 11.395 55.3286 10.3814C54.6391 9.36777 53.902 8.45458 53.1174 7.64179C52.3327 6.829 51.6194 6.1979 50.9822 5.75325C46.4646 2.88937 41.6759 1.45982 36.621 1.45982H36.3261C34.6047 1.45982 32.5694 1.65585 30.2107 2.05268C27.852 2.44951 25.5076 3.09018 23.1775 3.97947C20.8426 4.86875 18.6694 6.03056 16.6579 7.46011C14.6416 8.89444 13.1246 10.6443 12.0927 12.7193C10.9609 14.9904 10.3998 16.8932 10.3998 18.4232V19.9053C10.3998 21.1914 10.5472 22.3485 10.842 23.386C11.1369 24.4235 11.6172 25.5709 12.2782 26.8284C12.9392 28.0858 13.8379 29.5823 14.9649 31.3083C16.092 33.039 17.5186 35.1857 19.2353 37.7532C21.594 41.406 22.7685 44.4659 22.7685 46.9377V47.3058C22.7685 49.3808 22.0552 51.8001 20.6334 54.5636C19.5016 57.327 18.5077 59.7845 17.6517 61.9312C16.791 64.078 16.0539 66.0526 15.4405 67.855C14.827 69.6575 14.2992 71.3596 13.8569 72.966C13.4147 74.5725 13.0723 76.2124 12.825 77.8906L11.7218 90.4792C11.7693 90.8761 11.7979 91.1821 11.7979 91.4068V91.8896C11.7979 92.4825 11.6885 93.0849 11.465 93.7017C11.2462 94.3185 10.9134 94.8874 10.4711 95.4038C10.0289 95.9201 9.48675 96.3409 8.84953 96.6612C8.21231 96.9815 7.47522 97.1441 6.63827 97.1441H6.56219C5.3353 97.1441 4.21778 96.7616 3.20964 95.9966C2.2015 95.2316 1.57855 93.9838 1.33127 92.2578V91.5167C1.33127 91.3207 1.4026 90.9382 1.55002 90.3693C1.69743 89.8003 1.8924 88.9971 2.13968 87.9644C3.21915 82.533 3.76127 75.7964 3.76127 67.7451V66.3394C3.71371 62.9353 3.66141 59.7128 3.61385 56.6768C3.5663 53.6408 3.50448 50.9873 3.42839 48.7163C3.35231 46.4452 3.28097 44.6428 3.20964 43.3088C3.13831 41.9749 3.04796 41.3103 2.95285 41.3103H2.87677L3.09551 36.644V36.6296ZM17.899 36.6296H26.8106C27.348 36.6296 27.8663 36.84 28.3561 37.2607C28.8459 37.6815 29.0932 38.2361 29.0932 38.9246C29.0932 39.6656 28.8459 40.2441 28.3561 40.6649C27.8663 41.0856 27.348 41.296 26.8106 41.296H17.899V36.6296Z" fill="#ED1E79"/>
<path d="M26.8867 41.2967C26.3446 41.2967 25.831 41.0864 25.3412 40.6656C24.8514 40.2449 24.6041 39.6664 24.6041 38.9253C24.6041 38.2368 24.8514 37.6774 25.3412 37.2615C25.831 36.8407 26.3494 36.6304 26.8867 36.6304H71.0832C71.6206 36.6304 72.1389 36.8407 72.6287 37.2615C73.1185 37.6822 73.3658 38.2368 73.3658 38.9253C73.3658 39.6664 73.1185 40.2449 72.6287 40.6656C72.1389 41.0864 71.6206 41.2967 71.0832 41.2967H51.5624C53.184 43.1231 53.9924 44.9017 53.9924 46.6277C53.9924 47.4691 53.8069 48.2963 53.4408 49.1091C53.0746 49.9218 52.5325 50.6534 51.8192 51.294C51.1059 51.9347 50.2737 52.4415 49.3131 52.8144C48.3573 53.1826 47.2873 53.369 46.108 53.369C44.7337 53.369 43.3594 52.824 41.985 51.7387C42.0326 52.1833 42.18 52.7284 42.4273 53.369C42.6746 54.0097 43.0027 54.6408 43.4212 55.2576C43.8396 55.8743 44.3675 56.3955 45.0047 56.8114C45.6419 57.2322 46.4028 57.4425 47.2873 57.4425H47.877C48.4666 57.4425 49.0087 57.2082 49.4985 56.7397C49.9884 56.2712 50.4449 55.7261 50.8633 55.1093C51.2818 54.4926 51.6718 53.8519 52.0427 53.1826C52.4136 52.5132 52.7417 51.9586 53.0366 51.514C53.8687 50.2326 54.8912 49.2907 56.0943 48.6979C57.2974 48.105 58.315 47.8086 59.152 47.8086H59.6656C61.0399 47.8086 62.2049 48.0955 63.1655 48.6596C64.1213 49.2286 64.9202 49.9314 65.5575 50.7681C66.1947 51.6096 66.7083 52.5228 67.103 53.5077C67.4977 54.4974 67.7782 55.4345 67.9494 56.3237C68.1206 57.213 68.23 57.9637 68.2823 58.5804C68.3299 59.1972 68.3536 59.5558 68.3536 59.6562V60.249C68.3536 62.324 68.0588 64.2365 67.4691 65.9911C66.8795 67.7458 65.9569 69.2614 64.7063 70.5475C63.4556 71.8336 61.8578 72.8329 59.9176 73.5453C57.9774 74.2624 55.6568 74.621 52.9557 74.621C50.8919 74.621 48.6711 74.4346 46.2887 74.0664C43.9062 73.6983 41.5999 73.0528 39.3648 72.1396C37.1298 71.2264 35.0422 70.0168 33.102 68.5108C31.1618 67.0047 29.602 65.1162 28.4227 62.8452C26.3113 58.7478 25.2556 55.3149 25.2556 52.5515C25.2556 51.514 25.7454 50.2087 26.7298 48.6262L27.6856 47.5169C28.028 47.5169 28.1992 47.7895 28.1992 48.3297C28.1992 48.87 28.1849 49.6015 28.1612 50.5147C28.1374 51.4279 28.1612 52.5132 28.2372 53.7754C28.3086 55.0328 28.6034 56.3668 29.1217 57.7724C29.6353 59.1781 30.4247 60.6363 31.4804 62.1423C32.5361 63.6484 34.0198 65.1401 35.9362 66.6222C38 68.2048 40.0829 69.3523 42.199 70.0646C44.3104 70.7818 46.2031 71.1404 47.8722 71.1404H49.199C50.5733 71.1404 52.0094 70.9205 53.5073 70.4758C55.0053 70.0312 56.3653 69.4001 57.597 68.5873C58.8239 67.7745 59.832 66.7609 60.6166 65.5513C61.4013 64.3417 61.796 62.9456 61.796 61.3678C61.796 60.0339 61.4013 58.8243 60.6166 57.7389C59.4849 58.8243 58.6003 59.7518 57.9631 60.5168C57.3259 61.2817 56.7362 61.9368 56.1941 62.477C55.652 63.0173 55.0623 63.4906 54.4251 63.8827C53.7879 64.2795 52.9034 64.6716 51.7716 65.0684C51.2295 65.1688 50.7397 65.2548 50.2975 65.3266C49.8552 65.4031 49.4367 65.4365 49.0468 65.4365C47.5251 65.4365 45.9177 65.0923 44.2201 64.399C42.5272 63.7105 40.9531 62.7352 39.5075 61.473C38.0571 60.2156 36.8683 58.7095 35.9362 56.9548C35.0041 55.205 34.5381 53.2877 34.5381 51.2175C34.5381 48.3536 35.2752 45.6141 36.7494 42.9988L38.0761 41.2967H26.882H26.8867Z" fill="#ED1E79"/>
<path d="M105.408 36.6306C105.945 36.6306 106.463 36.841 106.953 37.2617C107.443 37.6825 107.69 38.2371 107.69 38.9256C107.69 39.6666 107.443 40.2451 106.953 40.6659C106.463 41.0866 105.945 41.297 105.408 41.297L101.432 41.3687V42.1098C101.432 41.9616 101.394 42.3058 101.323 43.1473C101.247 43.9887 101.175 45.1362 101.104 46.5897C101.028 48.0479 100.933 49.7022 100.809 51.5525C100.686 53.4027 100.562 55.253 100.443 57.1081C100.319 58.9584 100.224 60.6987 100.148 62.3291C100.077 63.9594 100.01 65.2933 99.9628 66.3261C100.01 66.7229 100.034 67.0576 100.034 67.3253V67.8799C99.9343 68.7214 99.8487 69.4481 99.7773 70.0649C99.7013 70.6817 99.668 71.1884 99.668 71.5853V75.2141L99.9628 76.8445C100.01 76.9927 100.034 77.2174 100.034 77.5091C99.9866 78.298 99.9485 78.9052 99.9248 79.3211C99.901 79.7419 99.8867 80 99.8867 80.1004C99.9343 80.349 100.072 80.8272 100.291 81.5443C100.51 82.2615 100.743 83.036 100.99 83.8775C101.237 84.7142 101.442 85.5796 101.618 86.4689C101.789 87.3582 101.874 88.1231 101.874 88.7638C101.874 90.3416 101.361 91.6133 100.329 92.5791C99.297 93.5401 98.2176 94.023 97.0858 94.023H96.3487C95.9065 94.023 95.4166 93.913 94.8745 93.6883C94.3324 93.4684 93.8283 93.1337 93.3671 92.6891C92.9011 92.2444 92.5206 91.7137 92.2258 91.097C91.931 90.4802 91.7835 89.7774 91.7835 88.9837C91.7835 88.7351 91.8929 88.1088 92.1164 87.0952C92.3352 86.0816 92.4493 84.8098 92.4493 83.2799V82.3189C92.4493 82.0224 92.2781 81.4822 91.9357 80.6885C91.5933 79.8996 91.1606 79.0582 90.647 78.1689C90.1334 77.2796 89.5295 76.4429 88.8447 75.6492C88.1552 74.8603 87.4942 74.3153 86.857 74.0189C86.3148 73.7702 85.8393 73.5647 85.4208 73.3878C85.0024 73.2156 84.5982 73.1535 84.2035 73.2013H83.5425C83.1478 73.2013 82.696 73.3017 82.1777 73.4977C81.6641 73.6937 81.1838 73.9185 80.7415 74.1623C80.2993 74.4109 79.9331 74.6787 79.6383 74.9751C79.3435 75.2715 79.196 75.5201 79.196 75.7162C80.4705 76.3568 81.626 77.3704 82.658 78.7522C83.6899 80.1339 84.2035 81.6638 84.2035 83.342V83.7102C84.2035 84.5994 83.9942 85.3883 83.5757 86.0816C83.1573 86.7749 82.6675 87.3629 82.1016 87.8602C81.5357 88.3526 80.9603 88.7255 80.3706 88.9694C79.781 89.218 79.3149 89.3375 78.9725 89.3375H78.3115C77.3795 89.3375 76.4427 89.1272 75.5106 88.7064C74.5786 88.2857 73.7416 87.6546 73.0045 86.8179C72.2675 85.9764 71.6683 84.9676 71.2022 83.7819C70.7362 82.5962 70.5032 81.2144 70.5032 79.6367V79.4167C70.5032 75.6158 71.459 72.5558 73.3755 70.2322H73.4515C74.0412 70.6769 74.531 71.0116 74.9257 71.2315C75.3204 71.4514 75.7008 71.614 76.067 71.7144C76.4332 71.8148 76.8279 71.8769 77.2463 71.9008C77.6648 71.9247 78.2164 71.963 78.906 72.0108C79.6906 72.0108 80.4419 71.853 81.1505 71.5279C81.8638 71.2076 82.4868 70.7868 83.0289 70.2705C83.571 69.7541 84.0085 69.1469 84.3556 68.4584C84.698 67.77 84.8692 67.0528 84.8692 66.3117V65.3507C84.8692 65.2503 84.9168 65.2025 85.0166 65.2025C86.3909 65.3985 87.7177 65.8432 88.9921 66.5364C90.2666 67.2297 91.6694 68.315 93.1911 69.7972V69.7254C93.1911 69.4768 93.1769 69.1087 93.1531 68.6162C93.1293 68.1238 93.0913 67.5309 93.0437 66.8376L93.1911 65.8001C92.8963 64.4662 92.454 63.1849 91.8644 61.9514C91.2747 60.7178 90.5994 59.6182 89.8386 58.6572C89.0777 57.6962 88.2408 56.9169 87.3325 56.324C86.4242 55.7311 85.4779 55.4347 84.4983 55.4347H83.6138C82.9243 55.4347 82.1396 55.6929 81.2551 56.214C80.3706 56.7304 79.7572 57.3137 79.4148 57.9544C81.1315 58.7432 82.4107 59.905 83.2429 61.435C84.0751 62.965 84.4935 64.4232 84.4935 65.8049C84.4935 66.3978 84.3461 67.0289 84.0513 67.6935C83.7565 68.358 83.3618 68.9891 82.872 69.582C82.3821 70.1749 81.7925 70.6577 81.103 71.0259C80.4134 71.394 79.7049 71.5805 78.9678 71.5805H78.8917C76.6329 71.5805 74.707 70.7295 73.1092 69.0274C71.5113 67.3253 70.7172 64.9156 70.7172 61.8079C70.7172 60.0294 70.9883 58.2651 71.5256 56.5105C72.063 54.7606 72.8761 53.2019 73.9556 51.8441C75.0351 50.4863 76.3856 49.3866 78.0072 48.5499C79.6288 47.7132 81.4929 47.2925 83.6043 47.2925C87.09 47.2925 90.2333 48.7268 93.0342 51.5859C93.2292 51.7819 93.329 51.9063 93.329 51.9541L93.4765 51.8823C93.329 51.4377 93.2434 50.362 93.2197 48.6599C93.1959 46.9578 93.1103 44.7968 92.9629 42.1815V41.2922H71.1594C70.6173 41.2922 70.1038 41.0818 69.6139 40.6611C69.1241 40.2404 68.8769 39.6618 68.8769 38.9208C68.8769 38.2323 69.1241 37.6729 69.6139 37.257C70.1038 36.8362 70.6221 36.6258 71.1594 36.6258H94.2135C94.3134 36.6258 94.4846 36.4059 94.7271 35.9613C95.8541 34.3835 96.6673 33.5898 97.1571 33.5898H97.2332C98.0654 33.8385 99.026 34.8473 100.105 36.6258H105.408V36.6306Z" fill="#ED1E79"/>
<path d="M105.479 41.2967C104.937 41.2967 104.423 41.0864 103.933 40.6656C103.444 40.2449 103.196 39.6664 103.196 38.9253C103.196 38.2368 103.444 37.6774 103.933 37.2615C104.423 36.8407 104.942 36.6304 105.479 36.6304H153.432C153.974 36.6304 154.488 36.8407 154.978 37.2615C155.468 37.6822 155.715 38.2368 155.715 38.9253C155.715 39.6664 155.468 40.2449 154.978 40.6656C154.488 41.0864 153.97 41.2967 153.432 41.2967H139.879L141.796 42.3342C142.043 42.4824 142.485 42.8171 143.123 43.3335C143.76 43.8498 144.449 44.4714 145.186 45.1838C145.923 45.9009 146.608 46.6181 147.25 47.3305C147.887 48.0477 148.33 48.6501 148.577 49.1425C148.919 49.7832 149.214 50.486 149.461 51.251C149.709 52.016 149.927 52.7809 150.122 53.5459C150.317 54.3109 150.465 55.0663 150.565 55.8026C150.665 56.5437 150.712 57.2082 150.712 57.8011V58.394C150.712 58.7382 150.688 59.0346 150.641 59.2832C150.688 59.3311 150.712 59.4076 150.712 59.5032C150.417 61.822 149.961 63.6245 149.347 64.9106C148.734 66.1967 148.13 67.2581 147.545 68.0948C145.824 70.5667 144.121 72.4026 142.424 73.6122C140.731 74.8218 139.171 75.6633 137.744 76.1319C136.318 76.6004 135.057 76.8347 133.949 76.8347H131.481C128.88 76.8347 126.388 76.4283 124.006 75.6107C121.623 74.7979 119.412 73.7222 117.377 72.3883C115.337 71.0543 113.482 69.5626 111.813 67.9084C110.144 66.2541 108.722 64.6142 107.543 62.9838C106.363 61.3535 105.455 59.7996 104.818 58.3175C104.181 56.8353 103.862 55.6018 103.862 54.6169C103.862 53.2351 104.181 51.7291 104.818 50.0987H104.894C105.579 52.1737 106.145 53.8376 106.587 55.0998C107.029 56.3572 107.386 57.3469 107.657 58.0641C107.928 58.7812 108.137 59.3119 108.285 59.6562C108.432 60.0004 108.603 60.3112 108.798 60.5837C108.993 60.8562 109.226 61.1527 109.497 61.473C109.768 61.7933 110.125 62.3001 110.567 62.9934C115.475 68.6733 121.053 71.5085 127.287 71.5085C131.263 71.5085 134.924 70.1746 138.263 67.5115C139.147 66.6748 139.856 65.8955 140.398 65.1784C140.935 64.4612 141.368 63.7584 141.686 63.0651C142.005 62.3766 142.214 61.6451 142.314 60.8801C142.414 60.1152 142.462 59.2402 142.462 58.2505C142.462 56.8688 142.229 55.5588 141.762 54.3252C141.296 53.0917 140.659 51.9921 139.846 51.0311C139.033 50.0701 138.091 49.3051 137.012 48.7361C135.932 48.1672 134.777 47.8851 133.55 47.8851C133.255 47.8851 132.898 47.9329 132.48 48.0333C132.062 48.1337 131.672 48.2676 131.301 48.4397C130.934 48.6118 130.602 48.7983 130.307 48.9943C130.012 49.1903 129.841 49.3911 129.793 49.5872H129.869C131.144 50.1322 132.323 51.0693 133.403 52.4032C134.482 53.7372 135.024 55.2193 135.024 56.8449V57.0648C135.024 58.1023 134.886 59.202 134.62 60.359C134.349 61.5208 133.907 62.6061 133.293 63.6197C132.68 64.6333 131.881 65.4843 130.901 66.1728C129.917 66.8661 128.69 67.2581 127.221 67.3585C126.189 67.3585 125.18 67.1004 124.201 66.5792C123.217 66.0629 122.337 65.3218 121.547 64.356C120.763 63.395 120.121 62.2188 119.631 60.8371C119.141 59.4554 118.894 57.9015 118.894 56.1707C118.894 55.2337 118.97 54.2201 119.113 53.1347C119.26 52.0494 119.455 50.988 119.702 49.9505C119.95 48.913 120.24 47.9377 120.587 47.0245C120.929 46.1113 121.3 45.332 121.69 44.6913C122.227 43.9502 123.53 42.8171 125.594 41.2872H105.484L105.479 41.2967Z" fill="#ED1E79"/>
<path d="M154.83 36.63C155.272 35.8889 155.81 35.2865 156.452 34.8179C157.089 34.3494 157.778 34.1151 158.515 34.1151C159.105 34.1151 159.571 34.2012 159.914 34.3733C160.256 34.5454 160.575 34.794 160.869 35.1144C161.164 35.4347 161.459 35.8172 161.754 36.2618C162.049 36.7065 162.467 37.175 163.005 37.6675C163.252 38.2603 163.371 38.705 163.371 39.0014C163.371 39.4939 163.152 40.0389 162.71 40.6318C162.267 44.8774 162.049 48.7023 162.049 52.1112V56.9975C163.028 51.9152 164.464 47.1723 166.357 42.7785C168.245 38.3846 170.789 34.139 173.98 30.0416C175.012 28.8559 175.896 27.9188 176.633 27.2255C177.371 26.5371 178.032 26.0159 178.621 25.6717C179.211 25.3274 179.763 25.1027 180.281 25.0071C180.794 24.9067 181.322 24.8589 181.864 24.8589H182.307C183.091 24.8589 183.657 25.031 184 25.3752C183.752 26.1163 183.386 26.7474 182.896 27.2638C182.407 27.7801 181.765 28.3156 180.98 28.8559C180.195 29.4009 179.249 30.0416 178.146 30.7827C177.042 31.5237 175.801 32.5134 174.427 33.747C172.216 35.9702 171.065 37.2515 170.965 37.5958C170.18 38.6333 169.453 39.6564 168.792 40.67C168.131 41.6836 167.479 42.855 166.842 44.1889C166.205 45.5228 165.577 47.091 164.964 48.8935C164.35 50.696 163.723 52.9048 163.085 55.5201C162.691 56.9544 162.424 58.1115 162.277 59.0008C162.13 59.89 162.03 60.5307 161.982 60.9275V63.2225C161.982 63.5189 161.958 63.7914 161.911 64.0353C161.911 68.0323 161.935 71.4555 161.982 74.2907C162.03 77.1307 162.092 79.5117 162.168 81.4385C162.239 83.3653 162.301 84.9048 162.353 86.0666C162.401 87.2236 162.453 88.1033 162.5 88.6962C162.548 89.2891 162.624 89.7576 162.719 90.1018C162.819 90.4461 162.876 90.7808 162.905 91.1011C162.928 91.4214 162.967 91.78 163.014 92.1768C162.767 94.1036 162.144 95.471 161.136 96.2886C160.128 97.1014 158.986 97.5126 157.712 97.5126C156.437 97.5126 155.32 97.044 154.212 96.1069C153.109 95.1698 152.557 93.9076 152.557 92.3298V92.0334C152.557 91.737 152.581 91.4884 152.628 91.2923C152.676 91.0963 152.752 90.8477 152.847 90.5513C152.947 90.2548 153.056 89.858 153.18 89.3656C153.304 88.8731 153.451 88.1416 153.622 87.1806C153.793 86.2196 153.965 84.9717 154.136 83.4418C154.307 81.9118 154.492 79.985 154.687 77.6662C154.787 76.2845 154.859 74.7402 154.906 73.0381C154.954 71.336 154.982 69.4475 154.982 67.3725C154.935 64.0639 154.873 60.808 154.797 57.5951C154.725 54.387 154.687 51.2028 154.687 48.0425L154.321 41.3011H153.513C152.971 41.3011 152.457 41.0907 151.967 40.67C151.478 40.2493 151.23 39.6708 151.23 38.9297C151.23 38.2412 151.478 37.6818 151.967 37.2659C152.457 36.8451 152.975 36.6347 153.513 36.6347H154.84L154.83 36.63Z" fill="#ED1E79"/>
<path d="M69.6426 32.0684C69.3383 31.4612 68.8722 30.9353 68.2445 30.4955C68.0638 30.7393 67.826 30.9258 67.5265 31.0501C67.2316 31.1744 66.8892 31.2413 66.5088 31.2413C65.786 31.2413 65.1678 30.9736 64.659 30.4429C64.1501 29.9074 63.7126 29.1089 63.3512 28.038L64.017 27.8133C64.3356 28.7599 64.6922 29.4532 65.0822 29.893C65.4721 30.3329 65.9524 30.5528 66.5278 30.5528C66.9701 30.5528 67.3077 30.4429 67.5455 30.2277C67.7832 30.0126 67.9069 29.7305 67.9069 29.3815C67.9069 29.0133 67.807 28.7169 67.612 28.4922C67.4171 28.2675 67.1555 28.1527 66.8369 28.1527C66.6562 28.1527 66.5183 28.1957 66.428 28.277C66.3376 28.3583 66.2948 28.4683 66.2948 28.6021C66.2948 28.736 66.3329 28.8747 66.3994 28.999L65.7147 29.1615C65.61 28.9416 65.5577 28.7217 65.5577 28.5017C65.5577 28.3009 65.61 28.1288 65.7099 27.9806C65.8098 27.8324 65.9619 27.7176 66.1617 27.6364C66.0523 27.3591 65.824 27.1678 65.4769 27.0531H63.0041V26.4028H71.2927V27.0531H70.3416V32.078H69.6474L69.6426 32.0684ZM68.5298 29.9169C68.7629 30.0699 68.9816 30.2468 69.1861 30.4572C69.3906 30.6676 69.5522 30.8684 69.6711 31.074C69.6521 30.8349 69.6426 30.5767 69.6426 30.2994V27.0483H66.5516C66.7038 27.1774 66.8132 27.3304 66.875 27.5168C67.4028 27.5407 67.8213 27.7272 68.1304 28.0762C68.4442 28.4252 68.5964 28.8651 68.5964 29.3862C68.5964 29.5631 68.5726 29.74 68.5251 29.9217L68.5298 29.9169Z" fill="black"/>
<path d="M76.6283 28.6593L76.5284 28.0091C76.7614 27.9469 77.0135 27.9135 77.2798 27.9135C77.6507 27.9135 77.936 28.0234 78.1357 28.2434C78.3355 28.4633 78.4401 28.7836 78.4401 29.1948C78.4401 29.4195 78.402 29.6394 78.3307 29.8594C78.2594 30.0793 78.1452 30.2945 78.0026 30.5096V33.8038H77.3226C77.2465 33.5265 77.1228 33.3257 76.9564 33.2014C76.79 33.0771 76.5712 33.0101 76.3002 33.0101C76.1432 33.0101 75.8959 33.034 75.5583 33.0866C75.2207 33.1392 74.9591 33.1679 74.7689 33.1679C74.2744 33.1679 73.8797 33.0245 73.5896 32.7328C73.2995 32.4412 73.1473 32.0204 73.1473 31.4658C73.1473 31.1933 73.1806 30.916 73.252 30.6291L73.9462 30.7152C73.8844 30.9782 73.8511 31.2316 73.8511 31.4802C73.8511 31.8196 73.9272 32.0778 74.0746 32.2547C74.2221 32.4268 74.4646 32.5177 74.7927 32.5177C74.9496 32.5177 75.1684 32.489 75.4442 32.4364C75.7152 32.3838 75.934 32.3599 76.0957 32.3599C76.6568 32.3599 77.061 32.5225 77.3035 32.8524V31.7479C77.3035 31.614 77.3035 31.4371 77.3178 31.2172C77.1038 31.3845 76.8756 31.5089 76.6425 31.5901C76.4095 31.6714 76.167 31.7144 75.915 31.7144C75.6392 31.7144 75.4109 31.6666 75.2254 31.571C75.04 31.4754 74.8926 31.332 74.7784 31.1407C74.6691 30.9495 74.612 30.653 74.612 30.2514V29.3574C74.3504 29.0657 74.0889 28.8362 73.8274 28.6737C73.5658 28.5111 73.3185 28.4298 73.0903 28.4298C72.862 28.4298 72.6956 28.4872 72.5672 28.5972C72.4388 28.7071 72.3722 28.8601 72.3722 29.0562C72.3722 29.2187 72.4245 29.3574 72.5339 29.4769C72.6385 29.5916 72.805 29.6968 73.0332 29.7924L72.7098 30.4427C72.3627 30.2897 72.0916 30.0937 71.9062 29.8498C71.7207 29.606 71.6256 29.3287 71.6256 29.0275C71.6256 28.645 71.754 28.3438 72.0156 28.1143C72.2771 27.8848 72.5814 27.7748 72.9429 27.7748C73.2424 27.7748 73.5278 27.837 73.7988 27.9708C74.0746 28.0999 74.3504 28.3055 74.6358 28.5924C74.6215 28.4346 74.612 28.2338 74.612 27.99V27.0529H71.1168V26.4026H77.3416C77.3273 26.1445 77.2703 25.9628 77.1561 25.8576C77.0468 25.7524 76.866 25.6998 76.6188 25.6998H75.7628C75.1969 25.6998 74.7879 25.6377 74.5359 25.5086C74.2839 25.3795 74.0984 25.2121 73.9795 25.0018C73.8606 24.7914 73.8036 24.538 73.8036 24.2416C73.8036 24.1029 73.8178 23.9404 73.8511 23.7539L74.5216 23.7969C74.4931 23.9356 74.4836 24.0503 74.4836 24.146C74.4836 24.3659 74.5216 24.5428 74.6072 24.6767C74.6881 24.8105 74.8117 24.9062 74.9782 24.9587C75.1446 25.0113 75.3871 25.04 75.7152 25.04H76.4238C76.7852 25.04 77.0753 25.0735 77.294 25.1452C77.508 25.2169 77.6792 25.346 77.7981 25.542C77.917 25.7381 77.9836 26.0249 77.9978 26.3979H79.006V27.0481H75.3158V30.1128C75.3158 30.3375 75.3301 30.5144 75.3586 30.6435C75.3871 30.7726 75.4489 30.8778 75.5441 30.9543C75.6392 31.0307 75.7771 31.0642 75.9673 31.0642C76.4 31.0642 76.8042 30.8682 77.1799 30.4809C77.5556 30.0937 77.741 29.6729 77.741 29.2187C77.741 29.0036 77.6887 28.8458 77.5841 28.7502C77.4795 28.6545 77.3226 28.6019 77.1086 28.6019C76.9707 28.6019 76.8137 28.6211 76.6378 28.6641L76.6283 28.6593Z" fill="black"/>
<path d="M80.4516 32.0685H79.7573V27.7894C79.6717 27.5504 79.5528 27.3639 79.4054 27.2348C79.258 27.1057 79.082 27.0388 78.8823 27.0388H78.8015V26.3886H78.9489C79.1058 26.3886 79.2628 26.4411 79.4149 26.5415C79.5671 26.642 79.6907 26.7854 79.7858 26.9623C79.7668 26.8189 79.7573 26.6563 79.7573 26.4698V25.7861H80.2424L80.4468 26.3886H81.4074V27.0388H80.4564V32.0637L80.4516 32.0685Z" fill="black"/>
<path d="M84.546 26.3926V27.0428H84.3605C84.0704 27.1145 83.7709 27.2819 83.4665 27.5496C83.1622 27.8173 82.9196 28.1329 82.7437 28.5058C82.5677 28.8788 82.4821 29.2708 82.4821 29.682C82.4821 30.2509 82.601 30.686 82.8388 30.9872C83.0766 31.2884 83.3809 31.4414 83.7471 31.4414C83.8945 31.4414 84.0229 31.4223 84.1323 31.3888C84.2416 31.3554 84.3558 31.3028 84.4794 31.2311L84.798 31.7904C84.5079 32.0056 84.1465 32.1156 83.7185 32.1156C83.3429 32.1156 83.0052 32.0152 82.7056 31.8143C82.4108 31.6135 82.1778 31.3315 82.0161 30.9633C81.8544 30.5952 81.7688 30.1744 81.7688 29.6963C81.7688 29.1369 81.8925 28.6254 82.1445 28.1568C82.3966 27.6883 82.7485 27.3106 83.2002 27.0189C83.0005 27.038 82.7675 27.0476 82.5107 27.0476H81.2362V26.3974H84.5603L84.546 26.3926Z" fill="black"/>
<path d="M90.4476 32.4659H89.7675C89.5916 31.9352 89.254 31.6723 88.7546 31.6723C88.5549 31.6723 88.2553 31.6962 87.8464 31.7488C87.4374 31.8014 87.1188 31.83 86.8905 31.83C86.2153 31.83 85.7064 31.6866 85.364 31.3997C85.0264 31.1129 84.8552 30.6921 84.8552 30.1327C84.8552 29.8507 84.8838 29.626 84.9408 29.4538L85.6351 29.5399C85.5876 29.7024 85.5638 29.9033 85.5638 30.1423C85.5638 30.4913 85.6731 30.7495 85.8871 30.9216C86.1011 31.0938 86.434 31.1798 86.8858 31.1798C87.0665 31.1798 87.3518 31.1511 87.7322 31.0985C88.1127 31.0459 88.4027 31.022 88.6072 31.022C89.1018 31.022 89.4822 31.1846 89.7485 31.5145V28.7701C89.5298 28.4594 89.3491 28.2203 89.2064 28.053L86.8525 30.2953L86.3104 29.7885L86.5909 29.5255C86.7193 29.3391 86.7859 29.1431 86.7859 28.947C86.7859 28.7845 86.7384 28.6602 86.648 28.5741C86.5577 28.4833 86.4245 28.4402 86.2485 28.4402C86.0631 28.4402 85.8776 28.4976 85.6922 28.6076L85.0026 27.9478C85.4354 27.3788 85.8443 26.9677 86.2343 26.7143C86.6242 26.4609 87.0237 26.3318 87.4422 26.3318C87.8606 26.3318 88.2696 26.4417 88.6215 26.6617C88.9734 26.8816 89.3586 27.2689 89.7818 27.8187C89.7628 27.6035 89.7485 27.3262 89.7485 26.982V25.7915H90.2336L90.438 26.3939H91.3986V27.0442H90.4476V32.4659ZM87.3993 28.8897C87.542 28.7367 87.6989 28.5789 87.8701 28.4163L88.7737 27.5605C88.5692 27.3645 88.3647 27.2211 88.165 27.1302C87.9652 27.0394 87.7465 26.9963 87.5135 26.9963C87.2139 26.9963 86.9333 27.0728 86.6718 27.2258C86.4102 27.3788 86.1439 27.6227 85.8776 27.9526C86.0488 27.8665 86.22 27.8235 86.3865 27.8235C86.7051 27.8235 86.9523 27.9143 87.133 28.0912C87.309 28.2681 87.3993 28.512 87.3993 28.8179V28.8897Z" fill="black"/>
<path d="M92.05 26.3928C91.7741 26.0677 91.5839 25.8191 91.4936 25.647C91.8835 24.9394 92.2877 24.4374 92.7014 24.1409C93.1152 23.8445 93.6002 23.6963 94.1566 23.6963C94.6844 23.6963 95.2123 23.8158 95.7449 24.0597C96.2775 24.3035 96.9337 24.7434 97.7136 25.3888L97.3284 25.8813C96.6246 25.3027 96.054 24.9059 95.6117 24.6908C95.1695 24.4708 94.7225 24.3609 94.2612 24.3609C93.8285 24.3609 93.4528 24.4708 93.1342 24.686C92.8156 24.9011 92.5302 25.2501 92.2734 25.7378C92.3638 25.9099 92.5255 26.1251 92.7633 26.388H93.8237V27.0383H92.8726V32.0632H92.1783V27.0383H91.2273V26.388H92.0595L92.05 26.3928Z" fill="black"/>
<path d="M97.6709 29.3047C97.6566 29.1421 97.6471 28.9317 97.6471 28.6783V27.0384H93.6335V26.3882H99.2972V27.0384H98.3461V32.0634H97.6518V30.1653C97.3142 29.7445 96.9766 29.4194 96.6389 29.1995C96.3013 28.9748 95.9827 28.8648 95.6926 28.8648C95.4501 28.8648 95.2551 28.927 95.1077 29.0513C94.9603 29.1756 94.889 29.3429 94.889 29.5628C94.889 29.7445 94.9508 29.9023 95.0792 30.0314C95.2076 30.1605 95.4026 30.28 95.6736 30.3852L95.3217 31.0354C94.9365 30.8729 94.6464 30.6673 94.442 30.4043C94.2422 30.1461 94.1424 29.8545 94.1424 29.5342C94.1424 29.2712 94.2042 29.0417 94.3326 28.8409C94.4562 28.6401 94.6322 28.4823 94.8604 28.3723C95.0839 28.2624 95.3265 28.2098 95.5785 28.2098C95.9447 28.2098 96.2966 28.2958 96.6294 28.4632C96.9671 28.6305 97.3095 28.9126 97.6709 29.3047Z" fill="black"/>
<path d="M104.771 28.8073C105.18 29.1133 105.389 29.5149 105.389 30.0217C105.389 30.5285 105.203 30.9301 104.828 31.2361C104.452 31.5421 103.948 31.6903 103.315 31.6903C102.379 31.6903 101.594 31.3365 100.962 30.6289C100.329 29.9213 99.8298 28.8599 99.4636 27.4447L100.144 27.2439C100.505 28.5491 100.933 29.5053 101.432 30.103C101.932 30.7006 102.564 31.0018 103.33 31.0018C103.748 31.0018 104.076 30.9157 104.309 30.7388C104.542 30.5619 104.656 30.3181 104.656 29.9978C104.656 29.6774 104.509 29.424 104.209 29.2041C104.048 29.2997 103.829 29.3954 103.563 29.5005L103.282 28.8503C103.734 28.7021 104.062 28.5348 104.262 28.3483C104.461 28.1618 104.566 27.9371 104.566 27.6789C104.566 27.4542 104.504 27.2821 104.376 27.1626C104.252 27.0431 104.067 26.9857 103.824 26.9857C103.558 26.9857 103.301 27.0431 103.044 27.1578C102.792 27.2725 102.588 27.4208 102.431 27.5929C102.274 27.765 102.198 27.9276 102.198 28.0662C102.198 28.1427 102.212 28.2001 102.241 28.2527C102.269 28.3005 102.322 28.3435 102.398 28.3818C102.474 28.42 102.574 28.4487 102.702 28.4678L102.512 29.142C101.822 29.0129 101.475 28.6782 101.475 28.1379C101.475 27.8606 101.589 27.5785 101.818 27.2917C102.046 27.0048 102.341 26.7705 102.702 26.5984C103.063 26.4215 103.439 26.3354 103.824 26.3354C104.281 26.3354 104.642 26.455 104.904 26.6892C105.165 26.9235 105.294 27.2486 105.294 27.6646C105.294 28.1045 105.118 28.4869 104.771 28.8168V28.8073Z" fill="black"/>
<path d="M110.453 32.0681H109.759C109.464 31.4992 109.036 31.0163 108.47 30.6195C107.905 30.2226 107.282 29.9645 106.587 29.8497L106.231 28.97C106.844 28.6066 107.443 28.2911 108.028 28.0185C108.613 27.746 109.193 27.5261 109.754 27.3444V27.0384H105.807V26.3882H111.405V27.0384H110.453V32.0634V32.0681ZM107.595 32.1207C107.448 32.1207 107.32 32.0681 107.21 31.9677C107.101 31.8673 107.049 31.7382 107.049 31.5852C107.049 31.4323 107.101 31.3079 107.206 31.2028C107.31 31.0976 107.443 31.045 107.6 31.045C107.748 31.045 107.876 31.0976 107.976 31.2028C108.081 31.3079 108.133 31.4323 108.133 31.5852C108.133 31.7382 108.081 31.8673 107.976 31.9677C107.871 32.0681 107.748 32.1207 107.6 32.1207H107.595ZM109.759 28.0616C109.265 28.2337 108.789 28.4202 108.347 28.6257C107.905 28.8313 107.481 29.0513 107.082 29.2903C107.662 29.429 108.195 29.6537 108.684 29.974C109.174 30.2943 109.54 30.6625 109.792 31.0784C109.773 30.8298 109.759 30.586 109.759 30.3374V28.0616Z" fill="black"/>
<path d="M111.652 27.5544L111.752 27.0428H111.219V26.3926H117.596V27.0428H116.645V32.0678H115.951V29.1608C115.817 28.9935 115.694 28.8644 115.589 28.7736C115.48 28.6827 115.375 28.6397 115.271 28.6397C115.171 28.6397 115.09 28.6684 115.018 28.721C114.947 28.7783 114.871 28.8692 114.785 29.0031C114.7 29.1369 114.581 29.3425 114.429 29.6198C114.139 30.1505 113.901 30.4995 113.711 30.6621C113.521 30.8247 113.292 30.9059 113.021 30.9059C112.75 30.9059 112.498 30.8151 112.284 30.6382C112.065 30.4565 111.847 30.1936 111.628 29.8445L112.184 29.5099C112.341 29.7872 112.474 29.9688 112.579 30.0645C112.688 30.1553 112.807 30.2031 112.94 30.2031C113.074 30.2031 113.207 30.1457 113.335 30.0262C113.459 29.9067 113.597 29.725 113.749 29.4716C113.673 28.9122 113.578 28.525 113.459 28.3098C113.34 28.0994 113.15 27.9369 112.888 27.8269C112.627 27.7169 112.213 27.6261 111.647 27.5592L111.652 27.5544ZM112.284 27.0428C112.945 27.1432 113.411 27.3153 113.687 27.5639C113.958 27.8126 114.12 28.219 114.172 28.7783C114.305 28.5106 114.443 28.3098 114.581 28.1711C114.719 28.0325 114.885 27.9656 115.08 27.9656C115.232 27.9656 115.375 27.999 115.508 28.0707C115.646 28.1425 115.798 28.2668 115.974 28.4437C115.955 28.3098 115.946 28.1233 115.946 27.8843V27.0428H112.284Z" fill="black"/>
<path d="M123.778 31.4991C123.631 31.3604 123.483 31.2887 123.345 31.2887C123.226 31.2887 123.131 31.3317 123.065 31.4178C122.998 31.5039 122.965 31.633 122.965 31.8003C122.965 31.8816 122.974 31.9581 122.989 32.0346L122.432 32.0633C122.394 31.7334 122.294 31.4752 122.133 31.2935C121.971 31.1118 121.766 31.0162 121.519 31.0162C121.357 31.0162 121.224 31.0592 121.124 31.1501C121.025 31.2409 120.977 31.3509 120.977 31.4847C120.977 31.6473 121.039 31.7859 121.167 31.9055C121.296 32.025 121.486 32.1302 121.738 32.2162L121.476 32.8378C121.072 32.6896 120.773 32.4983 120.573 32.2736C120.373 32.0441 120.273 31.7764 120.273 31.4608C120.273 31.1453 120.387 30.911 120.611 30.7054C120.839 30.4998 121.12 30.3994 121.462 30.3994C121.709 30.3994 121.933 30.4568 122.128 30.5668C122.323 30.6767 122.494 30.8489 122.637 31.0688C122.703 30.9397 122.789 30.8393 122.893 30.7724C122.998 30.7054 123.122 30.672 123.269 30.672C123.374 30.672 123.469 30.6959 123.55 30.7437C123.635 30.7915 123.721 30.8584 123.806 30.9493V30.9301C123.493 30.5285 123.107 30.2082 122.646 29.9596C122.185 29.7157 121.652 29.5484 121.039 29.4576L120.696 28.6352C121.215 28.3722 121.728 28.1332 122.242 27.9228C122.756 27.7124 123.269 27.5308 123.773 27.373V27.0335H119.764V26.3833H127.107V27.0335H124.467V27.3395C125.133 27.459 125.656 27.6694 126.032 27.9754C126.408 28.2814 126.593 28.6543 126.593 29.0894C126.593 29.405 126.493 29.6584 126.298 29.8496C126.099 30.0408 125.827 30.1365 125.476 30.1365C125.29 30.1365 125.133 30.1221 125 30.0934L125.038 29.4576C125.128 29.4671 125.214 29.4767 125.295 29.4767C125.495 29.4767 125.642 29.4432 125.747 29.3763C125.847 29.3093 125.899 29.1946 125.899 29.0273C125.899 28.7834 125.775 28.5683 125.528 28.3866C125.281 28.2049 124.929 28.0758 124.467 27.9945V32.4553H123.773V31.4895L123.778 31.4991ZM123.778 28.0567C123.359 28.1858 122.969 28.3244 122.608 28.4726C122.247 28.6161 121.904 28.7691 121.595 28.9268C122.028 29.0177 122.423 29.1563 122.775 29.338C123.126 29.5197 123.474 29.7779 123.811 30.1078C123.792 29.7205 123.778 29.4671 123.778 29.3476V28.0615V28.0567Z" fill="black"/>
<path d="M128.571 32.0685H127.877V27.7894C127.791 27.5504 127.673 27.3639 127.525 27.2348C127.378 27.1057 127.202 27.0388 127.002 27.0388H126.921V26.3886H127.069C127.226 26.3886 127.382 26.4411 127.535 26.5415C127.687 26.642 127.81 26.7854 127.906 26.9623C127.887 26.8189 127.877 26.6563 127.877 26.4698V25.7861H128.362L128.567 26.3886H129.527V27.0388H128.576V32.0637L128.571 32.0685Z" fill="black"/>
<path d="M133.983 32.0681H133.289C132.994 31.4992 132.566 31.0163 132 30.6195C131.434 30.2226 130.811 29.9645 130.117 29.8497L129.76 28.97C130.374 28.6066 130.973 28.2911 131.558 28.0185C132.143 27.746 132.723 27.5261 133.284 27.3444V27.0384H129.337V26.3882H134.934V27.0384H133.983V32.0634V32.0681ZM133.289 28.0616C132.794 28.2337 132.319 28.4202 131.876 28.6257C131.434 28.8313 131.011 29.0513 130.612 29.2903C131.192 29.429 131.724 29.6537 132.214 29.974C132.704 30.2943 133.07 30.6625 133.322 31.0784C133.303 30.8298 133.289 30.586 133.289 30.3374V28.0616Z" fill="black"/>
<path d="M140.431 28.6734C140.431 28.8072 140.441 28.9029 140.46 28.965C140.479 29.0272 140.512 29.0798 140.564 29.1228C140.617 29.1658 140.683 29.1897 140.764 29.1897C140.945 29.1897 141.135 29.1037 141.33 28.9315C141.53 28.7594 141.753 28.4917 142.005 28.1235L142.547 28.0327C142.956 28.6351 143.161 29.2375 143.161 29.8352C143.161 30.4328 142.966 30.9205 142.576 31.2886C142.186 31.6568 141.653 31.8432 140.983 31.8432C140.098 31.8432 139.375 31.5086 138.819 30.844C138.263 30.1794 137.806 29.1706 137.464 27.8271L138.153 27.6406C138.453 28.8311 138.819 29.7156 139.252 30.2942C139.685 30.8727 140.25 31.1595 140.95 31.1595C141.42 31.1595 141.791 31.04 142.062 30.8009C142.333 30.5619 142.471 30.2463 142.471 29.8495C142.471 29.4527 142.39 29.1467 142.224 28.8837C141.986 29.2184 141.744 29.4622 141.496 29.62C141.249 29.7778 141.011 29.8591 140.778 29.8591C140.545 29.8591 140.35 29.8065 140.189 29.7013C140.027 29.5961 139.908 29.4575 139.842 29.2758C139.77 29.0989 139.737 28.855 139.737 28.5443V27.0382H137.112V26.388H141.815C141.801 26.1298 141.744 25.9481 141.63 25.8429C141.52 25.7378 141.339 25.6852 141.092 25.6852H139.818C139.252 25.6852 138.843 25.623 138.591 25.4939C138.339 25.3648 138.153 25.1975 138.034 24.9871C137.916 24.7768 137.859 24.5234 137.859 24.2269C137.859 24.0883 137.873 23.9257 137.906 23.7393L138.577 23.7823C138.548 23.9209 138.539 24.0357 138.539 24.1313C138.539 24.3512 138.577 24.5281 138.662 24.662C138.743 24.7959 138.867 24.8915 139.033 24.9441C139.2 24.9967 139.442 25.0254 139.77 25.0254H140.897C141.259 25.0254 141.549 25.0588 141.767 25.1306C141.981 25.2023 142.153 25.3314 142.272 25.5274C142.39 25.7234 142.457 26.0103 142.471 26.3832H143.765V27.0334H140.431V28.6638V28.6734Z" fill="black"/>
<path d="M146.899 26.3926V27.0428H146.713C146.423 27.1145 146.123 27.2819 145.819 27.5496C145.515 27.8173 145.272 28.1329 145.096 28.5058C144.92 28.8788 144.835 29.2708 144.835 29.682C144.835 30.2509 144.954 30.686 145.191 30.9872C145.429 31.2884 145.734 31.4414 146.1 31.4414C146.247 31.4414 146.375 31.4223 146.485 31.3888C146.594 31.3554 146.708 31.3028 146.832 31.2311L147.151 31.7904C146.861 32.0056 146.499 32.1156 146.071 32.1156C145.695 32.1156 145.358 32.0152 145.058 31.8143C144.763 31.6135 144.53 31.3315 144.369 30.9633C144.207 30.5952 144.121 30.1744 144.121 29.6963C144.121 29.1369 144.245 28.6254 144.497 28.1568C144.749 27.6883 145.101 27.3106 145.553 27.0189C145.353 27.038 145.12 27.0476 144.863 27.0476H143.589V26.3974H146.913L146.899 26.3926Z" fill="black"/>
<path d="M146.713 27.0428V26.3926H152.372V27.0428H148.244V29.4381C148.611 29.0557 149.034 28.7114 149.509 28.4102C149.985 28.109 150.522 27.846 151.112 27.6261L151.702 28.2142C151.535 28.5297 151.412 28.8405 151.34 29.1417C151.264 29.4477 151.231 29.7967 151.231 30.1888C151.231 30.4852 151.255 30.7673 151.302 31.0446C151.35 31.3219 151.431 31.6279 151.545 31.9673L150.86 32.1299C150.632 31.3793 150.517 30.6812 150.517 30.0358C150.517 29.7394 150.546 29.4525 150.603 29.1704C150.66 28.8883 150.741 28.6445 150.846 28.4437C150.399 28.6397 149.947 28.9074 149.486 29.2421C149.024 29.5816 148.558 29.988 148.083 30.4661L147.545 30.1027V27.038H146.708L146.713 27.0428Z" fill="black"/>
<path d="M152.187 26.393H154.688V27.0432H154.365C154.16 27.2249 154.003 27.4113 153.889 27.6026C153.775 27.7938 153.718 28.0807 153.718 28.4632C153.718 28.6736 153.77 28.9987 153.87 29.4433C153.97 29.888 154.022 30.2561 154.022 30.5573C154.022 30.9637 153.951 31.2984 153.808 31.5566C153.665 31.8147 153.456 32.0251 153.18 32.1829C152.905 32.3454 152.576 32.465 152.196 32.5462L152.001 31.9151C152.248 31.8578 152.462 31.7813 152.643 31.6952C152.824 31.6091 152.962 31.5087 153.052 31.3988C153.142 31.2888 153.209 31.1693 153.252 31.0402C153.29 30.9111 153.314 30.739 153.314 30.5286C153.314 30.2561 153.261 29.9071 153.161 29.4768C153.062 29.0465 153.009 28.7118 153.009 28.4775C153.009 28.1572 153.047 27.8942 153.133 27.6839C153.218 27.4735 153.352 27.2583 153.537 27.0384H152.196V26.3882L152.187 26.393Z" fill="black"/>
<path d="M156.157 32.0685H155.463V27.7894C155.377 27.5504 155.259 27.3639 155.111 27.2348C154.964 27.1057 154.788 27.0388 154.588 27.0388H154.507V26.3886H154.655C154.812 26.3886 154.968 26.4411 155.121 26.5415C155.273 26.642 155.396 26.7854 155.492 26.9623C155.473 26.8189 155.463 26.6563 155.463 26.4698V25.7861H155.948L156.153 26.3886H157.113V27.0388H156.162V32.0637L156.157 32.0685Z" fill="black"/>
<path d="M162.111 27.0442V32.0691H161.417V28.5024C161.013 27.9478 160.661 27.5605 160.361 27.3358C160.057 27.1111 159.738 26.9963 159.405 26.9963C159.158 26.9963 158.935 27.0537 158.735 27.1732C158.53 27.2928 158.326 27.4984 158.121 27.7996C158.34 27.6848 158.625 27.6274 158.982 27.6274C159.339 27.6274 159.634 27.7326 159.843 27.943C160.052 28.1534 160.157 28.4068 160.157 28.708C160.157 29.0618 160.038 29.3821 159.8 29.6642C159.562 29.9463 159.187 30.2284 158.673 30.5057L158.212 29.8411C158.625 29.669 158.93 29.4921 159.13 29.3152C159.329 29.1383 159.429 28.947 159.429 28.7462C159.429 28.6028 159.377 28.488 159.267 28.402C159.158 28.3159 159.015 28.2729 158.835 28.2729C158.692 28.2729 158.554 28.2872 158.421 28.3207C158.288 28.3542 158.131 28.4116 157.95 28.4976L157.218 27.9C157.517 27.3693 157.846 26.9772 158.193 26.719C158.54 26.4609 158.92 26.3318 159.334 26.3318C159.748 26.3318 160.09 26.4274 160.423 26.6234C160.756 26.8194 161.098 27.1302 161.45 27.5557C161.45 27.4792 161.441 27.3693 161.431 27.2354C161.422 27.0967 161.417 26.9294 161.417 26.7286V25.7915H161.897L162.106 26.3939H163.067V27.0442H162.116H162.111Z" fill="black"/>
</g>
<defs>
<clipPath id="clip0_2516_73212">
<rect width="184" height="97.0182" fill="white" transform="translate(0 0.490723)"/>
</clipPath>
</defs>
</svg>
